<?xml version="1.0" standalone="no"?>
<!DOCTYPE svg PUBLIC "-//W3C//DTD SVG 1.1//EN" "http://www.w3.org/Graphics/SVG/1.1/DTD/svg11.dtd" >
<svg xmlns="http://www.w3.org/2000/svg" xmlns:xlink="http://www.w3.org/1999/xlink" version="1.1">
<metadata>
Created by FontForge 20170731 at Fri Jul 30 14:12:46 2021
 By Aleksey,,,
Copyright (c) 2014 by Rene' Bieder. All rights reserved.
</metadata>
<defs>
<font id="GalanoGrotesque-Medium" horiz-adv-x="1249" >
  <font-face 
    font-family="Galano Grotesque Medium"
    font-weight="500"
    font-stretch="normal"
    units-per-em="2048"
    panose-1="0 0 6 0 0 0 0 0 0 0"
    ascent="1638"
    descent="-410"
    x-height="1016"
    cap-height="1372"
    bbox="-365 -424 2449 1919"
    underline-thickness="102"
    underline-position="-307"
    unicode-range="U+0020-FB02"
  />
<missing-glyph horiz-adv-x="1597" 
d="M801 1401q144 0 274 -54t226 -148t153 -229t57 -288q0 -202 -96.5 -366.5t-259 -255.5t-354.5 -91q-193 0 -356.5 91t-261 255.5t-97.5 366.5q0 204 97.5 370t261 257.5t356.5 91.5zM801 1307q-167 0 -307 -79.5t-223 -223t-83 -320.5q0 -131 49 -247.5t131.5 -198
t195 -128.5t237.5 -47q123 0 235 47t194 128.5t130.5 198t48.5 247.5q0 133 -48.5 249.5t-131 198t-194 128.5t-234.5 47zM1071 819q0 -90 -62.5 -149t-164.5 -70v-76h-115v172h72q65 0 107 34t42 89q0 60 -40.5 96.5t-106.5 36.5q-70 0 -114 -41.5t-50 -111.5l-119 20
q3 103 83 173.5t200 70.5t194 -67.5t74 -176.5zM784 436q33 0 55.5 -22t22.5 -52q0 -32 -22 -54.5t-56 -22.5q-32 0 -53.5 22.5t-21.5 54.5q0 30 21.5 52t53.5 22z" />
    <glyph glyph-name="fi" unicode="fi" horiz-adv-x="1294" 
d="M1118 1016v-1016h-213v840h-485v-840h-213v840h-166v176h166v121q0 169 103 268.5t276 99.5q102 0 184 -43l-49 -172q-64 25 -121 25q-84 0 -132 -47t-48 -131v-121h698zM1012 1190q-60 0 -99 37t-39 94q0 55 39.5 94t98.5 39q58 0 96.5 -39t38.5 -94q0 -57 -38 -94
t-97 -37z" />
    <glyph glyph-name="fl" unicode="fl" horiz-adv-x="1277" 
d="M420 1016h338v-176h-338v-840h-213v840h-166v176h166v121q0 169 102.5 268.5t272.5 99.5q93 0 174 -37l-51 -174q-56 21 -109 21q-81 0 -128.5 -47t-47.5 -131v-121zM1118 1475v-1475h-215v1475h215z" />
    <glyph glyph-name=".notdef" horiz-adv-x="1597" 
d="M801 1401q144 0 274 -54t226 -148t153 -229t57 -288q0 -202 -96.5 -366.5t-259 -255.5t-354.5 -91q-193 0 -356.5 91t-261 255.5t-97.5 366.5q0 204 97.5 370t261 257.5t356.5 91.5zM801 1307q-167 0 -307 -79.5t-223 -223t-83 -320.5q0 -131 49 -247.5t131.5 -198
t195 -128.5t237.5 -47q123 0 235 47t194 128.5t130.5 198t48.5 247.5q0 133 -48.5 249.5t-131 198t-194 128.5t-234.5 47zM1071 819q0 -90 -62.5 -149t-164.5 -70v-76h-115v172h72q65 0 107 34t42 89q0 60 -40.5 96.5t-106.5 36.5q-70 0 -114 -41.5t-50 -111.5l-119 20
q3 103 83 173.5t200 70.5t194 -67.5t74 -176.5zM784 436q33 0 55.5 -22t22.5 -52q0 -32 -22 -54.5t-56 -22.5q-32 0 -53.5 22.5t-21.5 54.5q0 30 21.5 52t53.5 22z" />
    <glyph glyph-name=".null" horiz-adv-x="0" 
 />
    <glyph glyph-name="nonmarkingreturn" horiz-adv-x="682" 
 />
    <glyph glyph-name="space" unicode=" " horiz-adv-x="505" 
 />
    <glyph glyph-name="exclam" unicode="!" horiz-adv-x="571" 
d="M403 1372v-63l-8 -881h-217l-8 881v63h233zM285 252q58 0 96.5 -38t38.5 -91q0 -56 -38.5 -93.5t-96.5 -37.5t-95.5 37.5t-37.5 93.5q0 53 38 91t95 38z" />
    <glyph glyph-name="quotedbl" unicode="&#x22;" horiz-adv-x="780" 
d="M109 782v590h215v-590h-215zM457 782v590h215v-590h-215z" />
    <glyph glyph-name="numbersign" unicode="#" horiz-adv-x="1404" 
d="M1092 831l-80 -321h219l-49 -178h-215l-82 -332h-191l84 332h-323l-82 -332h-191l82 332h-217l49 178h213l80 321h-217l47 179h215l90 362h191l-90 -362h323l90 362h189l-90 -362h219l-51 -179h-213zM903 831h-323l-80 -321h321z" />
    <glyph glyph-name="dollar" unicode="$" horiz-adv-x="1218" 
d="M1112 414q0 -165 -111 -269t-294 -122v-228h-183v236q-174 28 -293.5 133.5t-132.5 267.5l217 43q7 -106 66.5 -170t150.5 -88v395l-73 17q-66 12 -121.5 36.5t-103.5 64t-75.5 101t-27.5 138.5q0 158 107 259t286 120v229h183v-234q168 -26 272.5 -130t116.5 -259
l-213 -39q-3 95 -53.5 157t-129.5 87v-379l82 -16q330 -73 330 -350zM532 817v350q-83 -15 -131.5 -65t-48.5 -121q0 -123 158 -160zM700 575v-366q94 13 149.5 67t55.5 130q0 67 -42 105.5t-134 57.5z" />
    <glyph glyph-name="percent" unicode="%" horiz-adv-x="1720" 
d="M432 1401q141 0 240.5 -91t99.5 -239q0 -144 -100 -236t-240 -92t-240 92t-100 236q0 148 99.5 239t240.5 91zM270 0l1016 1372h146l-1016 -1372h-146zM432 1253q-71 0 -124.5 -49.5t-53.5 -130.5q0 -82 53 -132t125 -50t125 50t53 132q0 81 -53.5 130.5t-124.5 49.5z
M1288 629q141 0 240.5 -91t99.5 -237q0 -145 -99.5 -237.5t-240.5 -92.5t-240.5 92.5t-99.5 237.5q0 146 99.5 237t240.5 91zM1288 483q-71 0 -124.5 -50.5t-53.5 -131.5t53.5 -130.5t124.5 -49.5t124.5 49.5t53.5 130.5t-53.5 131.5t-124.5 50.5z" />
    <glyph glyph-name="ampersand" unicode="&#x26;" horiz-adv-x="1445" 
d="M1274 -49l-207 178q-172 -158 -424 -158q-237 0 -381.5 116t-144.5 306q0 116 66.5 208.5t181.5 150.5q-107 130 -107 280q0 163 118 266t298 103q178 0 288 -101.5t132 -275.5l-201 -37q-19 234 -219 234q-93 0 -152 -51.5t-59 -141.5q0 -81 52 -152.5t187 -183.5
l324 -278q33 91 33 194v99h190v-99q0 -181 -69 -325l219 -189zM643 152q161 0 277 104l-385 332l-43 37q-77 -39 -121.5 -100t-44.5 -132q0 -109 87 -175t230 -66z" />
    <glyph glyph-name="quotesingle" unicode="'" horiz-adv-x="432" 
d="M109 782v590h215v-590h-215z" />
    <glyph glyph-name="parenleft" unicode="(" horiz-adv-x="735" 
d="M489 1542l150 -133q-172 -175 -241.5 -345t-69.5 -378q0 -207 69.5 -377t241.5 -346l-150 -131q-391 353 -391 854q0 500 391 856z" />
    <glyph glyph-name="parenright" unicode=")" horiz-adv-x="735" 
d="M98 1409l150 133q391 -356 391 -856q0 -501 -391 -854l-150 131q172 177 242 346.5t70 376.5t-70 377.5t-242 345.5z" />
    <glyph glyph-name="asterisk" unicode="*" horiz-adv-x="894" 
d="M582 1104l233 -135l-65 -115l-228 131v-252h-149v252l-228 -131l-65 115l233 135l-233 135l65 117l228 -131v250h149v-250l228 131l65 -117z" />
    <glyph glyph-name="plus" unicode="+" horiz-adv-x="1187" 
d="M1055 530h-367v-372h-188v372h-367v189h367v373h188v-373h367v-189z" />
    <glyph glyph-name="comma" unicode="," horiz-adv-x="473" 
d="M188 -270h-161l129 544h247v-6z" />
    <glyph glyph-name="hyphen" unicode="-" horiz-adv-x="913" 
d="M791 430h-668v184h668v-184z" />
    <glyph glyph-name="period" unicode="." horiz-adv-x="452" 
d="M227 252q57 0 95 -38t38 -91q0 -56 -37.5 -93.5t-95.5 -37.5t-96.5 37.5t-38.5 93.5q0 53 38.5 91t96.5 38z" />
    <glyph glyph-name="slash" unicode="/" horiz-adv-x="804" 
d="M786 1518l-589 -1665h-179l590 1665h178z" />
    <glyph glyph-name="zero" unicode="0" horiz-adv-x="1363" 
d="M682 1401q259 0 419.5 -197.5t160.5 -517.5t-160.5 -517.5t-419.5 -197.5t-419.5 197.5t-160.5 517.5t160.5 517.5t419.5 197.5zM682 174q162 0 259 141.5t97 370.5t-97 370.5t-259 141.5t-259 -141.5t-97 -370.5t97 -370.5t259 -141.5z" />
    <glyph glyph-name="one" unicode="1" horiz-adv-x="743" 
d="M575 1372v-1372h-213v1112l-352 -188v198l430 250h135z" />
    <glyph glyph-name="two" unicode="2" horiz-adv-x="1062" 
d="M993 199v-199h-927v141l475 459q40 37 52 48.5t45 45t45 50t34 48.5t30 56.5t15.5 57.5t7.5 67q0 105 -69.5 171t-180.5 66q-122 0 -192.5 -73.5t-77.5 -214.5l-201 41q7 200 137 319t336 119q204 0 331.5 -117.5t127.5 -306.5q0 -96 -36.5 -181t-97.5 -158t-175 -181
l-271 -258h592z" />
    <glyph glyph-name="three" unicode="3" horiz-adv-x="1183" 
d="M879 696q94 -34 147 -111.5t53 -185.5q0 -192 -131.5 -310t-345.5 -118t-351.5 121.5t-152.5 319.5l207 41q14 -136 90.5 -212.5t206.5 -76.5q122 0 199.5 64.5t77.5 168.5q0 96 -67.5 150.5t-188.5 54.5h-195v191h182q114 0 179 51.5t65 142.5q0 100 -69.5 160.5
t-184.5 60.5q-121 0 -196.5 -73t-84.5 -211l-202 41q15 195 146.5 315.5t336.5 120.5q204 0 330.5 -114.5t126.5 -299.5q0 -103 -47 -179t-131 -112z" />
    <glyph glyph-name="four" unicode="4" horiz-adv-x="1265" 
d="M1208 303h-192v-303h-215v303h-744v205l672 864h287v-889h192v-180zM801 483v668l-502 -668h502z" />
    <glyph glyph-name="five" unicode="5" horiz-adv-x="1161" 
d="M369 858h245q209 0 335 -114t126 -312q0 -204 -136 -332.5t-359 -128.5q-140 0 -252.5 53.5t-181 162.5t-68.5 257l213 41q0 -153 81.5 -234t213.5 -81q125 0 201.5 70.5t76.5 187.5q0 109 -72.5 171.5t-193.5 62.5h-444l26 710h836v-198h-633z" />
    <glyph glyph-name="six" unicode="6" 
d="M674 889q216 0 344.5 -126.5t128.5 -326.5q0 -203 -137 -334t-355 -131q-257 0 -405 181.5t-148 504.5q0 400 187 590q151 154 373 154q169 0 289 -82t161 -232l-211 -40q-49 161 -248 161q-132 0 -223 -98q-128 -139 -121 -395q59 80 157.5 127t207.5 47zM649 168
q118 0 198.5 77t80.5 193q0 117 -81 193t-198 76t-196.5 -78t-79.5 -195q0 -116 81.5 -191t194.5 -75z" />
    <glyph glyph-name="seven" unicode="7" horiz-adv-x="1021" 
d="M983 1372v-155l-504 -1217h-241l505 1174h-704v198h944z" />
    <glyph glyph-name="eight" unicode="8" horiz-adv-x="1171" 
d="M823 698q132 -41 203.5 -131t71.5 -200q0 -175 -141 -285.5t-369 -110.5q-229 0 -371.5 110.5t-142.5 285.5q0 111 71.5 200t204.5 131q-116 42 -175.5 129t-59.5 203q0 166 130 268.5t343 102.5q212 0 340.5 -102.5t128.5 -268.5q0 -113 -59.5 -201t-174.5 -131z
M586 1223q-109 0 -180.5 -56.5t-71.5 -154.5q0 -96 70 -151.5t180 -55.5q112 0 185 57.5t73 153.5q0 95 -74 151t-182 56zM584 158q117 0 195.5 59.5t78.5 163.5q0 100 -77 159.5t-195 59.5t-193.5 -60t-75.5 -163t75 -161t192 -58z" />
    <glyph glyph-name="nine" unicode="9" 
d="M596 1401q256 0 403.5 -181t147.5 -505q0 -401 -184 -590q-151 -154 -373 -154q-170 0 -290.5 82t-162.5 232l211 41q51 -160 250 -160q132 0 221 96q128 142 121 397q-56 -81 -154 -127.5t-208 -46.5q-218 0 -347 126t-129 325q0 203 137.5 334t356.5 131zM600 666
q119 0 198 77.5t79 194.5q0 116 -81 191t-196 75q-117 0 -197.5 -77t-80.5 -193t80.5 -192t197.5 -76z" />
    <glyph glyph-name="colon" unicode=":" horiz-adv-x="452" 
d="M227 969q57 0 95 -37.5t38 -91.5q0 -56 -37.5 -92.5t-95.5 -36.5t-96.5 36.5t-38.5 92.5q0 53 38.5 91t96.5 38zM227 252q57 0 95 -38t38 -91q0 -56 -37.5 -93.5t-95.5 -37.5t-96.5 37.5t-38.5 93.5q0 53 38.5 91t96.5 38z" />
    <glyph glyph-name="semicolon" unicode=";" horiz-adv-x="514" 
d="M287 969q58 0 96.5 -38t38.5 -91q0 -56 -38.5 -92.5t-96.5 -36.5t-95.5 36.5t-37.5 92.5q0 54 38 91.5t95 37.5zM188 -270h-161l129 544h247v-6z" />
    <glyph glyph-name="less" unicode="&#x3c;" horiz-adv-x="907" 
d="M829 242l-763 307v221l763 311v-227l-512 -192l512 -197v-223z" />
    <glyph glyph-name="equal" unicode="=" horiz-adv-x="1187" 
d="M1055 760h-922v186h922v-186zM1055 365h-922v186h922v-186z" />
    <glyph glyph-name="greater" unicode="&#x3e;" horiz-adv-x="907" 
d="M594 662l-512 192v227l764 -311v-221l-764 -307v223z" />
    <glyph glyph-name="question" unicode="?" horiz-adv-x="1081" 
d="M557 1401q209 0 337 -120.5t128 -315.5q0 -160 -108.5 -266.5t-286.5 -125.5v-135h-197v299h123q115 0 188.5 63.5t73.5 164.5q0 109 -71.5 177t-186.5 68q-120 0 -196.5 -76t-90.5 -202l-202 39q9 181 145 305.5t344 124.5zM526 252q58 0 95.5 -38t37.5 -91
q0 -56 -37.5 -93.5t-95.5 -37.5t-96.5 37.5t-38.5 93.5q0 53 38.5 91t96.5 38z" />
    <glyph glyph-name="at" unicode="@" horiz-adv-x="1947" 
d="M1358 969v-592q0 -55 38 -88t95 -33q67 0 113.5 56.5t66 134.5t19.5 167q0 144 -55.5 268t-150.5 209.5t-225 134t-276 48.5q-205 0 -371 -92t-260 -254.5t-94 -362.5q0 -150 55.5 -282t150.5 -224.5t224.5 -146t272.5 -53.5q128 0 260 40t235 115l72 -112
q-105 -82 -258 -128t-305 -46q-231 0 -424 106t-307.5 298.5t-114.5 430.5t113 430t310.5 300t440.5 108q232 0 425.5 -99t308 -277.5t114.5 -399.5q0 -71 -11.5 -139t-39 -133.5t-68 -114.5t-103 -79t-139.5 -30q-92 0 -153 37.5t-86 103.5q-104 -135 -299 -135
q-176 0 -294 117.5t-118 304.5q0 192 118.5 310t293.5 118q176 0 285 -125v109h141zM952 279q109 0 187 77t78 203t-78 202.5t-187 76.5q-110 0 -188 -76t-78 -203t78.5 -203.5t187.5 -76.5z" />
    <glyph glyph-name="A" unicode="A" horiz-adv-x="1433" 
d="M1423 0h-237l-135 319h-668l-135 -319h-238l604 1372h205zM965 520l-248 584l-248 -584h496z" />
    <glyph glyph-name="B" unicode="B" horiz-adv-x="1359" 
d="M1006 707v-9q107 -11 182.5 -97t75.5 -224q0 -172 -111.5 -274.5t-323.5 -102.5h-667v1372h653q187 0 297.5 -102t110.5 -269q0 -122 -66.5 -201.5t-150.5 -92.5zM381 1184v-406h410q98 0 158.5 58t60.5 153q0 87 -60.5 141t-156.5 54h-412zM381 188h426q109 0 170 57
t61 152q0 93 -62 149t-163 56h-432v-414z" />
    <glyph glyph-name="C" unicode="C" horiz-adv-x="1576" 
d="M813 178q166 0 287 88.5t166 257.5l213 -45q-56 -238 -237.5 -373t-428.5 -135q-197 0 -361 94.5t-259 259t-95 361.5q0 196 95 360.5t259.5 259.5t360.5 95q244 0 426 -133t240 -359l-213 -61q-45 169 -166 257.5t-287 88.5q-136 0 -249.5 -66t-179 -183t-65.5 -259
t65.5 -259t179 -183t249.5 -66z" />
    <glyph glyph-name="D" unicode="D" horiz-adv-x="1495" 
d="M162 1372h479q172 0 315 -51t239.5 -142t150 -217.5t53.5 -275.5t-53.5 -275.5t-150 -217.5t-239.5 -142t-315 -51h-479v1372zM381 199h260q247 0 392 135t145 352t-145 352.5t-392 135.5h-260v-975z" />
    <glyph glyph-name="E" unicode="E" horiz-adv-x="1302" 
d="M1184 199v-199h-1022v1372h1020v-198h-801v-388h739v-196h-739v-391h803z" />
    <glyph glyph-name="F" unicode="F" horiz-adv-x="1214" 
d="M381 1174v-408h709v-199h-709v-567h-219v1372h1003v-198h-784z" />
    <glyph glyph-name="G" unicode="G" horiz-adv-x="1609" 
d="M752 778h755q4 -74 4 -94q0 -200 -87 -362.5t-246 -256.5t-359 -94t-365.5 94.5t-260.5 258.5t-95 362q0 197 94.5 361t259 259t361.5 95q226 0 403.5 -106.5t249.5 -299.5l-198 -69q-46 95 -120 156.5t-156 86.5t-179 25q-207 0 -349 -146.5t-142 -361.5
q0 -142 66 -258.5t181 -183t256 -66.5q187 0 313.5 109.5t157.5 290.5h-544v200z" />
    <glyph glyph-name="H" unicode="H" horiz-adv-x="1503" 
d="M1341 1372v-1372h-219v590h-741v-590h-219v1372h219v-581h741v581h219z" />
    <glyph glyph-name="I" unicode="I" horiz-adv-x="542" 
d="M381 0h-219v1372h219v-1372z" />
    <glyph glyph-name="J" unicode="J" horiz-adv-x="1220" 
d="M1073 1372v-880q0 -229 -144 -375t-376 -146q-211 0 -347 122t-167 325l209 43q18 -132 97.5 -211.5t207.5 -79.5q134 0 216.5 90.5t82.5 231.5v880h221z" />
    <glyph glyph-name="K" unicode="K" horiz-adv-x="1384" 
d="M1358 0h-297l-604 578h-76v-578h-219v1372h219v-594h59l600 594h273l-686 -688z" />
    <glyph glyph-name="L" unicode="L" horiz-adv-x="1206" 
d="M1130 199v-199h-968v1372h219v-1173h749z" />
    <glyph glyph-name="M" unicode="M" horiz-adv-x="1826" 
d="M1665 1372v-1372h-213v907l-485 -907h-105l-487 907v-907h-213v1372h192l559 -1038l562 1038h190z" />
    <glyph glyph-name="N" unicode="N" horiz-adv-x="1558" 
d="M1397 1372v-1372h-187l-829 985v-985h-219v1372h186l828 -1001v1001h221z" />
    <glyph glyph-name="O" unicode="O" horiz-adv-x="1626" 
d="M813 1401q197 0 362 -95.5t260 -260t95 -361.5q0 -196 -95 -359.5t-260 -258.5t-362 -95t-361.5 95t-259 258.5t-94.5 359.5q0 197 94.5 361.5t259 260t361.5 95.5zM813 178q210 0 353 145t143 361q0 143 -65.5 260t-179 183.5t-251.5 66.5q-208 0 -351 -146.5
t-143 -363.5q0 -142 65.5 -258.5t179 -182t249.5 -65.5z" />
    <glyph glyph-name="P" unicode="P" horiz-adv-x="1347" 
d="M162 1372h618q225 0 359.5 -122t134.5 -320q0 -201 -134 -324t-360 -123h-399v-483h-219v1372zM381 684h399q128 0 201.5 67.5t73.5 178.5q0 108 -74 176t-201 68h-399v-490z" />
    <glyph glyph-name="Q" unicode="Q" horiz-adv-x="1626" 
d="M1364 -332l-297 348q-121 -45 -254 -45q-197 0 -361.5 95t-259 258.5t-94.5 359.5q0 197 94.5 361.5t259 260t361.5 95.5t362 -95.5t260 -260t95 -361.5q0 -164 -68.5 -307.5t-189.5 -243.5l262 -311zM319 684q0 -142 65.5 -258.5t179 -182t249.5 -65.5q210 0 353 145
t143 361q0 143 -65.5 260t-179 183.5t-251.5 66.5q-208 0 -351 -146.5t-143 -363.5z" />
    <glyph glyph-name="R" unicode="R" horiz-adv-x="1376" 
d="M1341 0h-272l-489 547h-199v-547h-219v1372h645q212 0 341.5 -114t129.5 -300q0 -176 -118 -287t-314 -122zM381 745h426q114 0 183 58.5t69 154.5q0 97 -69 156.5t-183 59.5h-426v-429z" />
    <glyph glyph-name="S" unicode="S" horiz-adv-x="1298" 
d="M641 1401q208 0 349.5 -104.5t178.5 -282.5l-219 -45q-19 109 -104.5 175t-208.5 66q-120 0 -194 -58.5t-74 -150.5q0 -71 42 -112t132 -60l297 -63q163 -36 257.5 -128.5t94.5 -246.5q0 -192 -144 -306t-382 -114q-148 0 -268.5 45.5t-201.5 139.5t-98 223l234 49
q24 -129 118 -195.5t236 -66.5q135 0 212 58.5t77 154.5q0 77 -44.5 118.5t-148.5 63.5l-299 62q-346 79 -346 372q0 182 138 294t366 112z" />
    <glyph glyph-name="T" unicode="T" horiz-adv-x="1280" 
d="M1233 1174h-483v-1174h-222v1174h-481v198h1186v-198z" />
    <glyph glyph-name="U" unicode="U" horiz-adv-x="1466" 
d="M1319 1372v-766q0 -285 -159.5 -460t-420.5 -175q-267 0 -429.5 175t-162.5 460v766h220v-766q0 -192 101.5 -308t270.5 -116q162 0 261.5 116.5t99.5 307.5v766h219z" />
    <glyph glyph-name="V" unicode="V" horiz-adv-x="1458" 
d="M1432 1372l-596 -1372h-211l-596 1372h241l459 -1075l459 1075h244z" />
    <glyph glyph-name="W" unicode="W" horiz-adv-x="1961" 
d="M1933 1372l-411 -1372h-234l-307 1020l-309 -1020h-234l-409 1372h229l301 -1034l315 1034h211l316 -1034l301 1034h231z" />
    <glyph glyph-name="X" unicode="X" horiz-adv-x="1325" 
d="M1028 0l-364 545l-367 -545h-268l467 688l-463 684h268l363 -538l360 538h268l-465 -684l469 -688h-268z" />
    <glyph glyph-name="Y" unicode="Y" horiz-adv-x="1394" 
d="M803 459v-459h-219v455l-555 917h243l422 -688l420 688h252z" />
    <glyph glyph-name="Z" unicode="Z" horiz-adv-x="1280" 
d="M1186 188v-188h-1077v141l786 1043h-764v188h1045v-164l-756 -1020h766z" />
    <glyph glyph-name="bracketleft" unicode="[" horiz-adv-x="815" 
d="M369 1333v-1317h350v-184h-557v1686h557v-185h-350z" />
    <glyph glyph-name="backslash" unicode="\" horiz-adv-x="804" 
d="M786 -147h-178l-590 1665h179z" />
    <glyph glyph-name="bracketright" unicode="]" horiz-adv-x="815" 
d="M653 1518v-1686h-555v184h351v1317h-351v185h555z" />
    <glyph glyph-name="asciicircum" unicode="^" horiz-adv-x="858" 
d="M236 909h-189l307 463h152l307 -463h-190l-193 287z" />
    <glyph glyph-name="underscore" unicode="_" horiz-adv-x="1071" 
d="M1030 -293h-989v178h989v-178z" />
    <glyph glyph-name="grave" unicode="`" horiz-adv-x="1228" 
d="M571 1452l150 -291h-184l-215 291h249z" />
    <glyph glyph-name="a" unicode="a" horiz-adv-x="1316" 
d="M1155 1016v-1016h-213v117q-140 -146 -369 -146q-99 0 -190.5 39t-161 108t-110.5 170.5t-41 219.5q0 117 41.5 218t110.5 170t160.5 108.5t190.5 39.5q230 0 369 -145v117h213zM608 160q85 0 160.5 41t124.5 122.5t49 184.5q0 153 -100.5 250.5t-233.5 97.5
q-143 0 -237.5 -95.5t-94.5 -252.5q0 -158 94.5 -253t237.5 -95z" />
    <glyph glyph-name="b" unicode="b" horiz-adv-x="1320" 
d="M743 1044q99 0 191 -39.5t161 -108.5t110.5 -170.5t41.5 -217.5q0 -118 -41.5 -219.5t-111 -170.5t-161 -108t-190.5 -39q-228 0 -368 146v-117h-213v1475h213v-576q139 145 368 145zM709 160q143 0 237 95t94 253q0 157 -94.5 252.5t-236.5 95.5q-133 0 -233.5 -97.5
t-100.5 -250.5q0 -103 49 -184.5t124.5 -122.5t160.5 -41z" />
    <glyph glyph-name="c" unicode="c" horiz-adv-x="1181" 
d="M610 168q106 0 184.5 53t114.5 160l197 -51q-41 -162 -179 -260.5t-317 -98.5q-146 0 -267.5 66t-195 190t-73.5 281q0 155 73.5 278.5t195.5 190.5t267 67q174 0 311.5 -97.5t184.5 -258.5l-205 -59q-28 108 -106.5 163.5t-184.5 55.5q-142 0 -234.5 -95t-92.5 -245
q0 -153 92 -246.5t235 -93.5z" />
    <glyph glyph-name="d" unicode="d" horiz-adv-x="1320" 
d="M1161 1475v-1475h-215v115q-144 -144 -368 -144q-99 0 -190 39t-161 108t-111.5 171t-41.5 219q0 116 41.5 217.5t111 170.5t161 108.5t190.5 39.5q226 0 368 -145v576h215zM612 160q134 0 234 96.5t100 251.5q0 103 -48.5 184t-124 122.5t-161.5 41.5q-141 0 -235 -95.5
t-94 -252.5q0 -158 94 -253t235 -95z" />
    <glyph glyph-name="e" unicode="e" horiz-adv-x="1181" 
d="M1108 530v-73h-823q15 -137 103 -219t204 -82q97 0 173 38.5t126 137.5l190 -41q-62 -157 -189.5 -238.5t-299.5 -81.5q-138 0 -256 65.5t-190 189.5t-72 280q0 119 42 220.5t113.5 170.5t167.5 108t203 39q135 0 249 -64t184 -182.5t75 -267.5zM600 856
q-107 0 -196 -65.5t-113 -182.5h598q-24 121 -102.5 184.5t-186.5 63.5z" />
    <glyph glyph-name="f" unicode="f" horiz-adv-x="743" 
d="M758 840h-338v-840h-213v840h-166v176h166v121q0 169 102.5 268.5t272.5 99.5q93 0 174 -37l-51 -174q-56 21 -109 21q-81 0 -128.5 -47t-47.5 -131v-121h338v-176z" />
    <glyph glyph-name="g" unicode="g" horiz-adv-x="1290" 
d="M1128 1016v-926q0 -225 -142.5 -352t-383.5 -127q-180 0 -306.5 64t-189.5 180l175 129q60 -94 132.5 -137.5t188.5 -43.5q146 0 233 85.5t87 232.5v65q-121 -127 -351 -127q-129 0 -243 63.5t-184 178t-70 252.5q0 137 70 250.5t183.5 176t243.5 62.5q230 0 351 -127
v101h206zM606 244q129 0 222.5 87t93.5 222q0 137 -93.5 223t-222.5 86q-139 0 -232 -85.5t-93 -223.5q0 -137 93 -223t232 -86z" />
    <glyph glyph-name="h" unicode="h" horiz-adv-x="1271" 
d="M727 1044q182 0 295 -119.5t113 -310.5v-614h-215v571q0 124 -66.5 200.5t-175.5 76.5q-141 0 -222 -96t-81 -283v-469h-213v1475h213v-584q128 153 352 153z" />
    <glyph glyph-name="i" unicode="i" horiz-adv-x="567" 
d="M285 1454q58 0 96.5 -39t38.5 -94q0 -57 -38 -94t-97 -37q-60 0 -99 37t-39 94q0 55 39.5 94t98.5 39zM391 0h-213v1016h213v-1016z" />
    <glyph glyph-name="j" unicode="j" horiz-adv-x="595" 
d="M311 1454q58 0 98 -39t40 -94q0 -57 -39.5 -94t-98.5 -37t-97 37t-38 94q0 55 38.5 94t96.5 39zM-43 -332l41 187q57 -23 96 -23q51 0 83 28t32 74v1082h213v-1110q0 -123 -76.5 -199t-200.5 -76q-94 0 -188 37z" />
    <glyph glyph-name="k" unicode="k" horiz-adv-x="1200" 
d="M1194 0h-289l-469 422h-61v-422h-213v1475h213v-842h63l424 383h273l-533 -492z" />
    <glyph glyph-name="l" unicode="l" horiz-adv-x="536" 
d="M375 0h-213v1475h213v-1475z" />
    <glyph glyph-name="m" unicode="m" horiz-adv-x="1941" 
d="M1417 1044q162 0 273.5 -110.5t111.5 -286.5v-647h-211v604q0 111 -64.5 177.5t-164.5 66.5q-127 0 -201 -88.5t-74 -255.5v-504h-213v604q0 111 -64.5 177.5t-164.5 66.5q-126 0 -198 -88.5t-72 -255.5v-504h-213v1016h213v-115q118 143 325 143q110 0 199.5 -49
t138.5 -137q133 186 379 186z" />
    <glyph glyph-name="n" unicode="n" horiz-adv-x="1269" 
d="M727 1044q182 0 295 -119.5t113 -310.5v-614h-215v571q0 124 -66.5 200.5t-175.5 76.5q-141 0 -222 -96t-81 -283v-469h-213v1016h213v-125q128 153 352 153z" />
    <glyph glyph-name="o" unicode="o" horiz-adv-x="1239" 
d="M621 1038q149 0 272.5 -66t196.5 -188t73 -276q0 -116 -43 -216t-116 -169t-172.5 -108.5t-210.5 -39.5q-150 0 -274.5 66.5t-198.5 189.5t-74 277t74 276t198.5 188t274.5 66zM621 160q136 0 235.5 97.5t99.5 250.5t-99.5 250.5t-235.5 97.5q-138 0 -238 -97t-100 -251
t100 -251t238 -97z" />
    <glyph glyph-name="p" unicode="p" horiz-adv-x="1320" 
d="M743 1044q99 0 191 -39.5t161 -108.5t110.5 -170.5t41.5 -217.5q0 -118 -41.5 -219.5t-111 -170.5t-161 -108t-190.5 -39q-228 0 -368 146v-465h-213v1364h213v-117q139 145 368 145zM709 160q143 0 237 95t94 253q0 157 -94.5 252.5t-236.5 95.5q-133 0 -233.5 -97.5
t-100.5 -250.5q0 -103 49 -184.5t124.5 -122.5t160.5 -41z" />
    <glyph glyph-name="q" unicode="q" horiz-adv-x="1320" 
d="M1161 1016v-1364h-215v463q-144 -144 -368 -144q-99 0 -190 39t-161 108t-111.5 171t-41.5 219q0 116 41.5 217.5t111 170.5t161 108.5t190.5 39.5q226 0 368 -145v117h215zM612 160q134 0 234 96.5t100 251.5q0 103 -48.5 184t-124 122.5t-161.5 41.5q-141 0 -235 -95.5
t-94 -252.5q0 -158 94 -253t235 -95z" />
    <glyph glyph-name="r" unicode="r" horiz-adv-x="860" 
d="M762 1028q45 0 72 -8l-15 -205q-16 2 -59 2q-189 0 -287 -122t-98 -337v-358h-213v1016h213v-217q65 107 162.5 168t224.5 61z" />
    <glyph glyph-name="s" unicode="s" horiz-adv-x="1032" 
d="M76 272l213 45q10 -87 79 -129.5t175 -42.5q91 0 145.5 37.5t54.5 98.5q0 91 -137 120l-221 45q-133 30 -204.5 100.5t-71.5 176.5q0 142 110 231.5t291 89.5q171 0 285.5 -80.5t142.5 -211.5l-203 -43q-12 75 -73 120t-158 45q-89 0 -134.5 -37.5t-45.5 -95.5
q0 -44 28 -71.5t94 -42.5l242 -54q125 -27 194.5 -97.5t69.5 -176.5q0 -156 -116.5 -242t-311.5 -86q-117 0 -211.5 31.5t-159 101t-77.5 168.5z" />
    <glyph glyph-name="t" unicode="t" horiz-adv-x="847" 
d="M772 227l66 -178q-131 -78 -252 -78q-169 0 -268 95.5t-99 279.5v494h-219v176h219v315h213v-315h348v-176h-348v-480q0 -93 45 -140.5t123 -47.5q89 0 172 55z" />
    <glyph glyph-name="u" unicode="u" horiz-adv-x="1269" 
d="M1108 1016v-1016h-213v125q-129 -154 -350 -154q-184 0 -296 119.5t-112 312.5v613h213v-570q0 -125 67 -201.5t177 -76.5q141 0 221 96t80 283v469h213z" />
    <glyph glyph-name="v" unicode="v" horiz-adv-x="1157" 
d="M1130 1018l-438 -1018h-227l-436 1018h231l320 -764l319 764h231z" />
    <glyph glyph-name="w" unicode="w" horiz-adv-x="1593" 
d="M1565 1016l-340 -1020h-195l-233 684l-234 -684h-194l-340 1020h213l231 -707l240 707h168l239 -707l232 707h213z" />
    <glyph glyph-name="x" unicode="x" horiz-adv-x="1196" 
d="M756 498l364 -498h-256l-266 367l-266 -367h-254l364 498l-364 520h254l266 -385l266 385h256z" />
    <glyph glyph-name="y" unicode="y" horiz-adv-x="1173" 
d="M1147 1018l-608 -1366h-238l166 373l-438 993h237l318 -733l325 733h238z" />
    <glyph glyph-name="z" unicode="z" horiz-adv-x="1054" 
d="M973 176v-176h-891v141l604 699h-588v176h850v-144l-604 -696h629z" />
    <glyph glyph-name="braceleft" unicode="{" horiz-adv-x="874" 
d="M487 1235v-338q0 -78 -36.5 -136.5t-100.5 -86.5q64 -27 100.5 -85.5t36.5 -137.5v-338q0 -44 27 -72.5t70 -28.5h192v-180h-217q-126 0 -202 71t-76 189v334q0 121 -160 152l-53 16v160l53 16q160 34 160 152v333q0 119 76 191t202 72h217v-181h-192q-43 0 -70 -28
t-27 -74z" />
    <glyph glyph-name="bar" unicode="|" horiz-adv-x="528" 
d="M369 -147h-207v1665h207v-1665z" />
    <glyph glyph-name="braceright" unicode="}" horiz-adv-x="874" 
d="M807 754v-160l-53 -16q-160 -31 -160 -152v-334q0 -118 -76.5 -189t-202.5 -71h-217v180h193q43 0 69.5 28.5t26.5 72.5v338q0 79 36.5 137.5t100.5 85.5q-64 28 -100.5 86.5t-36.5 136.5v338q0 46 -26.5 74t-69.5 28h-193v181h217q126 0 202.5 -72t76.5 -191v-333
q0 -118 160 -152z" />
    <glyph glyph-name="asciitilde" unicode="~" horiz-adv-x="999" 
d="M264 479h-168q0 79 23 137t60.5 89t77.5 45t83 14q52 0 97 -16.5t72 -37t61 -37t67 -16.5q43 0 67 30t21 79h180q0 -65 -16.5 -117t-42.5 -84.5t-60 -53.5t-67.5 -29.5t-67.5 -8.5q-53 0 -98 16.5t-71 37t-58.5 37t-63.5 16.5q-48 0 -73.5 -28.5t-22.5 -72.5z" />
    <glyph glyph-name="exclamdown" unicode="&#xa1;" horiz-adv-x="571" 
d="M285 780q-57 0 -95 38.5t-38 92.5q0 56 37.5 92.5t95.5 36.5t96.5 -36.5t38.5 -92.5q0 -53 -39 -92t-96 -39zM170 -276l8 882h217l8 -882v-64h-233v64z" />
    <glyph glyph-name="cent" unicode="&#xa2;" horiz-adv-x="1181" 
d="M680 842v-668q170 33 229 207l197 -51q-36 -144 -150 -238t-268 -115v-243h-180v246q-189 35 -311.5 178t-122.5 350q0 205 123 349t311 177v256h180v-252q150 -21 263.5 -114t154.5 -236l-205 -59q-24 90 -82 143.5t-139 69.5zM283 508q0 -125 63 -211.5t168 -116.5v656
q-104 -30 -167.5 -118.5t-63.5 -209.5z" />
    <glyph glyph-name="sterling" unicode="&#xa3;" horiz-adv-x="1310" 
d="M1225 199v-199h-1127v135l174 43v344h-174v199h174v209q0 211 130.5 341t345.5 130q210 0 336.5 -128t138.5 -341l-207 -41q-10 145 -80 222t-188 77q-115 0 -185.5 -71.5t-70.5 -188.5v-209h413v-199h-413v-323h733z" />
    <glyph glyph-name="yen" unicode="&#xa5;" horiz-adv-x="1388" 
d="M889 668h293v-164h-381v-129h381v-164h-381v-211h-219v211h-373v164h373v129h-373v164h285l-443 704h244l395 -647l395 647h252z" />
    <glyph glyph-name="section" unicode="&#xa7;" horiz-adv-x="1095" 
d="M1024 492q0 -98 -47.5 -168t-122.5 -107q64 -78 64 -186q0 -151 -109.5 -236.5t-280.5 -85.5q-198 0 -311 100.5t-111 266.5l185 35q6 -118 64.5 -177t162.5 -59q85 0 138 44.5t53 115.5q0 94 -123 151l-283 123q-132 55 -190 126.5t-58 182.5q0 97 48 165.5t124 107.5
q-65 76 -65 186q0 153 107.5 238.5t279.5 85.5q188 0 297.5 -99.5t114.5 -259.5l-191 -34q-3 110 -59.5 167.5t-151.5 57.5q-84 0 -137 -44t-53 -116q0 -49 29 -85t96 -64l282 -123q130 -54 189 -127t59 -182zM678 338l31 -14q61 31 89.5 66t28.5 89q0 49 -31 87t-108 75
l-289 131l-34 16q-115 -53 -115 -157q0 -52 30.5 -89t110.5 -75z" />
    <glyph glyph-name="dieresis" unicode="&#xa8;" horiz-adv-x="1228" 
d="M403 1432q57 0 96.5 -40t39.5 -94q0 -57 -38.5 -94t-97.5 -37t-97 37t-38 94q0 54 39 94t96 40zM827 1432q57 0 96.5 -40t39.5 -94q0 -57 -38.5 -94t-97.5 -37t-97 37t-38 94q0 54 39 94t96 40z" />
    <glyph glyph-name="copyright" unicode="&#xa9;" horiz-adv-x="1568" 
d="M780 1401q193 0 356 -91.5t260 -257.5t97 -370q0 -202 -97 -366t-260 -254.5t-356 -90.5q-195 0 -359 90.5t-261 254.5t-97 366q0 153 57 288t154 229t228.5 148t277.5 54zM780 1305q-166 0 -305.5 -79.5t-222 -222.5t-82.5 -319q0 -175 82.5 -316.5t222 -219.5
t305.5 -78q165 0 303.5 78t220.5 219.5t82 316.5q0 176 -82 319t-220.5 222.5t-303.5 79.5zM791 1069q149 0 249 -78t119 -198l-143 -31q-20 77 -82 122.5t-143 45.5q-103 0 -170.5 -69t-67.5 -177q0 -107 67.5 -176.5t170.5 -69.5q83 0 146.5 47.5t76.5 130.5l143 -24
q-15 -129 -115.5 -211t-250.5 -82q-161 0 -276.5 108t-115.5 277t115.5 277t276.5 108z" />
    <glyph glyph-name="ordfeminine" unicode="&#xaa;" horiz-adv-x="794" 
d="M414 1378q136 0 217.5 -66.5t81.5 -195.5v-418h-158v60q-80 -76 -215 -76q-110 0 -177 58t-67 153q0 93 76.5 149t206.5 56h176v26q0 58 -35 93.5t-96 35.5q-59 0 -94.5 -27.5t-50.5 -86.5l-144 30q23 101 98 155t181 54zM373 799q80 0 131 43t51 110v39h-162
q-63 0 -101 -26t-38 -70t32.5 -70t86.5 -26z" />
    <glyph glyph-name="guillemotleft" unicode="&#xab;" horiz-adv-x="907" 
d="M51 537l240 364h213l-240 -364l240 -365h-213zM406 537l239 364h211l-240 -364l240 -365h-211z" />
    <glyph glyph-name="registered" unicode="&#xae;" horiz-adv-x="1024" 
d="M512 1401q171 0 290.5 -117t119.5 -295q0 -176 -119.5 -292.5t-290.5 -116.5t-290.5 116.5t-119.5 292.5q0 178 119.5 295t290.5 117zM512 647q141 0 240.5 98t99.5 244q0 147 -99.5 245.5t-240.5 98.5q-140 0 -239 -98.5t-99 -245.5q0 -146 99 -244t239 -98zM690 1067
q0 -47 -28 -79.5t-76 -43.5l125 -135h-86l-119 129h-72v-129h-69v383h172q69 0 111 -34t42 -91zM434 999h103q37 0 59 18.5t22 47.5t-22 46t-59 17h-103v-129z" />
    <glyph glyph-name="macron" unicode="&#xaf;" horiz-adv-x="1228" 
d="M924 1184h-617v174h617v-174z" />
    <glyph glyph-name="degree" unicode="&#xb0;" horiz-adv-x="843" 
d="M424 1401q122 0 207.5 -80t85.5 -207q0 -126 -85.5 -206.5t-207.5 -80.5q-123 0 -210 80.5t-87 206.5q0 127 86.5 207t210.5 80zM424 965q59 0 102 41t43 108q0 68 -43.5 110t-101.5 42q-60 0 -105 -42t-45 -110q0 -67 45 -108t105 -41z" />
    <glyph glyph-name="plusminus" unicode="&#xb1;" horiz-adv-x="1187" 
d="M1055 860v-186h-367v-322h-188v322h-367v186h367v352h188v-352h367zM133 186h922v-186h-922v186z" />
    <glyph glyph-name="acute" unicode="&#xb4;" horiz-adv-x="1228" 
d="M666 1161h-183l150 291h250z" />
    <glyph glyph-name="paragraph" unicode="&#xb6;" horiz-adv-x="1183" 
d="M737 0h-166v612h-102q-186 0 -307 105.5t-121 281.5q0 181 107.5 277t291.5 96h297v-1372zM1024 0h-166v1372h166v-1372z" />
    <glyph glyph-name="periodcentered" unicode="&#xb7;" horiz-adv-x="452" 
d="M227 664q57 0 95 -38t38 -91q0 -56 -37.5 -92.5t-95.5 -36.5t-96.5 36.5t-38.5 92.5q0 53 38.5 91t96.5 38z" />
    <glyph glyph-name="cedilla" unicode="&#xb8;" horiz-adv-x="1228" 
d="M602 0h160l-133 -338h-228z" />
    <glyph glyph-name="ordmasculine" unicode="&#xba;" horiz-adv-x="884" 
d="M440 1378q152 0 256.5 -97t104.5 -251t-104.5 -251t-256.5 -97q-147 0 -251.5 97.5t-104.5 250.5t104.5 250.5t251.5 97.5zM440 825q84 0 143.5 58.5t59.5 146.5t-59.5 146.5t-143.5 58.5q-79 0 -137.5 -59t-58.5 -146t58.5 -146t137.5 -59z" />
    <glyph glyph-name="guillemotright" unicode="&#xbb;" horiz-adv-x="907" 
d="M51 172l240 365l-240 364h213l240 -364l-240 -365h-213zM406 172l239 365l-239 364h210l240 -364l-240 -365h-210z" />
    <glyph glyph-name="onequarter" unicode="&#xbc;" horiz-adv-x="1474" 
d="M205 1163l-160 -100v168l215 141h102v-768h-157v559zM1309 1372l-1016 -1372h-146l1016 1372h146zM1421 156h-110v-158h-148v158h-405v143l370 467h183v-481h110v-129zM1163 285v317l-254 -317h254z" />
    <glyph glyph-name="onehalf" unicode="&#xbd;" horiz-adv-x="1656" 
d="M205 1163l-160 -100v168l215 141h102v-768h-157v559zM1292 1372l-1016 -1372h-145l1016 1372h145zM1262 137h321v-137h-571v104l291 246q72 62 99.5 99t27.5 86q0 52 -35.5 84t-94.5 32q-65 0 -102.5 -42.5t-40.5 -116.5l-135 30q0 118 75.5 190t202.5 72
q128 0 205.5 -66.5t77.5 -180.5q0 -80 -45 -143.5t-137 -139.5z" />
    <glyph glyph-name="threequarters" unicode="&#xbe;" horiz-adv-x="1652" 
d="M639 840q0 -104 -80.5 -173t-208.5 -69q-125 0 -208 69t-87 185l133 33q4 -74 48.5 -115t115.5 -41q63 0 101.5 32t38.5 83q0 49 -37.5 76.5t-100.5 27.5h-78v113h68q60 0 98.5 26.5t38.5 71.5q0 47 -37 77t-96 30q-66 0 -105 -38t-42 -108l-138 33q7 110 84.5 175
t198.5 65q122 0 200.5 -65.5t78.5 -164.5q0 -105 -105 -153q119 -53 119 -170zM1477 1372l-1016 -1372h-146l1016 1372h146zM1597 156h-110v-158h-148v158h-405v143l371 467h182v-481h110v-129zM1339 285v317l-254 -317h254z" />
    <glyph glyph-name="questiondown" unicode="&#xbf;" horiz-adv-x="1081" 
d="M555 780q-57 0 -95 38.5t-38 92.5q0 56 37.5 92.5t95.5 36.5t96.5 -36.5t38.5 -92.5q0 -53 -39 -92t-96 -39zM811 102l205 -41q-9 -181 -146.5 -304.5t-345.5 -123.5q-209 0 -337 121t-128 316q0 159 108 265t288 126v135h196v-301h-121q-115 0 -189.5 -62.5
t-74.5 -162.5q0 -110 71.5 -179t186.5 -69q121 0 197 76t90 204z" />
    <glyph glyph-name="Agrave" unicode="&#xc0;" horiz-adv-x="1433" 
d="M625 1518l-217 290h249l150 -290h-182zM1423 0h-237l-135 319h-668l-135 -319h-238l604 1372h205zM965 520l-248 584l-248 -584h496z" />
    <glyph glyph-name="Aacute" unicode="&#xc1;" horiz-adv-x="1433" 
d="M817 1518h-182l149 290h250zM1423 0h-237l-135 319h-668l-135 -319h-238l604 1372h205zM965 520l-248 584l-248 -584h496z" />
    <glyph glyph-name="Acircumflex" unicode="&#xc2;" horiz-adv-x="1433" 
d="M594 1501h-213l235 297h203l238 -297h-215l-123 158zM1423 0h-237l-135 319h-668l-135 -319h-238l604 1372h205zM965 520l-248 584l-248 -584h496z" />
    <glyph glyph-name="Atilde" unicode="&#xc3;" horiz-adv-x="1433" 
d="M610 1645q-31 0 -49 -23t-18 -59h-146q0 66 18 114t48 74t63 37.5t70 11.5q43 0 80.5 -14t59.5 -30t52 -30t60 -14t47.5 25t17.5 63h144q0 -67 -17.5 -116.5t-47 -75t-62.5 -37.5t-70 -12q-45 0 -82.5 13.5t-59 29.5t-50 29.5t-58.5 13.5zM1423 0h-237l-135 319h-668
l-135 -319h-238l604 1372h205zM965 520l-248 584l-248 -584h496z" />
    <glyph glyph-name="Adieresis" unicode="&#xc4;" horiz-adv-x="1433" 
d="M506 1524q-59 0 -97 37t-38 94q0 54 39 93.5t96 39.5t96 -39.5t39 -93.5q0 -57 -38 -94t-97 -37zM930 1524q-59 0 -97 37t-38 94q0 54 39 93.5t96 39.5t96 -39.5t39 -93.5q0 -57 -38 -94t-97 -37zM1423 0h-237l-135 319h-668l-135 -319h-238l604 1372h205zM965 520
l-248 584l-248 -584h496z" />
    <glyph glyph-name="Aring" unicode="&#xc5;" horiz-adv-x="1433" 
d="M717 1479q-95 0 -161.5 64t-66.5 155q0 92 66.5 156.5t161.5 64.5q96 0 161.5 -64t65.5 -157q0 -91 -65.5 -155t-161.5 -64zM717 1794q-43 0 -72 -28t-29 -68q0 -39 29.5 -67.5t71.5 -28.5t71 28.5t29 67.5q0 40 -29 68t-71 28zM1423 0h-237l-135 319h-668l-135 -319
h-238l604 1372h205zM965 520l-248 584l-248 -584h496z" />
    <glyph glyph-name="AE" unicode="&#xc6;" horiz-adv-x="2131" 
d="M2044 199v-199h-1022v285h-565l-193 -285h-254l953 1372h1079v-198h-801v-388h739v-196h-739v-391h803zM1022 483v641l-432 -641h432z" />
    <glyph glyph-name="Ccedilla" unicode="&#xc7;" horiz-adv-x="1576" 
d="M813 178q166 0 287 88.5t166 257.5l213 -45q-53 -224 -217.5 -357.5t-391.5 -148.5l-122 -311h-228l189 318q-173 24 -312 122t-219 251.5t-80 332.5q0 196 95 360.5t259.5 259.5t360.5 95q244 0 426 -133t240 -359l-213 -61q-45 169 -166 257.5t-287 88.5
q-136 0 -249.5 -66t-179 -183t-65.5 -259t65.5 -259t179 -183t249.5 -66z" />
    <glyph glyph-name="Egrave" unicode="&#xc8;" horiz-adv-x="1302" 
d="M602 1518l-217 290h250l149 -290h-182zM1184 199v-199h-1022v1372h1020v-198h-801v-388h739v-196h-739v-391h803z" />
    <glyph glyph-name="Eacute" unicode="&#xc9;" horiz-adv-x="1302" 
d="M797 1518h-183l150 290h250zM1184 199v-199h-1022v1372h1020v-198h-801v-388h739v-196h-739v-391h803z" />
    <glyph glyph-name="Ecircumflex" unicode="&#xca;" horiz-adv-x="1302" 
d="M573 1501h-213l236 297h203l237 -297h-215l-123 158zM1184 199v-199h-1022v1372h1020v-198h-801v-388h739v-196h-739v-391h803z" />
    <glyph glyph-name="Edieresis" unicode="&#xcb;" horiz-adv-x="1302" 
d="M485 1524q-59 0 -97 37t-38 94q0 54 39 93.5t96 39.5t96.5 -39.5t39.5 -93.5q0 -57 -38.5 -94t-97.5 -37zM909 1524q-59 0 -97 37t-38 94q0 54 39 93.5t96 39.5t96 -39.5t39 -93.5q0 -57 -38 -94t-97 -37zM1184 199v-199h-1022v1372h1020v-198h-801v-388h739v-196h-739
v-391h803z" />
    <glyph glyph-name="Igrave" unicode="&#xcc;" horiz-adv-x="542" 
d="M211 1808l149 -290h-182l-217 290h250zM381 0h-219v1372h219v-1372z" />
    <glyph glyph-name="Iacute" unicode="&#xcd;" horiz-adv-x="542" 
d="M371 1518h-183l150 290h250zM381 0h-219v1372h219v-1372z" />
    <glyph glyph-name="Icircumflex" unicode="&#xce;" horiz-adv-x="542" 
d="M610 1501h-215l-123 158l-125 -158h-213l236 297h203zM162 1372h219v-1372h-219v1372z" />
    <glyph glyph-name="Idieresis" unicode="&#xcf;" horiz-adv-x="542" 
d="M59 1788q57 0 96.5 -39.5t39.5 -93.5q0 -57 -38.5 -94t-97.5 -37q-60 0 -97.5 37t-37.5 94q0 54 38.5 93.5t96.5 39.5zM483 1788q57 0 96 -39.5t39 -93.5q0 -57 -38 -94t-97 -37t-97 37t-38 94q0 54 39 93.5t96 39.5zM381 0h-219v1372h219v-1372z" />
    <glyph glyph-name="Eth" unicode="&#xd0;" horiz-adv-x="1513" 
d="M201 1372h479q172 0 315 -51t239.5 -142t150 -217.5t53.5 -275.5t-53.5 -275.5t-150 -217.5t-239.5 -142t-315 -51h-479v590h-140v201h140v581zM420 199h260q247 0 390.5 135t143.5 352t-143.5 352.5t-390.5 135.5h-260v-383h303v-201h-303v-391z" />
    <glyph glyph-name="Ntilde" unicode="&#xd1;" horiz-adv-x="1558" 
d="M684 1645q-32 0 -50 -23t-18 -59h-145q0 66 18 114t48 74t63 37.5t70 11.5q43 0 80.5 -14t59.5 -30t52 -30t60 -14t47.5 25t17.5 63h143q0 -54 -11.5 -97t-30.5 -69.5t-45.5 -43.5t-53 -24t-55.5 -7q-45 0 -82.5 13.5t-59 29.5t-50 29.5t-58.5 13.5zM1397 1372v-1372
h-187l-829 985v-985h-219v1372h186l828 -1001v1001h221z" />
    <glyph glyph-name="Ograve" unicode="&#xd2;" horiz-adv-x="1626" 
d="M721 1518l-217 290h250l149 -290h-182zM813 1401q197 0 362 -95.5t260 -260t95 -361.5q0 -196 -95 -359.5t-260 -258.5t-362 -95t-361.5 95t-259 258.5t-94.5 359.5q0 197 94.5 361.5t259 260t361.5 95.5zM813 178q210 0 353 145t143 361q0 143 -65.5 260t-179 183.5
t-251.5 66.5q-208 0 -351 -146.5t-143 -363.5q0 -142 65.5 -258.5t179 -182t249.5 -65.5z" />
    <glyph glyph-name="Oacute" unicode="&#xd3;" horiz-adv-x="1626" 
d="M913 1518h-182l150 290h249zM813 1401q197 0 362 -95.5t260 -260t95 -361.5q0 -196 -95 -359.5t-260 -258.5t-362 -95t-361.5 95t-259 258.5t-94.5 359.5q0 197 94.5 361.5t259 260t361.5 95.5zM813 178q210 0 353 145t143 361q0 143 -65.5 260t-179 183.5t-251.5 66.5
q-208 0 -351 -146.5t-143 -363.5q0 -142 65.5 -258.5t179 -182t249.5 -65.5z" />
    <glyph glyph-name="Ocircumflex" unicode="&#xd4;" horiz-adv-x="1626" 
d="M690 1501h-213l236 297h202l238 -297h-215l-123 158zM813 1401q197 0 362 -95.5t260 -260t95 -361.5q0 -196 -95 -359.5t-260 -258.5t-362 -95t-361.5 95t-259 258.5t-94.5 359.5q0 197 94.5 361.5t259 260t361.5 95.5zM813 178q210 0 353 145t143 361q0 143 -65.5 260
t-179 183.5t-251.5 66.5q-208 0 -351 -146.5t-143 -363.5q0 -142 65.5 -258.5t179 -182t249.5 -65.5z" />
    <glyph glyph-name="Otilde" unicode="&#xd5;" horiz-adv-x="1626" 
d="M707 1645q-32 0 -50 -23t-18 -59h-145q0 66 18 114t48 74t62.5 37.5t69.5 11.5q43 0 80.5 -14t59.5 -30t52 -30t60 -14t48 25t18 63h143q0 -67 -17.5 -116.5t-47 -75t-62.5 -37.5t-70 -12q-45 0 -82.5 13.5t-58.5 29.5t-49.5 29.5t-58.5 13.5zM813 1401q197 0 362 -95.5
t260 -260t95 -361.5q0 -196 -95 -359.5t-260 -258.5t-362 -95t-361.5 95t-259 258.5t-94.5 359.5q0 197 94.5 361.5t259 260t361.5 95.5zM813 178q210 0 353 145t143 361q0 143 -65.5 260t-179 183.5t-251.5 66.5q-208 0 -351 -146.5t-143 -363.5q0 -142 65.5 -258.5
t179 -182t249.5 -65.5z" />
    <glyph glyph-name="Odieresis" unicode="&#xd6;" horiz-adv-x="1626" 
d="M602 1524q-59 0 -97 37t-38 94q0 54 39 93.5t96 39.5t96 -39.5t39 -93.5q0 -57 -38 -94t-97 -37zM1026 1524q-59 0 -97 37t-38 94q0 54 39 93.5t96 39.5t96 -39.5t39 -93.5q0 -57 -38 -94t-97 -37zM813 1401q197 0 362 -95.5t260 -260t95 -361.5q0 -196 -95 -359.5
t-260 -258.5t-362 -95t-361.5 95t-259 258.5t-94.5 359.5q0 197 94.5 361.5t259 260t361.5 95.5zM813 178q210 0 353 145t143 361q0 143 -65.5 260t-179 183.5t-251.5 66.5q-208 0 -351 -146.5t-143 -363.5q0 -142 65.5 -258.5t179 -182t249.5 -65.5z" />
    <glyph glyph-name="multiply" unicode="&#xd7;" horiz-adv-x="1060" 
d="M666 625l282 -281l-135 -137l-283 282l-282 -282l-135 137l282 281l-282 282l135 135l282 -282l283 282l135 -135z" />
    <glyph glyph-name="Oslash" unicode="&#xd8;" horiz-adv-x="1626" 
d="M1507 1239l-121 -121q144 -194 144 -434q0 -196 -95 -359.5t-260 -258.5t-362 -95q-242 0 -430 142l-137 -138l-127 129l133 134q-154 197 -154 446q0 197 94.5 361.5t259 260t361.5 95.5q252 0 449 -154l118 119zM319 684q0 -158 87 -293l704 705q-132 98 -297 98
q-208 0 -351 -146.5t-143 -363.5zM813 178q210 0 353 145t143 361q0 155 -78 279l-699 -699q125 -86 281 -86z" />
    <glyph glyph-name="Ugrave" unicode="&#xd9;" horiz-adv-x="1466" 
d="M639 1518l-217 290h250l149 -290h-182zM1319 1372v-766q0 -285 -159.5 -460t-420.5 -175q-267 0 -429.5 175t-162.5 460v766h220v-766q0 -192 101.5 -308t270.5 -116q162 0 261.5 116.5t99.5 307.5v766h219z" />
    <glyph glyph-name="Uacute" unicode="&#xda;" horiz-adv-x="1466" 
d="M834 1518h-183l150 290h250zM1319 1372v-766q0 -285 -159.5 -460t-420.5 -175q-267 0 -429.5 175t-162.5 460v766h220v-766q0 -192 101.5 -308t270.5 -116q162 0 261.5 116.5t99.5 307.5v766h219z" />
    <glyph glyph-name="Ucircumflex" unicode="&#xdb;" horiz-adv-x="1466" 
d="M610 1501h-213l236 297h203l237 -297h-215l-123 158zM1319 1372v-766q0 -285 -159.5 -460t-420.5 -175q-267 0 -429.5 175t-162.5 460v766h220v-766q0 -192 101.5 -308t270.5 -116q162 0 261.5 116.5t99.5 307.5v766h219z" />
    <glyph glyph-name="Udieresis" unicode="&#xdc;" horiz-adv-x="1466" 
d="M522 1524q-59 0 -97 37t-38 94q0 54 39 93.5t96 39.5t96 -39.5t39 -93.5q0 -57 -38 -94t-97 -37zM946 1524q-59 0 -97 37t-38 94q0 54 39 93.5t96 39.5t96 -39.5t39 -93.5q0 -57 -38 -94t-97 -37zM1319 1372v-766q0 -285 -159.5 -460t-420.5 -175q-267 0 -429.5 175
t-162.5 460v766h220v-766q0 -192 101.5 -308t270.5 -116q162 0 261.5 116.5t99.5 307.5v766h219z" />
    <glyph glyph-name="Yacute" unicode="&#xdd;" horiz-adv-x="1394" 
d="M797 1518h-183l150 290h250zM803 459v-459h-219v455l-555 917h243l422 -688l420 688h252z" />
    <glyph glyph-name="Thorn" unicode="&#xde;" horiz-adv-x="1308" 
d="M381 1137h367q218 0 351.5 -125t133.5 -326q0 -200 -134 -325t-351 -125h-367v-236h-219v1372h219v-235zM381 436h356q124 0 200.5 69.5t76.5 180.5q0 113 -76.5 182.5t-200.5 69.5h-356v-502z" />
    <glyph glyph-name="germandbls" unicode="&#xdf;" horiz-adv-x="1345" 
d="M989 788q130 -36 203.5 -132t73.5 -242q0 -185 -123.5 -306.5t-325.5 -121.5q-156 0 -305 45l29 176q141 -41 260 -41q126 0 204 73t78 175q0 128 -97 198t-269 70h-88v176h57q128 0 204.5 60.5t76.5 158.5q0 111 -75.5 178.5t-199.5 67.5q-143 0 -230 -91t-87 -247v-985
h-213v971q0 241 146 389.5t384 148.5q213 0 345 -116t132 -293q0 -109 -47 -191.5t-133 -120.5z" />
    <glyph glyph-name="agrave" unicode="&#xe0;" horiz-adv-x="1316" 
d="M543 1161l-217 291h249l150 -291h-182zM1155 1016v-1016h-213v117q-140 -146 -369 -146q-99 0 -190.5 39t-161 108t-110.5 170.5t-41 219.5q0 117 41.5 218t110.5 170t160.5 108.5t190.5 39.5q230 0 369 -145v117h213zM608 160q85 0 160.5 41t124.5 122.5t49 184.5
q0 153 -100.5 250.5t-233.5 97.5q-143 0 -237.5 -95.5t-94.5 -252.5q0 -158 94.5 -253t237.5 -95z" />
    <glyph glyph-name="aacute" unicode="&#xe1;" horiz-adv-x="1316" 
d="M735 1161h-182l149 291h250zM1155 1016v-1016h-213v117q-140 -146 -369 -146q-99 0 -190.5 39t-161 108t-110.5 170.5t-41 219.5q0 117 41.5 218t110.5 170t160.5 108.5t190.5 39.5q230 0 369 -145v117h213zM608 160q85 0 160.5 41t124.5 122.5t49 184.5
q0 153 -100.5 250.5t-233.5 97.5q-143 0 -237.5 -95.5t-94.5 -252.5q0 -158 94.5 -253t237.5 -95z" />
    <glyph glyph-name="acircumflex" unicode="&#xe2;" horiz-adv-x="1316" 
d="M512 1145h-213l236 297h202l238 -297h-215l-123 158zM1155 1016v-1016h-213v117q-140 -146 -369 -146q-99 0 -190.5 39t-161 108t-110.5 170.5t-41 219.5q0 117 41.5 218t110.5 170t160.5 108.5t190.5 39.5q230 0 369 -145v117h213zM608 160q85 0 160.5 41t124.5 122.5
t49 184.5q0 153 -100.5 250.5t-233.5 97.5q-143 0 -237.5 -95.5t-94.5 -252.5q0 -158 94.5 -253t237.5 -95z" />
    <glyph glyph-name="atilde" unicode="&#xe3;" horiz-adv-x="1316" 
d="M528 1288q-31 0 -49 -23t-18 -59h-146q0 66 18 114.5t48 74t63.5 37.5t69.5 12q43 0 80.5 -14t59.5 -30t52 -30t60 -14t47.5 25t17.5 63h144q0 -67 -17.5 -116.5t-47 -75.5t-62.5 -38t-70 -12q-45 0 -82.5 13.5t-59 29.5t-50 29.5t-58.5 13.5zM1155 1016v-1016h-213v117
q-140 -146 -369 -146q-99 0 -190.5 39t-161 108t-110.5 170.5t-41 219.5q0 117 41.5 218t110.5 170t160.5 108.5t190.5 39.5q230 0 369 -145v117h213zM608 160q85 0 160.5 41t124.5 122.5t49 184.5q0 153 -100.5 250.5t-233.5 97.5q-143 0 -237.5 -95.5t-94.5 -252.5
q0 -158 94.5 -253t237.5 -95z" />
    <glyph glyph-name="adieresis" unicode="&#xe4;" horiz-adv-x="1316" 
d="M424 1167q-59 0 -97 37t-38 94q0 54 39 94t96 40t96 -40t39 -94q0 -57 -38 -94t-97 -37zM848 1167q-59 0 -97 37t-38 94q0 54 39 94t96 40t96 -40t39 -94q0 -57 -38 -94t-97 -37zM1155 1016v-1016h-213v117q-140 -146 -369 -146q-99 0 -190.5 39t-161 108t-110.5 170.5
t-41 219.5q0 117 41.5 218t110.5 170t160.5 108.5t190.5 39.5q230 0 369 -145v117h213zM608 160q85 0 160.5 41t124.5 122.5t49 184.5q0 153 -100.5 250.5t-233.5 97.5q-143 0 -237.5 -95.5t-94.5 -252.5q0 -158 94.5 -253t237.5 -95z" />
    <glyph glyph-name="aring" unicode="&#xe5;" horiz-adv-x="1316" 
d="M635 1120q-95 0 -161 64t-66 155q0 92 66 157t161 65q96 0 161.5 -64.5t65.5 -157.5q0 -91 -65.5 -155t-161.5 -64zM635 1436q-42 0 -71 -28.5t-29 -68.5q0 -39 29 -67.5t71 -28.5t71 28.5t29 67.5q0 40 -29 68.5t-71 28.5zM1155 1016v-1016h-213v117
q-140 -146 -369 -146q-99 0 -190.5 39t-161 108t-110.5 170.5t-41 219.5q0 117 41.5 218t110.5 170t160.5 108.5t190.5 39.5q230 0 369 -145v117h213zM608 160q85 0 160.5 41t124.5 122.5t49 184.5q0 153 -100.5 250.5t-233.5 97.5q-143 0 -237.5 -95.5t-94.5 -252.5
q0 -158 94.5 -253t237.5 -95z" />
    <glyph glyph-name="ae" unicode="&#xe6;" horiz-adv-x="1871" 
d="M1798 436h-803q22 -132 104 -206t206 -74q49 0 98 14.5t99.5 56t78.5 103.5l191 -41q-40 -140 -172.5 -229t-299.5 -89q-133 0 -237.5 53.5t-173.5 151.5q-64 -92 -177 -148.5t-251 -56.5q-186 0 -286.5 90t-100.5 228q0 140 107.5 220.5t295.5 80.5h322v61
q0 97 -63.5 155t-168.5 58q-100 0 -163.5 -48t-75.5 -134l-195 43q18 141 135.5 230t302.5 89q116 0 208 -41.5t149 -119.5q68 77 162.5 119t203.5 42q104 0 196 -39.5t160 -108.5t107.5 -169.5t40.5 -216.5v-74zM995 590h588q-21 130 -97.5 201t-182.5 71
q-116 0 -203.5 -72t-104.5 -200zM799 436h-322q-95 0 -146.5 -37.5t-51.5 -103.5q0 -68 55 -110t151 -42q125 0 219.5 79.5t94.5 191.5v22z" />
    <glyph glyph-name="ccedilla" unicode="&#xe7;" horiz-adv-x="1181" 
d="M610 168q106 0 184.5 53t114.5 160l197 -51q-36 -144 -150.5 -239t-269.5 -116l-123 -313h-227l188 315q-194 30 -322 175t-128 356q0 155 73.5 278.5t195.5 190.5t267 67q174 0 311.5 -97.5t184.5 -258.5l-205 -59q-28 108 -106.5 163.5t-184.5 55.5q-142 0 -234.5 -95
t-92.5 -245q0 -153 92 -246.5t235 -93.5z" />
    <glyph glyph-name="egrave" unicode="&#xe8;" horiz-adv-x="1181" 
d="M508 1161l-217 291h250l149 -291h-182zM1108 530v-73h-823q15 -137 103 -219t204 -82q97 0 173 38.5t126 137.5l190 -41q-62 -157 -189.5 -238.5t-299.5 -81.5q-138 0 -256 65.5t-190 189.5t-72 280q0 119 42 220.5t113.5 170.5t167.5 108t203 39q135 0 249 -64
t184 -182.5t75 -267.5zM600 856q-107 0 -196 -65.5t-113 -182.5h598q-24 121 -102.5 184.5t-186.5 63.5z" />
    <glyph glyph-name="eacute" unicode="&#xe9;" horiz-adv-x="1181" 
d="M702 1161h-182l150 291h250zM1108 530v-73h-823q15 -137 103 -219t204 -82q97 0 173 38.5t126 137.5l190 -41q-62 -157 -189.5 -238.5t-299.5 -81.5q-138 0 -256 65.5t-190 189.5t-72 280q0 119 42 220.5t113.5 170.5t167.5 108t203 39q135 0 249 -64t184 -182.5
t75 -267.5zM600 856q-107 0 -196 -65.5t-113 -182.5h598q-24 121 -102.5 184.5t-186.5 63.5z" />
    <glyph glyph-name="ecircumflex" unicode="&#xea;" horiz-adv-x="1181" 
d="M479 1145h-213l236 297h203l237 -297h-215l-123 158zM1108 530v-73h-823q15 -137 103 -219t204 -82q97 0 173 38.5t126 137.5l190 -41q-62 -157 -189.5 -238.5t-299.5 -81.5q-138 0 -256 65.5t-190 189.5t-72 280q0 119 42 220.5t113.5 170.5t167.5 108t203 39
q135 0 249 -64t184 -182.5t75 -267.5zM600 856q-107 0 -196 -65.5t-113 -182.5h598q-24 121 -102.5 184.5t-186.5 63.5z" />
    <glyph glyph-name="edieresis" unicode="&#xeb;" horiz-adv-x="1181" 
d="M391 1167q-59 0 -97 37t-38 94q0 54 39 94t96 40t96 -40t39 -94q0 -57 -38 -94t-97 -37zM815 1167q-59 0 -97 37t-38 94q0 54 39 94t96 40t96 -40t39 -94q0 -57 -38 -94t-97 -37zM1108 530v-73h-823q15 -137 103 -219t204 -82q97 0 173 38.5t126 137.5l190 -41
q-62 -157 -189.5 -238.5t-299.5 -81.5q-138 0 -256 65.5t-190 189.5t-72 280q0 119 42 220.5t113.5 170.5t167.5 108t203 39q135 0 249 -64t184 -182.5t75 -267.5zM600 856q-107 0 -196 -65.5t-113 -182.5h598q-24 121 -102.5 184.5t-186.5 63.5z" />
    <glyph glyph-name="igrave" unicode="&#xec;" horiz-adv-x="587" 
d="M233 1452l150 -291h-182l-217 291h249zM401 0h-213v1016h213v-1016z" />
    <glyph glyph-name="iacute" unicode="&#xed;" horiz-adv-x="587" 
d="M395 1161h-182l149 291h250zM401 0h-213v1016h213v-1016z" />
    <glyph glyph-name="icircumflex" unicode="&#xee;" horiz-adv-x="587" 
d="M635 1145h-215l-123 158l-125 -158h-213l236 297h202zM188 1016h213v-1016h-213v1016z" />
    <glyph glyph-name="idieresis" unicode="&#xef;" horiz-adv-x="587" 
d="M84 1432q57 0 96 -40t39 -94q0 -57 -38 -94t-97 -37t-97 37t-38 94q0 54 39 94t96 40zM508 1432q57 0 96 -40t39 -94q0 -57 -38 -94t-97 -37t-97 37t-38 94q0 54 39 94t96 40zM401 0h-213v1016h213v-1016z" />
    <glyph glyph-name="eth" unicode="&#xf0;" horiz-adv-x="1241" 
d="M944 1325l-143 -59q161 -158 262.5 -354.5t101.5 -397.5q0 -104 -30 -193t-82 -152.5t-121 -108.5t-146.5 -67t-158.5 -22q-149 0 -274.5 66t-202 190t-76.5 281q0 235 146.5 385.5t367.5 150.5q105 0 192 -49q-79 113 -172 191l-276 -117l-62 148l187 79
q-125 77 -283 136v43h340q84 -45 148 -93l221 95zM625 160q63 0 118 21t93 56t65 81t40 95.5t13 100.5q0 146 -98 244t-233 98q-146 0 -243 -97t-97 -251q0 -152 101 -250t241 -98z" />
    <glyph glyph-name="ntilde" unicode="&#xf1;" horiz-adv-x="1269" 
d="M541 1288q-32 0 -50 -23t-18 -59h-145q0 66 18 114.5t48 74t63 37.5t69 12q43 0 80.5 -14t59.5 -30t52 -30t60 -14t48 25t18 63h143q0 -67 -17 -116.5t-46.5 -75.5t-62.5 -38t-70 -12q-45 0 -82.5 13.5t-59 29.5t-50 29.5t-58.5 13.5zM727 1044q182 0 295 -119.5
t113 -310.5v-614h-215v571q0 124 -66.5 200.5t-175.5 76.5q-141 0 -222 -96t-81 -283v-469h-213v1016h213v-125q128 153 352 153z" />
    <glyph glyph-name="ograve" unicode="&#xf2;" horiz-adv-x="1239" 
d="M526 1167l-217 291h250l150 -291h-183zM621 1038q149 0 272.5 -66t196.5 -188t73 -276q0 -116 -43 -216t-116 -169t-172.5 -108.5t-210.5 -39.5q-150 0 -274.5 66.5t-198.5 189.5t-74 277t74 276t198.5 188t274.5 66zM621 160q136 0 235.5 97.5t99.5 250.5t-99.5 250.5
t-235.5 97.5q-138 0 -238 -97t-100 -251t100 -251t238 -97z" />
    <glyph glyph-name="oacute" unicode="&#xf3;" horiz-adv-x="1239" 
d="M721 1167h-182l149 291h250zM621 1038q149 0 272.5 -66t196.5 -188t73 -276q0 -116 -43 -216t-116 -169t-172.5 -108.5t-210.5 -39.5q-150 0 -274.5 66.5t-198.5 189.5t-74 277t74 276t198.5 188t274.5 66zM621 160q136 0 235.5 97.5t99.5 250.5t-99.5 250.5t-235.5 97.5
q-138 0 -238 -97t-100 -251t100 -251t238 -97z" />
    <glyph glyph-name="ocircumflex" unicode="&#xf4;" horiz-adv-x="1239" 
d="M498 1151h-213l235 297h203l238 -297h-216l-122 158zM621 1038q149 0 272.5 -66t196.5 -188t73 -276q0 -116 -43 -216t-116 -169t-172.5 -108.5t-210.5 -39.5q-150 0 -274.5 66.5t-198.5 189.5t-74 277t74 276t198.5 188t274.5 66zM621 160q136 0 235.5 97.5t99.5 250.5
t-99.5 250.5t-235.5 97.5q-138 0 -238 -97t-100 -251t100 -251t238 -97z" />
    <glyph glyph-name="otilde" unicode="&#xf5;" horiz-adv-x="1239" 
d="M514 1292q-32 0 -50 -23t-18 -59h-145q0 66 18 114.5t48 74t63.5 37.5t69.5 12q43 0 80.5 -14t59.5 -30t52 -30t60 -14t47.5 25t17.5 63h144q0 -67 -17.5 -116.5t-47 -75.5t-62.5 -38t-70 -12q-45 0 -82.5 13.5t-59 29.5t-50 29.5t-58.5 13.5zM621 1038q149 0 272.5 -66
t196.5 -188t73 -276q0 -116 -43 -216t-116 -169t-172.5 -108.5t-210.5 -39.5q-150 0 -274.5 66.5t-198.5 189.5t-74 277t74 276t198.5 188t274.5 66zM621 160q136 0 235.5 97.5t99.5 250.5t-99.5 250.5t-235.5 97.5q-138 0 -238 -97t-100 -251t100 -251t238 -97z" />
    <glyph glyph-name="odieresis" unicode="&#xf6;" horiz-adv-x="1239" 
d="M410 1174q-59 0 -97.5 37t-38.5 94q0 54 39.5 93.5t96.5 39.5t96 -39.5t39 -93.5q0 -57 -38 -94t-97 -37zM834 1174q-59 0 -97.5 37t-38.5 94q0 54 39.5 93.5t96.5 39.5t96 -39.5t39 -93.5q0 -57 -38 -94t-97 -37zM621 1038q149 0 272.5 -66t196.5 -188t73 -276
q0 -116 -43 -216t-116 -169t-172.5 -108.5t-210.5 -39.5q-150 0 -274.5 66.5t-198.5 189.5t-74 277t74 276t198.5 188t274.5 66zM621 160q136 0 235.5 97.5t99.5 250.5t-99.5 250.5t-235.5 97.5q-138 0 -238 -97t-100 -251t100 -251t238 -97z" />
    <glyph glyph-name="divide" unicode="&#xf7;" horiz-adv-x="1187" 
d="M586 1118q58 0 96.5 -39t38.5 -92q0 -54 -38.5 -91.5t-96.5 -37.5t-95.5 37t-37.5 92q0 54 38 92.5t95 38.5zM1055 530h-922v189h922v-189zM586 393q58 0 96.5 -38.5t38.5 -92.5q0 -56 -38.5 -92.5t-96.5 -36.5t-95.5 36.5t-37.5 92.5q0 54 38 92.5t95 38.5z" />
    <glyph glyph-name="oslash" unicode="&#xf8;" horiz-adv-x="1234" 
d="M1157 940l-102 -102q108 -140 108 -330q0 -116 -43 -216t-116 -169t-172.5 -108.5t-210.5 -39.5q-181 0 -328 101l-107 -107l-106 107l104 104q-110 135 -110 328q0 154 74 276t198.5 188t274.5 66q183 0 323 -98l107 107zM283 508q0 -105 47 -182l475 475
q-86 55 -184 55q-138 0 -238 -97t-100 -251zM621 160q136 0 235.5 97.5t99.5 250.5q0 100 -49 184l-475 -477q86 -55 189 -55z" />
    <glyph glyph-name="ugrave" unicode="&#xf9;" horiz-adv-x="1269" 
d="M532 1161l-217 291h250l150 -291h-183zM1108 1016v-1016h-213v125q-129 -154 -350 -154q-184 0 -296 119.5t-112 312.5v613h213v-570q0 -125 67 -201.5t177 -76.5q141 0 221 96t80 283v469h213z" />
    <glyph glyph-name="uacute" unicode="&#xfa;" horiz-adv-x="1269" 
d="M727 1161h-182l149 291h250zM1108 1016v-1016h-213v125q-129 -154 -350 -154q-184 0 -296 119.5t-112 312.5v613h213v-570q0 -125 67 -201.5t177 -76.5q141 0 221 96t80 283v469h213z" />
    <glyph glyph-name="ucircumflex" unicode="&#xfb;" horiz-adv-x="1269" 
d="M504 1145h-213l235 297h203l238 -297h-215l-123 158zM1108 1016v-1016h-213v125q-129 -154 -350 -154q-184 0 -296 119.5t-112 312.5v613h213v-570q0 -125 67 -201.5t177 -76.5q141 0 221 96t80 283v469h213z" />
    <glyph glyph-name="udieresis" unicode="&#xfc;" horiz-adv-x="1269" 
d="M416 1167q-59 0 -97 37t-38 94q0 54 39 94t96 40t96 -40t39 -94q0 -57 -38 -94t-97 -37zM840 1167q-59 0 -97 37t-38 94q0 54 39 94t96 40t96 -40t39 -94q0 -57 -38 -94t-97 -37zM1108 1016v-1016h-213v125q-129 -154 -350 -154q-184 0 -296 119.5t-112 312.5v613h213
v-570q0 -125 67 -201.5t177 -76.5q141 0 221 96t80 283v469h213z" />
    <glyph glyph-name="yacute" unicode="&#xfd;" horiz-adv-x="1173" 
d="M676 1165h-182l149 291h250zM1147 1018l-608 -1366h-238l166 373l-438 993h237l318 -733l325 733h238z" />
    <glyph glyph-name="thorn" unicode="&#xfe;" horiz-adv-x="1320" 
d="M743 1044q99 0 191 -39.5t161 -108.5t110.5 -170.5t41.5 -217.5q0 -118 -41.5 -219.5t-111 -170.5t-161 -108t-190.5 -39q-228 0 -368 146v-465h-213v1823h213v-576q139 145 368 145zM709 160q143 0 237 95t94 253q0 157 -94.5 252.5t-236.5 95.5q-133 0 -233.5 -97.5
t-100.5 -250.5q0 -103 49 -184.5t124.5 -122.5t160.5 -41z" />
    <glyph glyph-name="ydieresis" unicode="&#xff;" horiz-adv-x="1173" 
d="M365 1171q-59 0 -97.5 37.5t-38.5 94.5q0 54 39.5 93.5t96.5 39.5t96 -39.5t39 -93.5q0 -57 -38.5 -94.5t-96.5 -37.5zM788 1171q-58 0 -96.5 37.5t-38.5 94.5q0 54 39 93.5t96 39.5t96.5 -39.5t39.5 -93.5q0 -57 -38.5 -94.5t-97.5 -37.5zM1147 1018l-608 -1366h-238
l166 373l-438 993h237l318 -733l325 733h238z" />
    <glyph glyph-name="Amacron" unicode="&#x100;" horiz-adv-x="1433" 
d="M1026 1540h-616v174h616v-174zM1423 0h-237l-135 319h-668l-135 -319h-238l604 1372h205zM965 520l-248 584l-248 -584h496z" />
    <glyph glyph-name="amacron" unicode="&#x101;" horiz-adv-x="1316" 
d="M944 1184h-616v174h616v-174zM1155 1016v-1016h-213v117q-140 -146 -369 -146q-99 0 -190.5 39t-161 108t-110.5 170.5t-41 219.5q0 117 41.5 218t110.5 170t160.5 108.5t190.5 39.5q230 0 369 -145v117h213zM608 160q85 0 160.5 41t124.5 122.5t49 184.5
q0 153 -100.5 250.5t-233.5 97.5q-143 0 -237.5 -95.5t-94.5 -252.5q0 -158 94.5 -253t237.5 -95z" />
    <glyph glyph-name="Abreve" unicode="&#x102;" horiz-adv-x="1433" 
d="M717 1487q-146 0 -233 79t-87 212h178q0 -63 41 -103.5t101 -40.5q61 0 102 40t41 104h176q0 -133 -86.5 -212t-232.5 -79zM1423 0h-237l-135 319h-668l-135 -319h-238l604 1372h205zM965 520l-248 584l-248 -584h496z" />
    <glyph glyph-name="abreve" unicode="&#x103;" horiz-adv-x="1316" 
d="M635 1130q-146 0 -233 79t-87 212h179q0 -63 40.5 -103t100.5 -40q61 0 102 40t41 103h176q0 -133 -86.5 -212t-232.5 -79zM1155 1016v-1016h-213v117q-140 -146 -369 -146q-99 0 -190.5 39t-161 108t-110.5 170.5t-41 219.5q0 117 41.5 218t110.5 170t160.5 108.5
t190.5 39.5q230 0 369 -145v117h213zM608 160q85 0 160.5 41t124.5 122.5t49 184.5q0 153 -100.5 250.5t-233.5 97.5q-143 0 -237.5 -95.5t-94.5 -252.5q0 -158 94.5 -253t237.5 -95z" />
    <glyph glyph-name="Aogonek" unicode="&#x104;" horiz-adv-x="1433" 
d="M1456 -250l12 -133q-84 -37 -157 -37q-77 0 -130 44t-53 132q0 63 33 119t113 125h-88l-135 319h-668l-135 -319h-238l604 1372h205l604 -1372q-62 -68 -81.5 -91t-36.5 -54t-17 -60q0 -67 70 -67q27 0 98 22zM965 520l-248 584l-248 -584h496z" />
    <glyph glyph-name="aogonek" unicode="&#x105;" horiz-adv-x="1316" 
d="M1188 -250l12 -133q-84 -37 -158 -37q-77 0 -129.5 44t-52.5 132q0 63 33 119t113 125h-64v117q-140 -146 -369 -146q-99 0 -190.5 39t-161 108t-110.5 170.5t-41 219.5q0 117 41.5 218t110.5 170t160.5 108.5t190.5 39.5q230 0 369 -145v117h213v-1016
q-62 -68 -81.5 -91t-36.5 -54t-17 -60q0 -67 70 -67q27 0 98 22zM608 160q85 0 160.5 41t124.5 122.5t49 184.5q0 153 -100.5 250.5t-233.5 97.5q-143 0 -237.5 -95.5t-94.5 -252.5q0 -158 94.5 -253t237.5 -95z" />
    <glyph glyph-name="Cacute" unicode="&#x106;" horiz-adv-x="1576" 
d="M911 1518h-182l150 290h249zM813 178q166 0 287 88.5t166 257.5l213 -45q-56 -238 -237.5 -373t-428.5 -135q-197 0 -361 94.5t-259 259t-95 361.5q0 196 95 360.5t259.5 259.5t360.5 95q244 0 426 -133t240 -359l-213 -61q-45 169 -166 257.5t-287 88.5
q-136 0 -249.5 -66t-179 -183t-65.5 -259t65.5 -259t179 -183t249.5 -66z" />
    <glyph glyph-name="cacute" unicode="&#x107;" horiz-adv-x="1181" 
d="M713 1161h-183l150 291h250zM610 168q106 0 184.5 53t114.5 160l197 -51q-41 -162 -179 -260.5t-317 -98.5q-146 0 -267.5 66t-195 190t-73.5 281q0 155 73.5 278.5t195.5 190.5t267 67q174 0 311.5 -97.5t184.5 -258.5l-205 -59q-28 108 -106.5 163.5t-184.5 55.5
q-142 0 -234.5 -95t-92.5 -245q0 -153 92 -246.5t235 -93.5z" />
    <glyph glyph-name="Cdotaccent" unicode="&#x10a;" horiz-adv-x="1576" 
d="M809 1540q-57 0 -94 36.5t-37 92.5q0 53 37.5 91t93.5 38t94.5 -38t38.5 -91q0 -55 -38 -92t-95 -37zM813 178q166 0 287 88.5t166 257.5l213 -45q-56 -238 -237.5 -373t-428.5 -135q-197 0 -361 94.5t-259 259t-95 361.5q0 196 95 360.5t259.5 259.5t360.5 95
q244 0 426 -133t240 -359l-213 -61q-45 169 -166 257.5t-287 88.5q-136 0 -249.5 -66t-179 -183t-65.5 -259t65.5 -259t179 -183t249.5 -66z" />
    <glyph glyph-name="cdotaccent" unicode="&#x10b;" horiz-adv-x="1181" 
d="M610 1184q-57 0 -94 36.5t-37 92.5q0 53 37.5 91t93.5 38t94.5 -38t38.5 -91q0 -55 -38 -92t-95 -37zM610 168q106 0 184.5 53t114.5 160l197 -51q-41 -162 -179 -260.5t-317 -98.5q-146 0 -267.5 66t-195 190t-73.5 281q0 155 73.5 278.5t195.5 190.5t267 67
q174 0 311.5 -97.5t184.5 -258.5l-205 -59q-28 108 -106.5 163.5t-184.5 55.5q-142 0 -234.5 -95t-92.5 -245q0 -153 92 -246.5t235 -93.5z" />
    <glyph glyph-name="Ccaron" unicode="&#x10c;" horiz-adv-x="1576" 
d="M711 1501l-236 299h213l125 -160l123 160h215l-238 -299h-202zM813 178q166 0 287 88.5t166 257.5l213 -45q-56 -238 -237.5 -373t-428.5 -135q-197 0 -361 94.5t-259 259t-95 361.5q0 196 95 360.5t259.5 259.5t360.5 95q244 0 426 -133t240 -359l-213 -61
q-45 169 -166 257.5t-287 88.5q-136 0 -249.5 -66t-179 -183t-65.5 -259t65.5 -259t179 -183t249.5 -66z" />
    <glyph glyph-name="ccaron" unicode="&#x10d;" horiz-adv-x="1181" 
d="M512 1145l-236 299h213l125 -160l123 160h215l-237 -299h-203zM610 168q106 0 184.5 53t114.5 160l197 -51q-41 -162 -179 -260.5t-317 -98.5q-146 0 -267.5 66t-195 190t-73.5 281q0 155 73.5 278.5t195.5 190.5t267 67q174 0 311.5 -97.5t184.5 -258.5l-205 -59
q-28 108 -106.5 163.5t-184.5 55.5q-142 0 -234.5 -95t-92.5 -245q0 -153 92 -246.5t235 -93.5z" />
    <glyph glyph-name="Dcaron" unicode="&#x10e;" horiz-adv-x="1495" 
d="M618 1501l-235 299h213l125 -160l123 160h215l-238 -299h-203zM162 1372h479q172 0 315 -51t239.5 -142t150 -217.5t53.5 -275.5t-53.5 -275.5t-150 -217.5t-239.5 -142t-315 -51h-479v1372zM381 199h260q247 0 392 135t145 352t-145 352.5t-392 135.5h-260v-975z" />
    <glyph glyph-name="dcaron" unicode="&#x10f;" horiz-adv-x="1320" 
d="M946 1475h215v-1475h-215v115q-144 -144 -368 -144q-99 0 -190 39t-161 108t-111.5 171t-41.5 219q0 116 41.5 217.5t111 170.5t161 108.5t190.5 39.5q226 0 368 -145v576zM1518 1475l-48 -381h-167v381h215zM612 160q134 0 234 96.5t100 251.5q0 103 -48.5 184
t-124 122.5t-161.5 41.5q-141 0 -235 -95.5t-94 -252.5q0 -158 94 -253t235 -95z" />
    <glyph glyph-name="Dcroat" unicode="&#x110;" horiz-adv-x="1513" 
d="M201 1372h479q172 0 315 -51t239.5 -142t150 -217.5t53.5 -275.5t-53.5 -275.5t-150 -217.5t-239.5 -142t-315 -51h-479v590h-140v201h140v581zM420 199h260q247 0 390.5 135t143.5 352t-143.5 352.5t-390.5 135.5h-260v-383h303v-201h-303v-391z" />
    <glyph glyph-name="dcroat" unicode="&#x111;" horiz-adv-x="1366" 
d="M1298 1153h-137v-1153h-215v115q-144 -144 -368 -144q-99 0 -190 39t-161 108t-111.5 171t-41.5 219q0 116 41.5 217.5t111 170.5t161 108.5t190.5 39.5q226 0 368 -145v254h-325v172h325v150h215v-150h137v-172zM612 160q134 0 234 96.5t100 251.5q0 103 -48.5 184
t-124 122.5t-161.5 41.5q-141 0 -235 -95.5t-94 -252.5q0 -158 94 -253t235 -95z" />
    <glyph glyph-name="Emacron" unicode="&#x112;" horiz-adv-x="1302" 
d="M1006 1540h-617v174h617v-174zM1184 199v-199h-1022v1372h1020v-198h-801v-388h739v-196h-739v-391h803z" />
    <glyph glyph-name="emacron" unicode="&#x113;" horiz-adv-x="1181" 
d="M911 1184h-616v174h616v-174zM1108 530v-73h-823q15 -137 103 -219t204 -82q97 0 173 38.5t126 137.5l190 -41q-62 -157 -189.5 -238.5t-299.5 -81.5q-138 0 -256 65.5t-190 189.5t-72 280q0 119 42 220.5t113.5 170.5t167.5 108t203 39q135 0 249 -64t184 -182.5
t75 -267.5zM600 856q-107 0 -196 -65.5t-113 -182.5h598q-24 121 -102.5 184.5t-186.5 63.5z" />
    <glyph glyph-name="Edotaccent" unicode="&#x116;" horiz-adv-x="1302" 
d="M694 1540q-57 0 -94 36.5t-37 92.5q0 53 37.5 91t93.5 38t94.5 -38t38.5 -91q0 -55 -38 -92t-95 -37zM1184 199v-199h-1022v1372h1020v-198h-801v-388h739v-196h-739v-391h803z" />
    <glyph glyph-name="edotaccent" unicode="&#x117;" horiz-adv-x="1181" 
d="M600 1184q-57 0 -94 36.5t-37 92.5q0 53 37.5 91t93.5 38t94.5 -38t38.5 -91q0 -55 -38 -92t-95 -37zM1108 530v-73h-823q15 -137 103 -219t204 -82q97 0 173 38.5t126 137.5l190 -41q-62 -157 -189.5 -238.5t-299.5 -81.5q-138 0 -256 65.5t-190 189.5t-72 280
q0 119 42 220.5t113.5 170.5t167.5 108t203 39q135 0 249 -64t184 -182.5t75 -267.5zM600 856q-107 0 -196 -65.5t-113 -182.5h598q-24 121 -102.5 184.5t-186.5 63.5z" />
    <glyph glyph-name="Eogonek" unicode="&#x118;" horiz-adv-x="1302" 
d="M1184 0h-54q-62 -68 -81.5 -91t-36.5 -54t-17 -60q0 -67 70 -67q27 0 98 22l13 -133q-84 -37 -158 -37q-77 0 -129.5 44t-52.5 132q0 63 32.5 119t112.5 125h-819v1372h1020v-198h-801v-388h739v-196h-739v-391h803v-199z" />
    <glyph glyph-name="eogonek" unicode="&#x119;" horiz-adv-x="1181" 
d="M1108 457h-823q15 -136 101.5 -218.5t203.5 -82.5q97 0 178 42t125 136l188 -41q-36 -74 -131 -172q-103 -113 -147.5 -182t-44.5 -132q0 -35 23.5 -55t62.5 -20q28 0 96 22l12 -119q-79 -55 -161 -55q-91 0 -145 47.5t-54 126.5q0 108 80 223q-38 -6 -80 -6
q-105 0 -199.5 39t-165 108t-112 170.5t-41.5 219.5q0 157 72 280.5t190.5 189.5t259.5 66q105 0 198.5 -39t162.5 -107.5t109.5 -167.5t41.5 -214v-59zM289 608h598q-18 123 -97 186.5t-190 63.5q-108 0 -198.5 -66.5t-112.5 -183.5z" />
    <glyph glyph-name="Ecaron" unicode="&#x11a;" horiz-adv-x="1302" 
d="M596 1501l-236 299h213l125 -160l123 160h215l-237 -299h-203zM1184 199v-199h-1022v1372h1020v-198h-801v-388h739v-196h-739v-391h803z" />
    <glyph glyph-name="ecaron" unicode="&#x11b;" horiz-adv-x="1181" 
d="M502 1145l-236 299h213l125 -160l123 160h215l-237 -299h-203zM1108 530v-73h-823q15 -137 103 -219t204 -82q97 0 173 38.5t126 137.5l190 -41q-62 -157 -189.5 -238.5t-299.5 -81.5q-138 0 -256 65.5t-190 189.5t-72 280q0 119 42 220.5t113.5 170.5t167.5 108t203 39
q135 0 249 -64t184 -182.5t75 -267.5zM600 856q-107 0 -196 -65.5t-113 -182.5h598q-24 121 -102.5 184.5t-186.5 63.5z" />
    <glyph glyph-name="Gbreve" unicode="&#x11e;" horiz-adv-x="1609" 
d="M823 1487q-146 0 -232.5 79t-86.5 212h178q0 -63 40.5 -103.5t100.5 -40.5q61 0 102.5 40.5t41.5 103.5h176q0 -133 -87 -212t-233 -79zM752 778h755q4 -74 4 -94q0 -200 -87 -362.5t-246 -256.5t-359 -94t-365.5 94.5t-260.5 258.5t-95 362q0 197 94.5 361t259 259
t361.5 95q226 0 403.5 -106.5t249.5 -299.5l-198 -69q-46 95 -120 156.5t-156 86.5t-179 25q-207 0 -349 -146.5t-142 -361.5q0 -142 66 -258.5t181 -183t256 -66.5q187 0 313.5 109.5t157.5 290.5h-544v200z" />
    <glyph glyph-name="gbreve" unicode="&#x11f;" horiz-adv-x="1290" 
d="M623 1130q-146 0 -233 79t-87 212h178q0 -63 41 -103t101 -40q61 0 102 40t41 103h176q0 -133 -86.5 -212t-232.5 -79zM1128 1016v-926q0 -225 -142.5 -352t-383.5 -127q-180 0 -306.5 64t-189.5 180l175 129q60 -94 132.5 -137.5t188.5 -43.5q146 0 233 85.5t87 232.5
v65q-121 -127 -351 -127q-129 0 -243 63.5t-184 178t-70 252.5q0 137 70 250.5t183.5 176t243.5 62.5q230 0 351 -127v101h206zM606 244q129 0 222.5 87t93.5 222q0 137 -93.5 223t-222.5 86q-139 0 -232 -85.5t-93 -223.5q0 -137 93 -223t232 -86z" />
    <glyph glyph-name="Gdotaccent" unicode="&#x120;" horiz-adv-x="1609" 
d="M823 1540q-57 0 -94 36.5t-37 92.5q0 53 37.5 91t93.5 38t94.5 -38t38.5 -91q0 -55 -38 -92t-95 -37zM752 778h755q4 -74 4 -94q0 -200 -87 -362.5t-246 -256.5t-359 -94t-365.5 94.5t-260.5 258.5t-95 362q0 197 94.5 361t259 259t361.5 95q226 0 403.5 -106.5
t249.5 -299.5l-198 -69q-46 95 -120 156.5t-156 86.5t-179 25q-207 0 -349 -146.5t-142 -361.5q0 -142 66 -258.5t181 -183t256 -66.5q187 0 313.5 109.5t157.5 290.5h-544v200z" />
    <glyph glyph-name="gdotaccent" unicode="&#x121;" horiz-adv-x="1290" 
d="M621 1184q-57 0 -94.5 36.5t-37.5 92.5q0 53 38 91t94 38t94.5 -38t38.5 -91q0 -55 -38 -92t-95 -37zM1128 1016v-926q0 -225 -142.5 -352t-383.5 -127q-180 0 -306.5 64t-189.5 180l175 129q60 -94 132.5 -137.5t188.5 -43.5q146 0 233 85.5t87 232.5v65
q-121 -127 -351 -127q-129 0 -243 63.5t-184 178t-70 252.5q0 137 70 250.5t183.5 176t243.5 62.5q230 0 351 -127v101h206zM606 244q129 0 222.5 87t93.5 222q0 137 -93.5 223t-222.5 86q-139 0 -232 -85.5t-93 -223.5q0 -137 93 -223t232 -86z" />
    <glyph glyph-name="Gcommaaccent" unicode="&#x122;" horiz-adv-x="1609" 
d="M752 778h755q4 -74 4 -94q0 -200 -87 -362.5t-246 -256.5t-359 -94t-365.5 94.5t-260.5 258.5t-95 362q0 197 94.5 361t259 259t361.5 95q226 0 403.5 -106.5t249.5 -299.5l-198 -69q-46 95 -120 156.5t-156 86.5t-179 25q-207 0 -349 -146.5t-142 -361.5
q0 -142 66 -258.5t181 -183t256 -66.5q187 0 313.5 109.5t157.5 290.5h-544v200zM690 -92h232l-172 -299h-162z" />
    <glyph glyph-name="gcommaaccent" unicode="&#x123;" horiz-adv-x="1300" 
d="M758 1161h-232l172 299h162zM1128 1016v-926q0 -225 -142.5 -352t-383.5 -127q-180 0 -306.5 64t-189.5 180l175 129q60 -94 132.5 -137.5t188.5 -43.5q146 0 233 85.5t87 232.5v65q-121 -127 -351 -127q-129 0 -243 63.5t-184 178t-70 252.5q0 137 70 250.5t183.5 176
t243.5 62.5q230 0 351 -127v101h206zM606 244q129 0 222.5 87t93.5 222q0 137 -93.5 223t-222.5 86q-139 0 -232 -85.5t-93 -223.5q0 -137 93 -223t232 -86z" />
    <glyph glyph-name="Hbar" unicode="&#x126;" horiz-adv-x="1566" 
d="M1499 932h-135v-932h-219v528h-729v-528h-219v932h-136v184h136v256h219v-256h729v256h219v-256h135v-184zM1145 932h-729v-203h729v203z" />
    <glyph glyph-name="hbar" unicode="&#x127;" horiz-adv-x="1294" 
d="M764 1044q184 0 295.5 -119t111.5 -311v-614h-213v571q0 125 -66.5 201t-176.5 76q-141 0 -221 -96t-80 -283v-469h-213v1167h-140v158h140v150h213v-150h325v-158h-325v-276q128 153 350 153z" />
    <glyph glyph-name="Imacron" unicode="&#x12a;" horiz-adv-x="542" 
d="M580 1540h-619v174h619v-174zM381 0h-219v1372h219v-1372z" />
    <glyph glyph-name="imacron" unicode="&#x12b;" horiz-adv-x="587" 
d="M604 1184h-618v174h618v-174zM401 0h-213v1016h213v-1016z" />
    <glyph glyph-name="Iogonek" unicode="&#x12e;" horiz-adv-x="542" 
d="M414 -250l12 -133q-84 -37 -158 -37q-77 0 -129.5 44t-52.5 132q0 63 32.5 119t112.5 125h-69v1372h219v-1372q-62 -68 -81.5 -91t-36.5 -54t-17 -60q0 -67 69 -67q28 0 99 22z" />
    <glyph glyph-name="iogonek" unicode="&#x12f;" horiz-adv-x="587" 
d="M293 1184q-57 0 -94 36.5t-37 92.5q0 53 37.5 91t93.5 38t94.5 -38t38.5 -91q0 -55 -38 -92t-95 -37zM434 -250l12 -133q-84 -37 -157 -37q-77 0 -130 44t-53 132q0 63 33 119t113 125h-64v1016h213v-1016q-62 -68 -81.5 -91t-36.5 -54t-17 -60q0 -67 70 -67q27 0 98 22z
" />
    <glyph glyph-name="Idotaccent" unicode="&#x130;" horiz-adv-x="542" 
d="M270 1798q56 0 94.5 -38t38.5 -91q0 -55 -38 -92t-95 -37t-94 36.5t-37 92.5q0 53 37.5 91t93.5 38zM381 0h-219v1372h219v-1372z" />
    <glyph glyph-name="dotlessi" unicode="&#x131;" horiz-adv-x="587" 
d="M401 0h-213v1016h213v-1016z" />
    <glyph glyph-name="IJ" unicode="&#x132;" horiz-adv-x="1763" 
d="M162 1372h219v-1372h-219v1372zM1616 1372v-880q0 -229 -144 -375t-376 -146q-211 0 -347 122t-167 325l209 43q18 -132 97.5 -211.5t207.5 -79.5q134 0 216.5 90.5t82.5 231.5v880h221z" />
    <glyph glyph-name="ij" unicode="&#x133;" horiz-adv-x="1163" 
d="M285 1454q58 0 96.5 -39t38.5 -94q0 -57 -38 -94t-97 -37q-60 0 -99 37t-39 94q0 55 39.5 94t98.5 39zM879 1454q58 0 97.5 -39t39.5 -94q0 -57 -39 -94t-98 -37t-97.5 37t-38.5 94q0 55 39 94t97 39zM391 0h-213v1016h213v-1016zM524 -332l43 187q54 -23 95 -23
q51 0 82.5 28t31.5 74v1082h213v-1110q0 -123 -76 -199t-200 -76q-95 0 -189 37z" />
    <glyph glyph-name="Kcommaaccent" unicode="&#x136;" horiz-adv-x="1384" 
d="M1358 0h-297l-604 578h-76v-578h-219v1372h219v-594h59l600 594h273l-686 -688zM567 -92h232l-172 -299h-162z" />
    <glyph glyph-name="kcommaaccent" unicode="&#x137;" horiz-adv-x="1200" 
d="M1194 0h-289l-469 422h-61v-422h-213v1475h213v-842h63l424 383h273l-533 -492zM485 -92h232l-172 -299h-162z" />
    <glyph glyph-name="Lacute" unicode="&#x139;" horiz-adv-x="1206" 
d="M369 1518h-183l150 290h250zM1130 199v-199h-968v1372h219v-1173h749z" />
    <glyph glyph-name="lacute" unicode="&#x13a;" horiz-adv-x="536" 
d="M369 1620h-183l150 291h250zM375 0h-213v1475h213v-1475z" />
    <glyph glyph-name="Lcommaaccent" unicode="&#x13b;" horiz-adv-x="1206" 
d="M1130 199v-199h-968v1372h219v-1173h749zM518 -92h232l-172 -299h-162z" />
    <glyph glyph-name="lcommaaccent" unicode="&#x13c;" horiz-adv-x="536" 
d="M375 0h-213v1475h213v-1475zM51 -391l103 299h231l-172 -299h-162z" />
    <glyph glyph-name="Lcaron" unicode="&#x13d;" horiz-adv-x="1206" 
d="M1130 199v-199h-968v1372h219v-1173h749zM788 991h-167v381h215z" />
    <glyph glyph-name="lcaron" unicode="&#x13e;" horiz-adv-x="536" 
d="M375 0h-213v1475h213v-1475zM678 1094h-168v381h215z" />
    <glyph glyph-name="Ldot" unicode="&#x13f;" horiz-adv-x="1191" 
d="M1130 199v-199h-968v1372h219v-1173h749zM815 584q-57 0 -94 36t-37 93q0 52 37.5 89.5t93.5 37.5t94.5 -37.5t38.5 -89.5q0 -57 -38 -93t-95 -36z" />
    <glyph glyph-name="ldot" unicode="&#x140;" horiz-adv-x="751" 
d="M375 0h-213v1475h213v-1475zM606 836q56 0 93.5 -38t37.5 -91q0 -56 -37 -92.5t-94 -36.5q-58 0 -94.5 36.5t-36.5 92.5q0 54 37 91.5t94 37.5z" />
    <glyph glyph-name="Lslash" unicode="&#x141;" horiz-adv-x="1226" 
d="M1165 199v-199h-968v473l-136 -63v206l136 64v692h221v-586l289 138v-207l-289 -137v-381h747z" />
    <glyph glyph-name="lslash" unicode="&#x142;" horiz-adv-x="636" 
d="M575 762l-149 -90v-672h-213v545l-152 -90v207l152 90v723h213v-596l149 90v-207z" />
    <glyph glyph-name="Nacute" unicode="&#x143;" horiz-adv-x="1558" 
d="M893 1518h-182l149 290h250zM1397 1372v-1372h-187l-829 985v-985h-219v1372h186l828 -1001v1001h221z" />
    <glyph glyph-name="nacute" unicode="&#x144;" horiz-adv-x="1269" 
d="M750 1161h-183l150 291h250zM727 1044q182 0 295 -119.5t113 -310.5v-614h-215v571q0 124 -66.5 200.5t-175.5 76.5q-141 0 -222 -96t-81 -283v-469h-213v1016h213v-125q128 153 352 153z" />
    <glyph glyph-name="Ncommaaccent" unicode="&#x145;" horiz-adv-x="1558" 
d="M1397 1372v-1372h-187l-829 985v-985h-219v1372h186l828 -1001v1001h221zM707 -92h231l-172 -299h-162z" />
    <glyph glyph-name="ncommaaccent" unicode="&#x146;" horiz-adv-x="1269" 
d="M727 1044q182 0 295 -119.5t113 -310.5v-614h-215v571q0 124 -66.5 200.5t-175.5 76.5q-141 0 -222 -96t-81 -283v-469h-213v1016h213v-125q128 153 352 153zM541 -92h231l-172 -299h-162z" />
    <glyph glyph-name="Ncaron" unicode="&#x147;" horiz-adv-x="1558" 
d="M692 1501l-235 299h213l125 -160l123 160h215l-238 -299h-203zM1397 1372v-1372h-187l-829 985v-985h-219v1372h186l828 -1001v1001h221z" />
    <glyph glyph-name="ncaron" unicode="&#x148;" horiz-adv-x="1269" 
d="M549 1145l-236 299h213l125 -160l123 160h215l-237 -299h-203zM727 1044q182 0 295 -119.5t113 -310.5v-614h-215v571q0 124 -66.5 200.5t-175.5 76.5q-141 0 -222 -96t-81 -283v-469h-213v1016h213v-125q128 153 352 153z" />
    <glyph glyph-name="Eng" unicode="&#x14a;" horiz-adv-x="1527" 
d="M1397 1372v-1452q0 -125 -77 -207t-200 -82q-115 0 -215 47l39 166q67 -26 125 -26q51 0 82 28t31 74v115l-801 950v-985h-219v1372h186l828 -1001v1001h221z" />
    <glyph glyph-name="eng" unicode="&#x14b;" horiz-adv-x="1271" 
d="M727 1044q182 0 295 -119.5t113 -310.5v-694q0 -125 -77 -207t-200 -82q-117 0 -217 47l41 164q76 -26 123 -26q52 0 83.5 29t31.5 75v651q0 124 -66.5 200.5t-175.5 76.5q-141 0 -222 -96t-81 -283v-469h-213v1016h213v-125q128 153 352 153z" />
    <glyph glyph-name="Omacron" unicode="&#x14c;" horiz-adv-x="1626" 
d="M1122 1540h-616v174h616v-174zM813 1401q197 0 362 -95.5t260 -260t95 -361.5q0 -196 -95 -359.5t-260 -258.5t-362 -95t-361.5 95t-259 258.5t-94.5 359.5q0 197 94.5 361.5t259 260t361.5 95.5zM813 178q210 0 353 145t143 361q0 143 -65.5 260t-179 183.5t-251.5 66.5
q-208 0 -351 -146.5t-143 -363.5q0 -142 65.5 -258.5t179 -182t249.5 -65.5z" />
    <glyph glyph-name="omacron" unicode="&#x14d;" horiz-adv-x="1239" 
d="M930 1190h-617v174h617v-174zM621 1038q149 0 272.5 -66t196.5 -188t73 -276q0 -116 -43 -216t-116 -169t-172.5 -108.5t-210.5 -39.5q-150 0 -274.5 66.5t-198.5 189.5t-74 277t74 276t198.5 188t274.5 66zM621 160q136 0 235.5 97.5t99.5 250.5t-99.5 250.5
t-235.5 97.5q-138 0 -238 -97t-100 -251t100 -251t238 -97z" />
    <glyph glyph-name="Ohungarumlaut" unicode="&#x150;" horiz-adv-x="1626" 
d="M729 1518h-192l149 290h264zM885 1518l147 290h264l-219 -290h-192zM813 1401q197 0 362 -95.5t260 -260t95 -361.5q0 -196 -95 -359.5t-260 -258.5t-362 -95t-361.5 95t-259 258.5t-94.5 359.5q0 197 94.5 361.5t259 260t361.5 95.5zM813 178q210 0 353 145t143 361
q0 143 -65.5 260t-179 183.5t-251.5 66.5q-208 0 -351 -146.5t-143 -363.5q0 -142 65.5 -258.5t179 -182t249.5 -65.5z" />
    <glyph glyph-name="ohungarumlaut" unicode="&#x151;" horiz-adv-x="1239" 
d="M537 1167h-193l150 291h264zM692 1167l148 291h264l-219 -291h-193zM621 1038q149 0 272.5 -66t196.5 -188t73 -276q0 -116 -43 -216t-116 -169t-172.5 -108.5t-210.5 -39.5q-150 0 -274.5 66.5t-198.5 189.5t-74 277t74 276t198.5 188t274.5 66zM621 160
q136 0 235.5 97.5t99.5 250.5t-99.5 250.5t-235.5 97.5q-138 0 -238 -97t-100 -251t100 -251t238 -97z" />
    <glyph glyph-name="OE" unicode="&#x152;" horiz-adv-x="2125" 
d="M2009 199v-199h-1120q-177 0 -326 51.5t-250.5 142t-158 217t-56.5 275.5q0 148 56.5 274.5t158 217.5t250.5 142.5t326 51.5h1116v-198h-799v-388h740v-196h-740v-391h803zM985 199v975h-96q-264 0 -417 -134t-153 -354t153 -353.5t417 -133.5h96z" />
    <glyph glyph-name="oe" unicode="&#x153;" horiz-adv-x="2064" 
d="M1991 530v-73h-824q15 -137 103 -219t205 -82q97 0 173 38.5t126 137.5l190 -41q-62 -157 -189.5 -238.5t-299.5 -81.5q-126 0 -236 55.5t-182 155.5q-74 -97 -188.5 -152t-247.5 -55q-150 0 -274.5 66.5t-198.5 189.5t-74 277t74 276t198.5 188t274.5 66
q133 0 247.5 -54.5t188.5 -152.5q72 101 183.5 157t242.5 56q135 0 249 -64t184 -182.5t75 -267.5zM621 160q136 0 235.5 97.5t99.5 250.5t-99.5 250.5t-235.5 97.5q-138 0 -238 -97t-100 -251t100 -251t238 -97zM1483 856q-107 0 -196 -65.5t-113 -182.5h598
q-24 121 -102.5 184.5t-186.5 63.5z" />
    <glyph glyph-name="Racute" unicode="&#x154;" horiz-adv-x="1376" 
d="M778 1518h-182l149 290h250zM1341 0h-272l-489 547h-199v-547h-219v1372h645q212 0 341.5 -114t129.5 -300q0 -176 -118 -287t-314 -122zM381 745h426q114 0 183 58.5t69 154.5q0 97 -69 156.5t-183 59.5h-426v-429z" />
    <glyph glyph-name="racute" unicode="&#x155;" horiz-adv-x="860" 
d="M557 1161h-182l149 291h250zM762 1028q45 0 72 -8l-15 -205q-16 2 -59 2q-189 0 -287 -122t-98 -337v-358h-213v1016h213v-217q65 107 162.5 168t224.5 61z" />
    <glyph glyph-name="Rcommaaccent" unicode="&#x156;" horiz-adv-x="1376" 
d="M1341 0h-272l-489 547h-199v-547h-219v1372h645q212 0 341.5 -114t129.5 -300q0 -176 -118 -287t-314 -122zM381 745h426q114 0 183 58.5t69 154.5q0 97 -69 156.5t-183 59.5h-426v-429zM592 -92h231l-172 -299h-162z" />
    <glyph glyph-name="rcommaaccent" unicode="&#x157;" horiz-adv-x="860" 
d="M762 1028q45 0 72 -8l-15 -205q-16 2 -59 2q-189 0 -287 -122t-98 -337v-358h-213v1016h213v-217q65 107 162.5 168t224.5 61zM156 -92h231l-172 -299h-162z" />
    <glyph glyph-name="Rcaron" unicode="&#x158;" horiz-adv-x="1376" 
d="M578 1501l-236 299h213l125 -160l123 160h215l-238 -299h-202zM1341 0h-272l-489 547h-199v-547h-219v1372h645q212 0 341.5 -114t129.5 -300q0 -176 -118 -287t-314 -122zM381 745h426q114 0 183 58.5t69 154.5q0 97 -69 156.5t-183 59.5h-426v-429z" />
    <glyph glyph-name="rcaron" unicode="&#x159;" horiz-adv-x="860" 
d="M356 1145l-235 299h213l125 -160l123 160h215l-238 -299h-203zM762 1028q45 0 72 -8l-15 -205q-16 2 -59 2q-189 0 -287 -122t-98 -337v-358h-213v1016h213v-217q65 107 162.5 168t224.5 61z" />
    <glyph glyph-name="Sacute" unicode="&#x15a;" horiz-adv-x="1298" 
d="M766 1518h-182l149 290h250zM641 1401q208 0 349.5 -104.5t178.5 -282.5l-219 -45q-19 109 -104.5 175t-208.5 66q-120 0 -194 -58.5t-74 -150.5q0 -71 42 -112t132 -60l297 -63q163 -36 257.5 -128.5t94.5 -246.5q0 -192 -144 -306t-382 -114q-148 0 -268.5 45.5
t-201.5 139.5t-98 223l234 49q24 -129 118 -195.5t236 -66.5q135 0 212 58.5t77 154.5q0 77 -44.5 118.5t-148.5 63.5l-299 62q-346 79 -346 372q0 182 138 294t366 112z" />
    <glyph glyph-name="sacute" unicode="&#x15b;" horiz-adv-x="1032" 
d="M629 1161h-183l150 291h250zM76 272l213 45q10 -87 79 -129.5t175 -42.5q91 0 145.5 37.5t54.5 98.5q0 91 -137 120l-221 45q-133 30 -204.5 100.5t-71.5 176.5q0 142 110 231.5t291 89.5q171 0 285.5 -80.5t142.5 -211.5l-203 -43q-12 75 -73 120t-158 45
q-89 0 -134.5 -37.5t-45.5 -95.5q0 -44 28 -71.5t94 -42.5l242 -54q125 -27 194.5 -97.5t69.5 -176.5q0 -156 -116.5 -242t-311.5 -86q-117 0 -211.5 31.5t-159 101t-77.5 168.5z" />
    <glyph glyph-name="Scedilla" unicode="&#x15e;" horiz-adv-x="1298" 
d="M1192 391q0 -174 -119 -285t-321 -131l-123 -313h-228l187 313q-199 18 -333 123t-157 281l234 49q24 -129 118 -195.5t236 -66.5q135 0 212 58.5t77 154.5q0 77 -44.5 118.5t-148.5 63.5l-299 62q-346 79 -346 372q0 182 138 294t366 112q208 0 349.5 -104.5
t178.5 -282.5l-219 -45q-19 109 -104.5 175t-208.5 66q-120 0 -194 -58.5t-74 -150.5q0 -71 42 -112t132 -60l297 -63q163 -36 257.5 -128.5t94.5 -246.5z" />
    <glyph glyph-name="scedilla" unicode="&#x15f;" horiz-adv-x="1032" 
d="M952 299q0 -134 -86 -217t-237 -105l-125 -315h-228l185 311q-157 13 -262 89t-123 210l213 45q10 -87 79 -129.5t175 -42.5q91 0 145.5 37.5t54.5 98.5q0 91 -137 120l-221 45q-133 30 -204.5 100.5t-71.5 176.5q0 142 110 231.5t291 89.5q171 0 285.5 -80.5
t142.5 -211.5l-203 -43q-12 75 -73 120t-158 45q-89 0 -134.5 -37.5t-45.5 -95.5q0 -44 28 -71.5t94 -42.5l242 -54q125 -27 194.5 -97.5t69.5 -176.5z" />
    <glyph glyph-name="Scaron" unicode="&#x160;" horiz-adv-x="1298" 
d="M565 1501l-235 299h213l125 -160l123 160h215l-238 -299h-203zM543 829l297 -63q163 -36 257.5 -128.5t94.5 -246.5q0 -192 -144 -306t-382 -114q-148 0 -268.5 45.5t-201.5 139.5t-98 223l234 49q24 -129 118 -195.5t236 -66.5q135 0 212 58.5t77 154.5
q0 77 -44.5 118.5t-148.5 63.5l-299 62q-346 79 -346 372q0 182 138 294t366 112q208 0 349.5 -104.5t178.5 -282.5l-219 -45q-19 109 -104.5 175t-208.5 66q-120 0 -194 -58.5t-74 -150.5q0 -71 42 -112t132 -60z" />
    <glyph glyph-name="scaron" unicode="&#x161;" horiz-adv-x="1032" 
d="M428 1145l-235 299h213l124 -160l123 160h215l-237 -299h-203zM446 627l242 -54q125 -27 194.5 -97.5t69.5 -176.5q0 -156 -116.5 -242t-311.5 -86q-117 0 -211.5 31.5t-159 101t-77.5 168.5l213 45q10 -87 79 -129.5t175 -42.5q91 0 145.5 37.5t54.5 98.5q0 91 -137 120
l-221 45q-133 30 -204.5 100.5t-71.5 176.5q0 142 110 231.5t291 89.5q171 0 285.5 -80.5t142.5 -211.5l-203 -43q-12 75 -73 120t-158 45q-89 0 -134.5 -37.5t-45.5 -95.5q0 -44 28 -71.5t94 -42.5z" />
    <glyph glyph-name="tcedilla" unicode="&#x163;" horiz-adv-x="847" 
d="M772 227l66 -178q-120 -72 -232 -78l-123 -309h-227l195 328q-110 33 -171 122.5t-61 233.5v494h-219v176h219v315h213v-315h348v-176h-348v-480q0 -93 45 -140.5t123 -47.5q89 0 172 55z" />
    <glyph glyph-name="Tcaron" unicode="&#x164;" horiz-adv-x="1280" 
d="M541 1501l-236 299h213l125 -160l123 160h215l-238 -299h-202zM1233 1174h-483v-1174h-222v1174h-481v198h1186v-198z" />
    <glyph glyph-name="tcaron" unicode="&#x165;" horiz-adv-x="847" 
d="M723 1110h-168v381h215zM772 227l66 -178q-131 -78 -252 -78q-169 0 -268 95.5t-99 279.5v494h-219v176h219v315h213v-315h348v-176h-348v-480q0 -93 45 -140.5t123 -47.5q89 0 172 55z" />
    <glyph glyph-name="Tbar" unicode="&#x166;" horiz-adv-x="1290" 
d="M750 1174v-396h260v-184h-260v-594h-222v594h-258v184h258v396h-481v198h1186v-198h-483z" />
    <glyph glyph-name="tbar" unicode="&#x167;" horiz-adv-x="847" 
d="M762 227l43 -186q-115 -70 -230 -70q-170 0 -268 95.5t-98 279.5v174h-184v174h184v146h-207v176h207v315h213v-315h348v-176h-348v-146h270v-174h-270v-160q0 -93 45 -140.5t123 -47.5q89 0 172 55z" />
    <glyph glyph-name="Umacron" unicode="&#x16a;" horiz-adv-x="1466" 
d="M1042 1540h-616v174h616v-174zM1319 1372v-766q0 -285 -159.5 -460t-420.5 -175q-267 0 -429.5 175t-162.5 460v766h220v-766q0 -192 101.5 -308t270.5 -116q162 0 261.5 116.5t99.5 307.5v766h219z" />
    <glyph glyph-name="umacron" unicode="&#x16b;" horiz-adv-x="1269" 
d="M936 1184h-617v174h617v-174zM1108 1016v-1016h-213v125q-129 -154 -350 -154q-184 0 -296 119.5t-112 312.5v613h213v-570q0 -125 67 -201.5t177 -76.5q141 0 221 96t80 283v469h213z" />
    <glyph glyph-name="Uring" unicode="&#x16e;" horiz-adv-x="1466" 
d="M733 1479q-95 0 -161 64t-66 155q0 92 66 156.5t161 64.5q96 0 162 -64t66 -157q0 -91 -66 -155t-162 -64zM733 1794q-42 0 -71 -28t-29 -68q0 -39 29 -67.5t71 -28.5t71.5 28.5t29.5 67.5q0 40 -29 68t-72 28zM1319 1372v-766q0 -285 -159.5 -460t-420.5 -175
q-267 0 -429.5 175t-162.5 460v766h220v-766q0 -192 101.5 -308t270.5 -116q162 0 261.5 116.5t99.5 307.5v766h219z" />
    <glyph glyph-name="uring" unicode="&#x16f;" horiz-adv-x="1269" 
d="M627 1120q-95 0 -161.5 64t-66.5 155q0 92 66.5 157t161.5 65q96 0 161.5 -64.5t65.5 -157.5q0 -91 -65.5 -155t-161.5 -64zM627 1436q-42 0 -71.5 -28.5t-29.5 -68.5q0 -39 29.5 -67.5t71.5 -28.5t71 28.5t29 67.5q0 40 -29 68.5t-71 28.5zM1108 1016v-1016h-213v125
q-129 -154 -350 -154q-184 0 -296 119.5t-112 312.5v613h213v-570q0 -125 67 -201.5t177 -76.5q141 0 221 96t80 283v469h213z" />
    <glyph glyph-name="Uhungarumlaut" unicode="&#x170;" horiz-adv-x="1466" 
d="M649 1518h-192l149 290h264zM805 1518l147 290h265l-220 -290h-192zM1319 1372v-766q0 -285 -159.5 -460t-420.5 -175q-267 0 -429.5 175t-162.5 460v766h220v-766q0 -192 101.5 -308t270.5 -116q162 0 261.5 116.5t99.5 307.5v766h219z" />
    <glyph glyph-name="uhungarumlaut" unicode="&#x171;" horiz-adv-x="1269" 
d="M543 1161h-193l150 291h264zM698 1161l148 291h264l-219 -291h-193zM895 1016h213v-1016h-213v125q-129 -154 -350 -154q-184 0 -296 119.5t-112 312.5v613h213v-570q0 -125 67 -201.5t177 -76.5q141 0 221 96t80 283v469z" />
    <glyph glyph-name="Uogonek" unicode="&#x172;" horiz-adv-x="1466" 
d="M1116 104q-133 -120 -166 -160q-53 -64 -53 -132q0 -33 22 -53.5t58 -20.5q27 0 113 29l40 -136q-108 -55 -206 -55q-89 0 -147 48.5t-58 125.5q0 120 110 230q-47 -9 -90 -9q-265 0 -428.5 171t-163.5 448v782h220v-782q0 -184 102.5 -296t269.5 -112q162 0 261.5 112
t99.5 296v782h219v-782q0 -293 -203 -486z" />
    <glyph glyph-name="uogonek" unicode="&#x173;" horiz-adv-x="1269" 
d="M1143 -250l12 -133q-84 -37 -158 -37q-77 0 -129.5 44t-52.5 132q0 63 33 119t113 125h-66v125q-129 -154 -350 -154q-184 0 -296 119.5t-112 312.5v613h213v-570q0 -125 67 -201.5t177 -76.5q141 0 221 96t80 283v469h213v-1016h2q-62 -68 -81.5 -91t-36.5 -54t-17 -60
q0 -67 69 -67q28 0 99 22z" />
    <glyph glyph-name="Wcircumflex" unicode="&#x174;" horiz-adv-x="1961" 
d="M858 1501h-213l236 297h202l238 -297h-215l-123 158zM1933 1372l-411 -1372h-234l-307 1020l-309 -1020h-234l-409 1372h229l301 -1034l315 1034h211l316 -1034l301 1034h231z" />
    <glyph glyph-name="wcircumflex" unicode="&#x175;" horiz-adv-x="1593" 
d="M674 1145h-213l235 297h203l238 -297h-215l-123 158zM1565 1016l-340 -1020h-195l-233 684l-234 -684h-194l-340 1020h213l231 -707l240 707h168l239 -707l232 707h213z" />
    <glyph glyph-name="Ycircumflex" unicode="&#x176;" horiz-adv-x="1394" 
d="M573 1501h-213l236 297h203l237 -297h-215l-123 158zM803 459v-459h-219v455l-555 917h243l422 -688l420 688h252z" />
    <glyph glyph-name="ycircumflex" unicode="&#x177;" horiz-adv-x="1173" 
d="M453 1149h-213l235 297h203l237 -297h-215l-122 158zM1147 1018l-608 -1366h-238l166 373l-438 993h237l318 -733l325 733h238z" />
    <glyph glyph-name="Ydieresis" unicode="&#x178;" horiz-adv-x="1394" 
d="M485 1524q-59 0 -97 37t-38 94q0 54 39 93.5t96 39.5t96.5 -39.5t39.5 -93.5q0 -57 -38.5 -94t-97.5 -37zM909 1524q-59 0 -97 37t-38 94q0 54 39 93.5t96 39.5t96 -39.5t39 -93.5q0 -57 -38 -94t-97 -37zM803 459v-459h-219v455l-555 917h243l422 -688l420 688h252z" />
    <glyph glyph-name="Zacute" unicode="&#x179;" horiz-adv-x="1280" 
d="M754 1518h-183l150 290h250zM1186 188v-188h-1077v141l786 1043h-764v188h1045v-164l-756 -1020h766z" />
    <glyph glyph-name="zacute" unicode="&#x17a;" horiz-adv-x="1054" 
d="M641 1161h-182l149 291h250zM973 176v-176h-891v141l604 699h-588v176h850v-144l-604 -696h629z" />
    <glyph glyph-name="Zdotaccent" unicode="&#x17b;" horiz-adv-x="1280" 
d="M653 1540q-57 0 -94 36.5t-37 92.5q0 53 37.5 91t93.5 38t94.5 -38t38.5 -91q0 -55 -38 -92t-95 -37zM1186 188v-188h-1077v141l786 1043h-764v188h1045v-164l-756 -1020h766z" />
    <glyph glyph-name="zdotaccent" unicode="&#x17c;" horiz-adv-x="1054" 
d="M539 1184q-57 0 -94 36.5t-37 92.5q0 53 37.5 91t93.5 38t94.5 -38t38.5 -91q0 -55 -38 -92t-95 -37zM973 176v-176h-891v141l604 699h-588v176h850v-144l-604 -696h629z" />
    <glyph glyph-name="Zcaron" unicode="&#x17d;" horiz-adv-x="1280" 
d="M553 1501l-236 299h213l125 -160l123 160h215l-237 -299h-203zM1186 188v-188h-1077v141l786 1043h-764v188h1045v-164l-756 -1020h766z" />
    <glyph glyph-name="zcaron" unicode="&#x17e;" horiz-adv-x="1054" 
d="M440 1145l-235 299h213l125 -160l123 160h215l-238 -299h-203zM973 176v-176h-891v141l604 699h-588v176h850v-144l-604 -696h629z" />
    <glyph glyph-name="florin" unicode="&#x192;" horiz-adv-x="1165" 
d="M883 1208q-84 0 -141 -50.5t-74 -143.5l-45 -248h350v-176h-383l-111 -610q-26 -145 -124 -231.5t-238 -86.5q-99 0 -189 53l70 172q59 -24 121 -24q58 0 100 33t51 84l109 610h-229v176h260l45 248q33 177 150 281t290 104q138 0 238 -74l-76 -174q-72 57 -174 57z" />
    <glyph glyph-name="AEacute" unicode="&#x1fc;" horiz-adv-x="2131" 
d="M1485 1518h-182l149 290h250zM2044 199v-199h-1022v285h-565l-193 -285h-254l953 1372h1079v-198h-801v-388h739v-196h-739v-391h803zM1022 483v641l-432 -641h432z" />
    <glyph glyph-name="aeacute" unicode="&#x1fd;" horiz-adv-x="1871" 
d="M1022 1161h-182l149 291h250zM1798 436h-803q22 -132 104 -206t206 -74q49 0 98 14.5t99.5 56t78.5 103.5l191 -41q-40 -140 -172.5 -229t-299.5 -89q-133 0 -237.5 53.5t-173.5 151.5q-64 -92 -177 -148.5t-251 -56.5q-186 0 -286.5 90t-100.5 228q0 140 107.5 220.5
t295.5 80.5h322v61q0 97 -63.5 155t-168.5 58q-100 0 -163.5 -48t-75.5 -134l-195 43q18 141 135.5 230t302.5 89q116 0 208 -41.5t149 -119.5q68 77 162.5 119t203.5 42q104 0 196 -39.5t160 -108.5t107.5 -169.5t40.5 -216.5v-74zM995 590h588q-21 130 -97.5 201
t-182.5 71q-116 0 -203.5 -72t-104.5 -200zM799 436h-322q-95 0 -146.5 -37.5t-51.5 -103.5q0 -68 55 -110t151 -42q125 0 219.5 79.5t94.5 191.5v22z" />
    <glyph glyph-name="Scommaaccent" unicode="&#x218;" horiz-adv-x="1298" 
d="M641 1401q208 0 349.5 -104.5t178.5 -282.5l-219 -45q-19 109 -104.5 175t-208.5 66q-120 0 -194 -58.5t-74 -150.5q0 -71 42 -112t132 -60l297 -63q163 -36 257.5 -128.5t94.5 -246.5q0 -192 -144 -306t-382 -114q-148 0 -268.5 45.5t-201.5 139.5t-98 223l234 49
q24 -129 118 -195.5t236 -66.5q135 0 212 58.5t77 154.5q0 77 -44.5 118.5t-148.5 63.5l-299 62q-346 79 -346 372q0 182 138 294t366 112zM444 -391l103 299h231l-172 -299h-162z" />
    <glyph glyph-name="scommaaccent" unicode="&#x219;" horiz-adv-x="1032" 
d="M76 272l213 45q10 -87 79 -129.5t175 -42.5q91 0 145.5 37.5t54.5 98.5q0 91 -137 120l-221 45q-133 30 -204.5 100.5t-71.5 176.5q0 142 110 231.5t291 89.5q171 0 285.5 -80.5t142.5 -211.5l-203 -43q-12 75 -73 120t-158 45q-89 0 -134.5 -37.5t-45.5 -95.5
q0 -44 28 -71.5t94 -42.5l242 -54q125 -27 194.5 -97.5t69.5 -176.5q0 -156 -116.5 -242t-311.5 -86q-117 0 -211.5 31.5t-159 101t-77.5 168.5zM319 -391l103 299h231l-172 -299h-162z" />
    <glyph glyph-name="uni021A" unicode="&#x21a;" horiz-adv-x="1280" 
d="M1233 1372v-198h-483v-1174h-222v1174h-481v198h1186zM530 -92h232l-172 -299h-162z" />
    <glyph glyph-name="uni021B" unicode="&#x21b;" horiz-adv-x="847" 
d="M586 -29q-169 0 -268 95.5t-99 279.5v494h-219v176h219v315h213v-315h348v-176h-348v-480q0 -93 45 -140.5t123 -47.5q89 0 172 55l66 -178q-131 -78 -252 -78zM401 -92h232l-172 -299h-162z" />
    <glyph glyph-name="circumflex" unicode="&#x2c6;" horiz-adv-x="1228" 
d="M739 1145l-123 158l-124 -158h-213l235 297h203l237 -297h-215z" />
    <glyph glyph-name="caron" unicode="&#x2c7;" horiz-adv-x="1228" 
d="M954 1444l-237 -299h-203l-235 299h213l124 -160l123 160h215z" />
    <glyph glyph-name="breve" unicode="&#x2d8;" horiz-adv-x="1228" 
d="M614 1128q-146 0 -232.5 79t-86.5 212h178q0 -63 40.5 -103t100.5 -40q61 0 102.5 40t41.5 103h176q0 -133 -87 -212t-233 -79z" />
    <glyph glyph-name="dotaccent" unicode="&#x2d9;" horiz-adv-x="1228" 
d="M614 1442q56 0 95 -38t39 -91q0 -55 -38.5 -92t-95.5 -37t-94 36.5t-37 92.5q0 53 37.5 91t93.5 38z" />
    <glyph glyph-name="ring" unicode="&#x2da;" horiz-adv-x="1228" 
d="M842 1339q0 -91 -66 -155t-162 -64q-95 0 -161 64t-66 155q0 92 66 157t161 65q96 0 162 -64.5t66 -157.5zM715 1339q0 40 -29.5 68.5t-71.5 28.5t-71 -28.5t-29 -68.5q0 -39 29 -67.5t71 -28.5t71.5 28.5t29.5 67.5z" />
    <glyph glyph-name="ogonek" unicode="&#x2db;" horiz-adv-x="1228" 
d="M522 2l148 -2q-62 -68 -81.5 -91t-36.5 -54t-17 -60q0 -67 69 -67q27 0 98 22l13 -133q-84 -37 -158 -37q-77 0 -129.5 44t-52.5 132q0 63 33 119.5t114 126.5z" />
    <glyph glyph-name="tilde" unicode="&#x2dc;" horiz-adv-x="1228" 
d="M440 1206h-145q0 66 18 114.5t48 74t63.5 37.5t69.5 12q43 0 80.5 -14t59 -30t51.5 -30t60 -14t48 25t18 63h143q0 -67 -17 -116.5t-46.5 -75.5t-62.5 -38t-70 -12q-45 0 -82.5 13.5t-59 29.5t-50 29.5t-58.5 13.5q-32 0 -50 -23t-18 -59z" />
    <glyph glyph-name="hungarumlaut" unicode="&#x2dd;" horiz-adv-x="1228" 
d="M453 1161h-193l150 291h264zM801 1161h-193l148 291h264z" />
    <glyph glyph-name="uni0326" unicode="&#x326;" horiz-adv-x="0" 
d="M430 -391l102 299h232l-172 -299h-162z" />
    <glyph glyph-name="Wgrave" unicode="&#x1e80;" horiz-adv-x="1961" 
d="M887 1518l-217 290h250l149 -290h-182zM1933 1372l-411 -1372h-234l-307 1020l-309 -1020h-234l-409 1372h229l301 -1034l315 1034h211l316 -1034l301 1034h231z" />
    <glyph glyph-name="wgrave" unicode="&#x1e81;" horiz-adv-x="1593" 
d="M705 1161l-218 291h250l150 -291h-182zM1565 1016l-340 -1020h-195l-233 684l-234 -684h-194l-340 1020h213l231 -707l240 707h168l239 -707l232 707h213z" />
    <glyph glyph-name="Wacute" unicode="&#x1e82;" horiz-adv-x="1961" 
d="M1081 1518h-182l150 290h249zM1933 1372l-411 -1372h-234l-307 1020l-309 -1020h-234l-409 1372h229l301 -1034l315 1034h211l316 -1034l301 1034h231z" />
    <glyph glyph-name="wacute" unicode="&#x1e83;" horiz-adv-x="1593" 
d="M897 1161h-182l149 291h250zM1565 1016l-340 -1020h-195l-233 684l-234 -684h-194l-340 1020h213l231 -707l240 707h168l239 -707l232 707h213z" />
    <glyph glyph-name="Wdieresis" unicode="&#x1e84;" horiz-adv-x="1961" 
d="M770 1524q-59 0 -97 37t-38 94q0 54 39 93.5t96 39.5t96 -39.5t39 -93.5q0 -57 -38 -94t-97 -37zM1194 1524q-59 0 -97 37t-38 94q0 54 39 93.5t96 39.5t96 -39.5t39 -93.5q0 -57 -38 -94t-97 -37zM1933 1372l-411 -1372h-234l-307 1020l-309 -1020h-234l-409 1372h229
l301 -1034l315 1034h211l316 -1034l301 1034h231z" />
    <glyph glyph-name="wdieresis" unicode="&#x1e85;" horiz-adv-x="1593" 
d="M586 1167q-59 0 -97 37t-38 94q0 54 39 94t96 40t96 -40t39 -94q0 -57 -38 -94t-97 -37zM1010 1167q-59 0 -97.5 37t-38.5 94q0 54 39.5 94t96.5 40t96 -40t39 -94q0 -57 -38 -94t-97 -37zM1565 1016l-340 -1020h-195l-233 684l-234 -684h-194l-340 1020h213l231 -707
l240 707h168l239 -707l232 707h213z" />
    <glyph glyph-name="Ygrave" unicode="&#x1ef2;" horiz-adv-x="1394" 
d="M602 1518l-217 290h250l149 -290h-182zM803 459v-459h-219v455l-555 917h243l422 -688l420 688h252z" />
    <glyph glyph-name="ygrave" unicode="&#x1ef3;" horiz-adv-x="1173" 
d="M481 1165l-217 291h250l150 -291h-183zM1147 1018l-608 -1366h-238l166 373l-438 993h237l318 -733l325 733h238z" />
    <glyph glyph-name="endash" unicode="&#x2013;" horiz-adv-x="1269" 
d="M1147 440h-1024v164h1024v-164z" />
    <glyph glyph-name="emdash" unicode="&#x2014;" horiz-adv-x="2129" 
d="M2007 440h-1884v164h1884v-164z" />
    <glyph glyph-name="quoteleft" unicode="&#x2018;" horiz-adv-x="544" 
d="M299 1372h162l-129 -543h-248v5z" />
    <glyph glyph-name="quoteright" unicode="&#x2019;" horiz-adv-x="544" 
d="M248 829h-164l129 543h248v-6z" />
    <glyph glyph-name="quotesinglbase" unicode="&#x201a;" horiz-adv-x="544" 
d="M248 -270h-164l129 544h248v-6z" />
    <glyph glyph-name="quotedblleft" unicode="&#x201c;" horiz-adv-x="909" 
d="M299 1372h162l-129 -543h-248v5zM662 1372h161l-129 -543h-248v5z" />
    <glyph glyph-name="quotedblright" unicode="&#x201d;" horiz-adv-x="909" 
d="M248 829h-164l129 543h248v-6zM610 829h-161l129 543h247v-6z" />
    <glyph glyph-name="quotedblbase" unicode="&#x201e;" horiz-adv-x="909" 
d="M248 -270h-164l129 544h248v-6zM610 -270h-161l129 544h247v-6z" />
    <glyph glyph-name="dagger" unicode="&#x2020;" horiz-adv-x="780" 
d="M694 1331v-139h-229v-500h-150v500h-227v139h227v185h150v-185h229z" />
    <glyph glyph-name="daggerdbl" unicode="&#x2021;" horiz-adv-x="780" 
d="M465 1192v-176h229v-139h-229v-185h-150v185h-227v139h227v176h-227v139h227v185h150v-185h229v-139h-229z" />
    <glyph glyph-name="bullet" unicode="&#x2022;" horiz-adv-x="839" 
d="M420 852q139 0 233.5 -94.5t94.5 -222.5q0 -135 -93.5 -225.5t-234.5 -90.5t-234.5 90.5t-93.5 225.5q0 128 94.5 222.5t233.5 94.5z" />
    <glyph glyph-name="ellipsis" unicode="&#x2026;" horiz-adv-x="1456" 
d="M227 252q57 0 95 -38t38 -91q0 -56 -37.5 -93.5t-95.5 -37.5t-96.5 37.5t-38.5 93.5q0 53 38.5 91t96.5 38zM729 252q57 0 95 -38t38 -91q0 -56 -37.5 -93.5t-95.5 -37.5t-96.5 37.5t-38.5 93.5q0 53 38.5 91t96.5 38zM1231 252q57 0 95 -38t38 -91q0 -56 -37.5 -93.5
t-95.5 -37.5t-96.5 37.5t-38.5 93.5q0 53 38.5 91t96.5 38z" />
    <glyph glyph-name="perthousand" unicode="&#x2030;" horiz-adv-x="2529" 
d="M432 1401q141 0 240.5 -91t99.5 -239q0 -144 -100 -236t-240 -92t-240 92t-100 236q0 148 99.5 239t240.5 91zM272 0l1016 1372h146l-1016 -1372h-146zM432 1253q-71 0 -124.5 -49.5t-53.5 -130.5q0 -82 53 -132t125 -50t125 50t53 132q0 81 -53.5 130.5t-124.5 49.5z
M1288 629q141 0 240.5 -91t99.5 -237q0 -145 -99.5 -237.5t-240.5 -92.5t-240.5 92.5t-99.5 237.5q0 146 99.5 237t240.5 91zM2097 629q141 0 240.5 -91t99.5 -237q0 -145 -99.5 -237.5t-240.5 -92.5t-240.5 92.5t-99.5 237.5q0 146 99.5 237t240.5 91zM1288 483
q-71 0 -124.5 -50.5t-53.5 -131.5t53.5 -130.5t124.5 -49.5t124.5 49.5t53.5 130.5t-53.5 131.5t-124.5 50.5zM2097 483q-71 0 -124.5 -50.5t-53.5 -131.5t53.5 -130.5t124.5 -49.5t124.5 49.5t53.5 130.5t-53.5 131.5t-124.5 50.5z" />
    <glyph glyph-name="guilsinglleft" unicode="&#x2039;" horiz-adv-x="555" 
d="M51 537l240 364h213l-240 -364l240 -365h-213z" />
    <glyph glyph-name="guilsinglright" unicode="&#x203a;" horiz-adv-x="555" 
d="M51 172l240 365l-240 364h213l240 -364l-240 -365h-213z" />
    <glyph glyph-name="fraction" unicode="&#x2044;" horiz-adv-x="464" 
d="M-365 0l1018 1372h146l-1018 -1372h-146z" />
    <glyph glyph-name="Euro" unicode="&#x20ac;" horiz-adv-x="1607" 
d="M952 178q120 0 209.5 80t132.5 238l217 -47q-55 -220 -203 -349t-356 -129q-210 0 -359 130.5t-202 355.5h-229v157h207q-2 23 -2 72q0 46 2 66h-207v155h227q51 228 201 361t362 133q208 0 356 -128.5t203 -348.5l-223 -45q-34 155 -124.5 236t-211.5 81
q-119 0 -206.5 -77t-127.5 -212h480l-37 -155h-469q-2 -20 -2 -66q0 -49 2 -72h434l-37 -157h-366q40 -131 126 -205t203 -74z" />
    <glyph glyph-name="uni2116" unicode="&#x2116;" horiz-adv-x="2480" 
d="M1958 696q-147 0 -253 97.5t-106 250.5t106 251t253 98q151 0 255.5 -97.5t104.5 -251.5t-104.5 -251t-255.5 -97zM1176 1372h221v-1372h-187l-829 985v-985h-219v1372h186l828 -1001v1001zM1958 1235q-74 0 -129 -55t-55 -136t55 -135.5t129 -54.5q78 0 134 54t56 136
t-56 136.5t-134 54.5zM1620 565h678v-174h-678v174z" />
    <glyph glyph-name="uni2117" unicode="&#x2117;" horiz-adv-x="1568" 
d="M780 1401q193 0 356 -91.5t260 -257.5t97 -370q0 -202 -97 -366t-260 -254.5t-356 -90.5q-195 0 -359 90.5t-261 254.5t-97 366q0 153 57 288t154 229t228.5 148t277.5 54zM780 70q165 0 303.5 78t220.5 219.5t82 316.5q0 176 -82 319t-220.5 222.5t-303.5 79.5
q-166 0 -305.5 -79.5t-222 -222.5t-82.5 -319q0 -175 82.5 -316.5t222 -219.5t305.5 -78zM514 1057h338q134 0 213.5 -71t79.5 -187q0 -121 -79.5 -194t-213.5 -73h-207v-229h-131v754zM645 653h199q77 0 124.5 40t47.5 106q0 63 -47.5 101t-124.5 38h-199v-285z" />
    <glyph glyph-name="trademark" unicode="&#x2122;" horiz-adv-x="1349" 
d="M563 1266h-182v-445h-127v445h-180v106h489v-106zM1253 821h-118v326l-150 -324h-76l-149 324v-326h-119v551h137l170 -350l170 350h135v-551z" />
    <glyph glyph-name="oneeighth" unicode="&#x215b;" horiz-adv-x="1605" 
d="M205 1163l-160 -100v168l215 141h102v-768h-157v559zM1305 1372l-1016 -1372h-146l1016 1372h146zM1376 395q76 -23 116 -72.5t40 -121.5q0 -97 -84.5 -160.5t-220.5 -63.5t-221.5 63.5t-85.5 160.5q0 148 153 196q-123 48 -123 168q0 89 80 149t199 60q117 0 195.5 -60
t78.5 -149q0 -120 -127 -170zM1227 659q-60 0 -98.5 -30t-38.5 -80q0 -43 39.5 -74t97.5 -31q57 0 95.5 29.5t39.5 75.5q0 50 -38 80t-97 30zM1227 104q62 0 102.5 31.5t40.5 83.5q0 50 -39 82.5t-104 32.5q-66 0 -107 -32t-41 -83q0 -52 41.5 -83.5t106.5 -31.5z" />
    <glyph glyph-name="threeeighths" unicode="&#x215c;" horiz-adv-x="1759" 
d="M639 840q0 -104 -80.5 -173t-208.5 -69q-125 0 -208 69t-87 185l133 33q4 -74 48.5 -115t115.5 -41q63 0 101.5 32t38.5 83q0 49 -37.5 76.5t-100.5 27.5h-78v113h68q60 0 98.5 26.5t38.5 71.5q0 47 -37 77t-96 30q-66 0 -105 -38t-42 -108l-138 33q7 110 84.5 175
t198.5 65q122 0 200.5 -65.5t78.5 -164.5q0 -105 -105 -153q119 -53 119 -170zM1450 1372l-1016 -1372h-145l1016 1372h145zM1522 395q155 -48 155 -194q0 -97 -84.5 -160.5t-220.5 -63.5t-221.5 63.5t-85.5 160.5q0 147 154 196q-123 48 -123 168q0 89 79.5 149t198.5 60
q117 0 196 -60t79 -149q0 -120 -127 -170zM1372 659q-60 0 -98.5 -30t-38.5 -80q0 -43 39.5 -74t97.5 -31q57 0 95.5 29.5t39.5 75.5q0 50 -38 80t-97 30zM1372 104q63 0 103.5 31.5t40.5 83.5q0 50 -39.5 82.5t-104.5 32.5q-66 0 -106.5 -32t-40.5 -83q0 -52 41 -83.5
t106 -31.5z" />
    <glyph glyph-name="fiveeighths" unicode="&#x215d;" horiz-adv-x="1710" 
d="M649 852q0 -117 -81 -189.5t-212 -72.5q-122 0 -205.5 65.5t-95.5 161.5l150 27q12 -55 53 -88t98 -33q61 0 101.5 33t40.5 90t-42.5 88t-107.5 31h-258l21 407h499v-139h-364l-8 -137h155q111 0 183.5 -67t72.5 -177zM1432 1372l-1016 -1372h-146l1016 1372h146z
M1481 395q155 -48 155 -194q0 -97 -84.5 -160.5t-220.5 -63.5t-221.5 63.5t-85.5 160.5q0 147 154 196q-123 48 -123 168q0 89 79.5 149t198.5 60q117 0 196 -60t79 -149q0 -120 -127 -170zM1331 659q-60 0 -98.5 -30t-38.5 -80q0 -43 39.5 -74t97.5 -31q57 0 95.5 29.5
t39.5 75.5q0 50 -38 80t-97 30zM1331 104q63 0 103.5 31.5t40.5 83.5q0 50 -39.5 82.5t-104.5 32.5q-66 0 -106.5 -32t-40.5 -83q0 -52 41 -83.5t106 -31.5z" />
    <glyph glyph-name="seveneighths" unicode="&#x215e;" horiz-adv-x="1519" 
d="M406 1233h-392v139h561v-121l-296 -645h-170zM1249 1372l-1016 -1372h-145l1016 1372h145zM1290 395q76 -23 116 -72.5t40 -121.5q0 -97 -84.5 -160.5t-220.5 -63.5t-221.5 63.5t-85.5 160.5q0 148 153 196q-123 48 -123 168q0 89 80 149t199 60q117 0 195.5 -60
t78.5 -149q0 -120 -127 -170zM1141 659q-60 0 -98.5 -30t-38.5 -80q0 -43 39.5 -74t97.5 -31q57 0 95.5 29.5t39.5 75.5q0 50 -38 80t-97 30zM1141 104q62 0 102.5 31.5t40.5 83.5q0 50 -39 82.5t-104 32.5q-66 0 -107 -32t-41 -83q0 -52 41.5 -83.5t106.5 -31.5z" />
    <glyph glyph-name="arrowleft" unicode="&#x2190;" horiz-adv-x="1488" 
d="M1407 553h-963l414 -414l-156 -157l-682 682l685 684l155 -158l-416 -416h963v-221z" />
    <glyph glyph-name="arrowup" unicode="&#x2191;" horiz-adv-x="1529" 
d="M1292 549l-415 416v-965h-222v965l-415 -418l-158 155l684 684l682 -681z" />
    <glyph glyph-name="arrowright" unicode="&#x2192;" horiz-adv-x="1488" 
d="M1468 664l-682 -682l-155 157l416 414h-965v221h965l-418 416l155 158z" />
    <glyph glyph-name="arrowdown" unicode="&#x2193;" horiz-adv-x="1529" 
d="M1448 668l-682 -682l-684 684l158 155l415 -415v962h222v-962l415 413z" />
    <glyph glyph-name="uni2196" unicode="&#x2196;" horiz-adv-x="1529" 
d="M1292 -16l-1009 1011v-630h-222v1007h1006v-219h-631l1012 -1012z" />
    <glyph glyph-name="uni2197" unicode="&#x2197;" horiz-adv-x="1529" 
d="M1468 1372v-1007h-221v632l-1009 -1013l-156 157l1010 1012h-629l-2 219h1007z" />
    <glyph glyph-name="uni2198" unicode="&#x2198;" horiz-adv-x="1529" 
d="M1468 1008v-1008h-1007l2 221h629l-1010 1010l156 158l1009 -1014v633h221z" />
    <glyph glyph-name="uni2199" unicode="&#x2199;" horiz-adv-x="1529" 
d="M436 221h631v-221h-1006v1008h222v-631l1009 1012l156 -158z" />
    <glyph glyph-name="minus" unicode="&#x2212;" horiz-adv-x="1187" 
d="M1055 530h-922v189h922v-189z" />
    <glyph glyph-name="approxequal" unicode="&#x2248;" horiz-adv-x="1187" 
d="M1055 909v-180q-77 -41 -205 -41q-70 0 -135.5 15.5t-108 34.5t-106 34.5t-131.5 15.5q-66 0 -132 -15.5t-104 -47.5v178q38 31 103 47.5t133 16.5t134 -16t110.5 -34.5t108.5 -34.5t130 -16q134 0 203 43zM1055 598v-180q-81 -43 -205 -43q-70 0 -135.5 16t-108 35
t-106 35t-131.5 16q-66 0 -132 -15.5t-104 -47.5v178q38 31 102.5 47t133.5 16q86 0 165.5 -25t157.5 -50t160 -25q134 0 203 43z" />
    <glyph glyph-name="notequal" unicode="&#x2260;" horiz-adv-x="1187" 
d="M750 760l-119 -209h424v-186h-531l-94 -164h-194l94 164h-197v186h303l121 209h-424v186h531l98 170h192l-98 -170h199v-186h-305z" />
    <glyph glyph-name="lessequal" unicode="&#x2264;" horiz-adv-x="870" 
d="M795 412l-729 262v203l729 262v-219l-494 -146l494 -149v-213zM795 362v-186h-727v186h727z" />
    <glyph glyph-name="greaterequal" unicode="&#x2265;" horiz-adv-x="870" 
d="M575 774l-493 146v219l727 -262v-203l-727 -262v213zM807 176h-725v186h725v-186z" />
    <glyph glyph-name="K.ss03" horiz-adv-x="1445" 
d="M1432 0h-275l-465 621l-311 -351v-270h-219v1372h219v-819l725 819h252l-520 -586z" />
    <glyph glyph-name="Kcommaaccent.ss03" horiz-adv-x="1445" 
d="M1432 0h-275l-465 621l-311 -351v-270h-219v1372h219v-819l725 819h252l-520 -586zM641 -92h231l-172 -299h-161z" />
    <glyph glyph-name="Q.ss04" horiz-adv-x="1626" 
d="M1296 -348l-274 350q-102 -31 -209 -31q-197 0 -361.5 95t-259 258.5t-94.5 359.5q0 197 94.5 361.5t259 260t361.5 95.5t362 -95.5t260 -260t95 -361.5q0 -175 -78 -326.5t-213 -248.5l363 -457h-306zM319 684q0 -142 65.5 -258.5t179 -182t249.5 -65.5q210 0 353 145
t143 361q0 143 -65.5 260t-179 183.5t-251.5 66.5q-208 0 -351 -146.5t-143 -363.5z" />
    <glyph glyph-name="I.ss05" horiz-adv-x="917" 
d="M569 1174v-975h301v-199h-823v199h301v975h-301v198h823v-198h-301z" />
    <glyph glyph-name="IJ.ss05" horiz-adv-x="2136" 
d="M870 1372v-198h-301v-975h301v-199h-823v199h301v975h-301v198h823zM1991 1372v-880q0 -229 -144.5 -375t-376.5 -146q-211 0 -347 122t-167 325l209 43q18 -132 97.5 -211.5t207.5 -79.5q134 0 216.5 90.5t82.5 231.5v682h-466v198h688z" />
    <glyph glyph-name="Iacute.ss05" horiz-adv-x="917" 
d="M559 1518h-182l149 290h250zM569 1174v-975h301v-199h-823v199h301v975h-301v198h823v-198h-301z" />
    <glyph glyph-name="Icircumflex.ss05" horiz-adv-x="917" 
d="M336 1501h-213l235 297h203l238 -297h-215l-123 158zM569 1174v-975h301v-199h-823v199h301v975h-301v198h823v-198h-301z" />
    <glyph glyph-name="Idieresis.ss05" horiz-adv-x="917" 
d="M248 1524q-59 0 -97 37t-38 94q0 54 39 93.5t96 39.5t96 -39.5t39 -93.5q0 -57 -38 -94t-97 -37zM672 1524q-59 0 -97 37t-38 94q0 54 39 93.5t96 39.5t96 -39.5t39 -93.5q0 -57 -38 -94t-97 -37zM569 1174v-975h301v-199h-823v199h301v975h-301v198h823v-198h-301z" />
    <glyph glyph-name="Idotaccent.ss05" horiz-adv-x="917" 
d="M457 1540q-57 0 -94 36.5t-37 92.5q0 53 37.5 91t93.5 38t94.5 -38t38.5 -91q0 -55 -38 -92t-95 -37zM569 1174v-975h301v-199h-823v199h301v975h-301v198h823v-198h-301z" />
    <glyph glyph-name="Igrave.ss05" horiz-adv-x="917" 
d="M365 1518l-218 290h250l150 -290h-182zM569 1174v-975h301v-199h-823v199h301v975h-301v198h823v-198h-301z" />
    <glyph glyph-name="Imacron.ss05" horiz-adv-x="917" 
d="M768 1540h-616v174h616v-174zM569 1174v-975h301v-199h-823v199h301v975h-301v198h823v-198h-301z" />
    <glyph glyph-name="Iogonek.ss05" horiz-adv-x="917" 
d="M569 1174v-975h301v-199h-303q-62 -68 -81.5 -91t-36.5 -54t-17 -60q0 -67 70 -67q27 0 98 22l12 -133q-84 -37 -157 -37q-77 0 -130 44t-53 132q0 63 33 119t113 125h-371v199h301v975h-301v198h823v-198h-301z" />
    <glyph glyph-name="J.ss05" horiz-adv-x="1220" 
d="M1073 1372v-880q0 -229 -144 -375t-376 -146q-211 0 -347 122t-167 325l209 43q18 -132 97.5 -211.5t207.5 -79.5q134 0 216.5 90.5t82.5 231.5v682h-467v198h688z" />
    <glyph glyph-name="i.loclTRK" horiz-adv-x="587" 
d="M293 1442q56 0 94.5 -38t38.5 -91q0 -55 -38 -92t-95 -37t-94 36.5t-37 92.5q0 53 37.5 91t93.5 38zM401 0h-213v1016h213v-1016z" />
    <glyph glyph-name="germandbls.case" horiz-adv-x="2555" 
d="M641 1401q208 0 349.5 -104.5t178.5 -282.5l-219 -45q-19 109 -104.5 175t-208.5 66q-120 0 -194 -58.5t-74 -150.5q0 -71 42 -112t132 -60l297 -63q163 -36 257.5 -128.5t94.5 -246.5q0 -192 -144 -306t-382 -114q-148 0 -268.5 45.5t-201.5 139.5t-98 223l234 49
q24 -129 118 -195.5t236 -66.5q135 0 212 58.5t77 154.5q0 77 -44.5 118.5t-148.5 63.5l-299 62q-346 79 -346 372q0 182 138 294t366 112zM1898 1401q208 0 350 -104.5t179 -282.5l-219 -45q-19 109 -105 175t-209 66q-120 0 -194 -58.5t-74 -150.5q0 -71 42 -112t132 -60
l297 -63q163 -36 257.5 -128.5t94.5 -246.5q0 -192 -144 -306t-382 -114q-148 0 -268.5 45.5t-201 139.5t-97.5 223l233 49q24 -129 118.5 -195.5t236.5 -66.5q135 0 211.5 58.5t76.5 154.5q0 77 -44 118.5t-148 63.5l-299 62q-346 79 -346 372q0 182 137.5 294t365.5 112z
" />
    <glyph glyph-name="a.ss01" horiz-adv-x="1118" 
d="M569 1044q198 0 315 -100t117 -282v-662h-202v117q-132 -146 -346 -146q-170 0 -274.5 89.5t-104.5 232.5q0 146 107 233.5t300 87.5h318v31q0 97 -59.5 155t-157.5 58q-103 0 -167 -45t-81 -131l-203 43q26 143 147 231t291 88zM485 143q129 0 221.5 79.5t92.5 195.5v33
h-322q-92 0 -145 -42.5t-53 -111.5t56.5 -111.5t149.5 -42.5z" />
    <glyph glyph-name="aacute.ss01" horiz-adv-x="1118" 
d="M672 1161h-183l150 291h250zM569 1044q198 0 315 -100t117 -282v-662h-202v117q-132 -146 -346 -146q-170 0 -274.5 89.5t-104.5 232.5q0 146 107 233.5t300 87.5h318v31q0 97 -59.5 155t-157.5 58q-103 0 -167 -45t-81 -131l-203 43q26 143 147 231t291 88zM485 143
q129 0 221.5 79.5t92.5 195.5v33h-322q-92 0 -145 -42.5t-53 -111.5t56.5 -111.5t149.5 -42.5z" />
    <glyph glyph-name="abreve.ss01" horiz-adv-x="1118" 
d="M571 1130q-146 0 -232.5 79t-86.5 212h178q0 -63 40.5 -103t100.5 -40q61 0 102.5 40t41.5 103h176q0 -133 -87 -212t-233 -79zM569 1044q198 0 315 -100t117 -282v-662h-202v117q-132 -146 -346 -146q-170 0 -274.5 89.5t-104.5 232.5q0 146 107 233.5t300 87.5h318v31
q0 97 -59.5 155t-157.5 58q-103 0 -167 -45t-81 -131l-203 43q26 143 147 231t291 88zM485 143q129 0 221.5 79.5t92.5 195.5v33h-322q-92 0 -145 -42.5t-53 -111.5t56.5 -111.5t149.5 -42.5z" />
    <glyph glyph-name="acircumflex.ss01" horiz-adv-x="1118" 
d="M449 1145h-213l235 297h203l237 -297h-215l-123 158zM569 1044q198 0 315 -100t117 -282v-662h-202v117q-132 -146 -346 -146q-170 0 -274.5 89.5t-104.5 232.5q0 146 107 233.5t300 87.5h318v31q0 97 -59.5 155t-157.5 58q-103 0 -167 -45t-81 -131l-203 43
q26 143 147 231t291 88zM485 143q129 0 221.5 79.5t92.5 195.5v33h-322q-92 0 -145 -42.5t-53 -111.5t56.5 -111.5t149.5 -42.5z" />
    <glyph glyph-name="adieresis.ss01" horiz-adv-x="1118" 
d="M360 1167q-59 0 -97 37t-38 94q0 54 39 94t96 40t96.5 -40t39.5 -94q0 -57 -38.5 -94t-97.5 -37zM784 1167q-59 0 -97 37t-38 94q0 54 39 94t96 40t96.5 -40t39.5 -94q0 -57 -38.5 -94t-97.5 -37zM569 1044q198 0 315 -100t117 -282v-662h-202v117q-132 -146 -346 -146
q-170 0 -274.5 89.5t-104.5 232.5q0 146 107 233.5t300 87.5h318v31q0 97 -59.5 155t-157.5 58q-103 0 -167 -45t-81 -131l-203 43q26 143 147 231t291 88zM485 143q129 0 221.5 79.5t92.5 195.5v33h-322q-92 0 -145 -42.5t-53 -111.5t56.5 -111.5t149.5 -42.5z" />
    <glyph glyph-name="agrave.ss01" horiz-adv-x="1118" 
d="M477 1161l-217 291h250l149 -291h-182zM569 1044q198 0 315 -100t117 -282v-662h-202v117q-132 -146 -346 -146q-170 0 -274.5 89.5t-104.5 232.5q0 146 107 233.5t300 87.5h318v31q0 97 -59.5 155t-157.5 58q-103 0 -167 -45t-81 -131l-203 43q26 143 147 231t291 88z
M485 143q129 0 221.5 79.5t92.5 195.5v33h-322q-92 0 -145 -42.5t-53 -111.5t56.5 -111.5t149.5 -42.5z" />
    <glyph glyph-name="amacron.ss01" horiz-adv-x="1118" 
d="M881 1184h-617v174h617v-174zM569 1044q198 0 315 -100t117 -282v-662h-202v117q-132 -146 -346 -146q-170 0 -274.5 89.5t-104.5 232.5q0 146 107 233.5t300 87.5h318v31q0 97 -59.5 155t-157.5 58q-103 0 -167 -45t-81 -131l-203 43q26 143 147 231t291 88zM485 143
q129 0 221.5 79.5t92.5 195.5v33h-322q-92 0 -145 -42.5t-53 -111.5t56.5 -111.5t149.5 -42.5z" />
    <glyph glyph-name="aogonek.ss01" horiz-adv-x="1118" 
d="M1038 -250l13 -133q-84 -37 -158 -37q-77 0 -129.5 44t-52.5 132q0 63 32.5 119t112.5 125h-57v117q-132 -146 -346 -146q-170 0 -274.5 89.5t-104.5 232.5q0 146 107 233.5t300 87.5h318v31q0 97 -59.5 155t-157.5 58q-103 0 -167 -45t-81 -131l-203 43q26 143 147 231
t291 88q198 0 315 -100t117 -282v-662h5q-94 -103 -112 -132q-24 -37 -24 -73q0 -67 70 -67q27 0 98 22zM485 143q129 0 221.5 79.5t92.5 195.5v33h-322q-92 0 -145 -42.5t-53 -111.5t56.5 -111.5t149.5 -42.5z" />
    <glyph glyph-name="aring.ss01" horiz-adv-x="1118" 
d="M571 1120q-95 0 -161 64t-66 155q0 92 66 157t161 65q96 0 162 -64.5t66 -157.5q0 -91 -66 -155t-162 -64zM571 1436q-42 0 -71 -28.5t-29 -68.5q0 -39 29 -67.5t71 -28.5t71.5 28.5t29.5 67.5q0 40 -29.5 68.5t-71.5 28.5zM569 1044q198 0 315 -100t117 -282v-662h-202
v117q-132 -146 -346 -146q-170 0 -274.5 89.5t-104.5 232.5q0 146 107 233.5t300 87.5h318v31q0 97 -59.5 155t-157.5 58q-103 0 -167 -45t-81 -131l-203 43q26 143 147 231t291 88zM485 143q129 0 221.5 79.5t92.5 195.5v33h-322q-92 0 -145 -42.5t-53 -111.5t56.5 -111.5
t149.5 -42.5z" />
    <glyph glyph-name="atilde.ss01" horiz-adv-x="1118" 
d="M463 1288q-32 0 -50 -23t-18 -59h-145q0 66 18 114.5t48 74t63.5 37.5t69.5 12q43 0 80.5 -14t59 -30t51.5 -30t60 -14t48 25t18 63h143q0 -67 -17 -116.5t-46.5 -75.5t-62.5 -38t-70 -12q-45 0 -82.5 13.5t-59 29.5t-50 29.5t-58.5 13.5zM569 1044q198 0 315 -100
t117 -282v-662h-202v117q-132 -146 -346 -146q-170 0 -274.5 89.5t-104.5 232.5q0 146 107 233.5t300 87.5h318v31q0 97 -59.5 155t-157.5 58q-103 0 -167 -45t-81 -131l-203 43q26 143 147 231t291 88zM485 143q129 0 221.5 79.5t92.5 195.5v33h-322q-92 0 -145 -42.5
t-53 -111.5t56.5 -111.5t149.5 -42.5z" />
    <glyph glyph-name="l.ss02" horiz-adv-x="655" 
d="M354 1475v-1184q0 -53 36.5 -86t94.5 -33q52 0 123 31l41 -178q-99 -54 -200 -54q-138 0 -223 85t-85 223v1196h213z" />
    <glyph glyph-name="lacute.ss02" horiz-adv-x="655" 
d="M344 1620h-182l149 291h250zM354 1475v-1184q0 -53 36.5 -86t94.5 -33q52 0 123 31l41 -178q-99 -54 -200 -54q-138 0 -223 85t-85 223v1196h213z" />
    <glyph glyph-name="lcaron.ss02" horiz-adv-x="655" 
d="M354 1475v-1184q0 -53 36.5 -86t94.5 -33q52 0 123 31l41 -178q-99 -54 -200 -54q-138 0 -223 85t-85 223v1196h213zM641 1094h-168v381h215z" />
    <glyph glyph-name="lcommaaccent.ss02" horiz-adv-x="655" 
d="M354 1475v-1184q0 -53 36.5 -86t94.5 -33q52 0 123 31l41 -178q-99 -54 -200 -54q-138 0 -223 85t-85 223v1196h213zM178 -391l103 299h231l-172 -299h-162z" />
    <glyph glyph-name="ldot.ss02" horiz-adv-x="786" 
d="M375 1475v-1184q0 -53 36.5 -86t94.5 -33q52 0 123 31l41 -178q-99 -54 -201 -54q-138 0 -222.5 85t-84.5 223v1196h213zM641 836q56 0 94.5 -38t38.5 -91q0 -55 -38 -92t-95 -37t-94 36.5t-37 92.5q0 53 37.5 91t93.5 38z" />
    <glyph glyph-name="lslash.ss02" horiz-adv-x="714" 
d="M668 203l39 -178q-99 -54 -199 -54q-139 0 -223 85t-84 223v260l-140 -84v207l140 83v730h213v-603l161 97v-207l-161 -96v-375q0 -53 35.5 -86t93.5 -33q54 0 125 31z" />
    <glyph glyph-name="k.ss03" horiz-adv-x="1245" 
d="M1235 0h-268l-385 432l-207 -223v-209h-213v1475h213v-979l497 520h250l-399 -432z" />
    <glyph glyph-name="kcommaaccent.ss03" horiz-adv-x="1245" 
d="M1235 0h-268l-385 432l-207 -223v-209h-213v1475h213v-979l497 520h250l-399 -432zM547 -92h231l-172 -299h-162z" />
    <glyph glyph-name="f_j" horiz-adv-x="1355" 
d="M1182 1016v-1110q0 -123 -76.5 -199t-200.5 -76q-94 0 -188 37l41 187q57 -23 94 -23q52 0 83.5 28t31.5 74v906h-547v-840h-213v840h-166v176h166v121q0 169 103 268.5t276 99.5q102 0 184 -43l-49 -172q-64 25 -121 25q-84 0 -132 -47t-48 -131v-121h762zM1071 1190
q-60 0 -97.5 37t-37.5 94q0 55 38 94t97 39q58 0 96.5 -39t38.5 -94q0 -57 -38 -94t-97 -37z" />
    <glyph glyph-name="f_t" horiz-adv-x="1579" 
d="M1505 227l64 -178q-129 -78 -250 -78q-171 0 -269 95.5t-98 279.5v494h-532v-840h-213v840h-166v176h166v121q0 169 103 268.5t276 99.5q102 0 184 -43l-49 -172q-64 25 -121 25q-84 0 -132 -47t-48 -131v-121h532v315h213v-315h348v-176h-348v-480q0 -93 45 -140.5
t123 -47.5q89 0 172 55z" />
    <glyph glyph-name="fl.ss02" horiz-adv-x="1400" 
d="M420 1016h338v-176h-338v-840h-213v840h-166v176h166v121q0 169 102.5 268.5t272.5 99.5q93 0 174 -37l-51 -174q-56 21 -109 21q-81 0 -128.5 -47t-47.5 -131v-121zM1352 203l41 -178q-99 -54 -201 -54q-138 0 -222.5 85t-84.5 223v1196h213v-1184q0 -53 36.5 -86
t94.5 -33q52 0 123 31z" />
    <glyph glyph-name="zero.tf" 
d="M625 1401q164 0 291 -89.5t196.5 -252t69.5 -373.5t-69.5 -373.5t-196.5 -252t-291 -89.5t-290.5 89.5t-195.5 252t-69 373.5t69 373.5t195.5 252t290.5 89.5zM625 174q151 0 242 141.5t91 370.5t-91 369.5t-242 140.5t-241.5 -140.5t-90.5 -369.5t90.5 -370.5
t241.5 -141.5z" />
    <glyph glyph-name="one.tf" 
d="M1124 199v-199h-966v199h401v911l-391 -197v201l471 258h135v-1173h350z" />
    <glyph glyph-name="two.tf" 
d="M1108 199v-199h-930v141l477 459q108 101 144 146q86 107 86 227q0 106 -70 171.5t-182 65.5q-121 0 -191 -73.5t-77 -214.5l-203 41q9 200 139 319t336 119q204 0 331.5 -117.5t127.5 -306.5q0 -73 -18 -135.5t-61.5 -126t-94.5 -120t-136 -138.5l-270 -258h592z" />
    <glyph glyph-name="three.tf" 
d="M932 696q96 -34 149.5 -111.5t53.5 -185.5q0 -192 -132 -310t-346 -118q-215 0 -351.5 121.5t-151.5 319.5l206 41q12 -136 89 -212.5t208 -76.5q121 0 198 64.5t77 168.5q0 96 -67 150.5t-189 54.5h-193v191h181q115 0 179 51.5t64 142.5q0 100 -69.5 160.5t-184.5 60.5
q-120 0 -195.5 -73t-84.5 -211l-201 41q15 196 145.5 316t335.5 120t331 -114.5t126 -299.5q0 -103 -47 -179t-131 -112z" />
    <glyph glyph-name="four.tf" 
d="M1176 303h-177v-303h-213v303h-700v205l627 864h286v-889h177v-180zM786 483v668l-479 -668h479z" />
    <glyph glyph-name="five.tf" 
d="M414 858h245q209 0 334 -114t125 -312q0 -204 -135.5 -332.5t-357.5 -128.5q-140 0 -252.5 53.5t-181 162.5t-68.5 257l211 41q0 -152 82.5 -233.5t212.5 -81.5q126 0 203 70.5t77 187.5q0 109 -72.5 171.5t-193.5 62.5h-446l26 710h838v-198h-635z" />
    <glyph glyph-name="six.tf" 
d="M692 889q218 0 346.5 -126.5t128.5 -326.5q0 -203 -137 -334t-356 -131q-255 0 -403 181.5t-148 504.5q0 401 184 590q151 154 373 154q170 0 290.5 -82t162.5 -232l-211 -40q-52 161 -250 161q-130 0 -221 -98q-128 -139 -121 -395q57 80 155 127t207 47zM670 168
q117 0 197.5 77t80.5 193q0 117 -80.5 193t-197.5 76q-119 0 -198 -78t-79 -195q0 -116 81 -191t196 -75z" />
    <glyph glyph-name="seven.tf" 
d="M1139 1372v-155l-598 -1217h-248l588 1174h-791v198h1049z" />
    <glyph glyph-name="eight.tf" 
d="M874 698q132 -41 203.5 -131t71.5 -200q0 -176 -140 -286t-368 -110q-231 0 -372.5 110t-141.5 286q0 111 71.5 200t204.5 131q-116 42 -175.5 129t-59.5 203q0 166 129.5 268.5t343.5 102.5q210 0 339.5 -102.5t129.5 -268.5q0 -112 -60.5 -200.5t-175.5 -131.5z
M637 1223q-108 0 -180 -56.5t-72 -154.5q0 -96 71 -151.5t181 -55.5q111 0 183.5 57.5t72.5 153.5q0 95 -73 151t-183 56zM637 158q117 0 194.5 59.5t77.5 163.5q0 101 -76 160t-196 59q-117 0 -192.5 -60t-75.5 -163t75 -161t193 -58z" />
    <glyph glyph-name="nine.tf" 
d="M575 1399q257 0 404 -180.5t147 -505.5q0 -401 -184 -590q-151 -154 -373 -154q-170 0 -289.5 82t-160.5 232l211 41q49 -160 248 -160q132 0 221 96q128 139 121 395q-57 -79 -155.5 -125.5t-207.5 -46.5q-216 0 -345.5 126.5t-129.5 324.5q0 202 137.5 333.5
t355.5 131.5zM580 664q119 0 197.5 77.5t78.5 194.5q0 116 -80.5 191t-195.5 75q-117 0 -197 -77t-80 -193t80 -192t197 -76z" />
    <glyph glyph-name="zero.zero.tf" 
d="M625 1401q164 0 291 -89.5t196.5 -252t69.5 -373.5t-69.5 -373.5t-196.5 -252t-291 -89.5t-290.5 89.5t-195.5 252t-69 373.5t69 373.5t195.5 252t290.5 89.5zM625 1196q-151 0 -241.5 -140.5t-90.5 -369.5q0 -127 33 -246l505 662q-84 94 -206 94zM625 174
q151 0 242 141.5t91 370.5q0 150 -40 260l-510 -665q87 -107 217 -107z" />
    <glyph glyph-name="zero.zero" horiz-adv-x="1331" 
d="M682 1401q259 0 419.5 -197.5t160.5 -517.5t-160.5 -517.5t-419.5 -197.5t-419.5 197.5t-160.5 517.5t160.5 517.5t419.5 197.5zM682 1198q-162 0 -259 -141.5t-97 -370.5q0 -123 32 -235l521 675q-84 72 -197 72zM682 174q162 0 259 141.5t97 370.5q0 179 -59 303
l-537 -698q96 -117 240 -117z" />
    <glyph glyph-name="zero.dnom" horiz-adv-x="819" 
d="M410 776q151 0 242 -108.5t91 -288.5q0 -181 -91 -290t-242 -109q-150 0 -241 109t-91 290q0 180 91 288.5t241 108.5zM410 119q77 0 120 68.5t43 191.5q0 120 -43 187t-120 67q-74 0 -119 -67.5t-45 -186.5q0 -121 45 -190.5t119 -69.5z" />
    <glyph glyph-name="one.dnom" horiz-adv-x="493" 
d="M362 0h-157v559l-160 -100v168l215 141h102v-768z" />
    <glyph glyph-name="two.dnom" horiz-adv-x="698" 
d="M303 137h322v-137h-572v104l291 246q72 62 99.5 99t27.5 86q0 53 -35.5 84.5t-93.5 31.5q-65 0 -102.5 -42.5t-40.5 -116.5l-136 30q0 118 76 190t203 72q128 0 205.5 -66.5t77.5 -180.5q0 -80 -45 -143t-138 -140z" />
    <glyph glyph-name="three.dnom" horiz-adv-x="700" 
d="M520 391q119 -53 119 -170q0 -104 -81 -174t-208 -70q-125 0 -208 69.5t-87 186.5l133 33q4 -74 48 -114.5t116 -40.5q63 0 101.5 31.5t38.5 82.5q0 49 -38 77t-100 28h-78v112h68q60 0 98.5 27t38.5 72q0 47 -37 76.5t-96 29.5q-67 0 -105.5 -37.5t-41.5 -107.5l-138 33
q7 110 84.5 174.5t198.5 64.5q122 0 200.5 -65t78.5 -164q0 -106 -105 -154z" />
    <glyph glyph-name="four.dnom" horiz-adv-x="765" 
d="M711 156h-111v-158h-147v158h-406v143l371 467h182v-481h111v-129zM453 285v317l-254 -317h254z" />
    <glyph glyph-name="five.dnom" horiz-adv-x="702" 
d="M238 485h155q111 0 183.5 -66.5t72.5 -176.5q0 -117 -81 -189.5t-212 -72.5q-122 0 -205.5 65.5t-95.5 161.5l150 26q12 -55 53 -87.5t98 -32.5q61 0 101.5 33t40.5 90t-42.5 87.5t-107.5 30.5h-258l21 408h499v-139h-364z" />
    <glyph glyph-name="six.dnom" horiz-adv-x="720" 
d="M403 496q117 0 191 -71.5t74 -184.5q0 -115 -80 -189t-205 -74q-154 0 -240 99.5t-86 277.5q0 225 111 336q84 84 215 84q109 0 182.5 -53.5t91.5 -153.5l-153 -22q-16 100 -125 100q-65 0 -107 -49q-48 -53 -59 -162q78 62 190 62zM377 104q62 0 102.5 40.5t40.5 99.5
t-40.5 100t-102.5 41q-66 0 -107 -41t-41 -100q0 -60 42.5 -100t105.5 -40z" />
    <glyph glyph-name="seven.dnom" horiz-adv-x="595" 
d="M575 766v-121l-296 -647h-170l297 629h-392v139h561z" />
    <glyph glyph-name="eight.dnom" horiz-adv-x="743" 
d="M522 395q76 -23 116 -72.5t40 -121.5q0 -97 -84.5 -160.5t-220.5 -63.5t-221.5 63.5t-85.5 160.5q0 148 153 196q-123 48 -123 168q0 89 80 149t199 60q117 0 195.5 -60t78.5 -149q0 -120 -127 -170zM373 659q-60 0 -98.5 -30t-38.5 -80q0 -43 39.5 -74t97.5 -31
q57 0 95.5 29.5t39.5 75.5q0 50 -38 80t-97 30zM373 104q62 0 102.5 31.5t40.5 83.5q0 50 -39 82.5t-104 32.5q-66 0 -107 -32t-41 -83q0 -52 41.5 -83.5t106.5 -31.5z" />
    <glyph glyph-name="nine.dnom" horiz-adv-x="720" 
d="M340 774q153 0 239.5 -98.5t86.5 -276.5q0 -222 -111 -336q-86 -86 -217 -86q-109 0 -183 54.5t-92 152.5l154 25q18 -100 125 -100q63 0 107 47q49 54 59 163q-79 -63 -191 -63q-117 0 -190.5 72.5t-73.5 185.5q0 115 80.5 187.5t206.5 72.5zM346 369q65 0 106.5 41.5
t41.5 99.5q0 59 -43 99t-105 40q-64 0 -104.5 -40.5t-40.5 -100.5q0 -58 41.5 -98.5t103.5 -40.5z" />
    <glyph glyph-name="zero.numr" horiz-adv-x="819" 
d="M410 1393q151 0 242 -109t91 -289q0 -181 -91 -290t-242 -109q-150 0 -241 109t-91 290q0 180 91.5 289t240.5 109zM410 735q77 0 120 68.5t43 191.5q0 120 -43 187t-120 67q-74 0 -119 -67.5t-45 -186.5q0 -121 45 -190.5t119 -69.5z" />
    <glyph glyph-name="one.numr" horiz-adv-x="493" 
d="M362 604h-157v559l-160 -100v168l215 141h102v-768z" />
    <glyph glyph-name="two.numr" horiz-adv-x="698" 
d="M303 745h322v-137h-572v105l291 245q72 62 99.5 99t27.5 86q0 53 -35.5 85t-93.5 32q-65 0 -102.5 -43t-40.5 -117l-136 30q0 118 76 190.5t203 72.5t205 -67t78 -181q0 -80 -45 -143t-138 -140z" />
    <glyph glyph-name="three.numr" horiz-adv-x="700" 
d="M520 1010q119 -53 119 -170q0 -104 -80.5 -173t-208.5 -69q-125 0 -208 69t-87 185l133 33q4 -74 48.5 -115t115.5 -41q63 0 101.5 32t38.5 83q0 49 -37.5 76.5t-100.5 27.5h-78v113h68q60 0 98.5 26.5t38.5 71.5q0 47 -37 77t-96 30q-66 0 -105 -38t-42 -108l-138 33
q7 110 84.5 175t198.5 65q122 0 200.5 -65.5t78.5 -164.5q0 -105 -105 -153z" />
    <glyph glyph-name="four.numr" horiz-adv-x="765" 
d="M711 762h-111v-156h-147v156h-406v143l371 467h182v-481h111v-129zM453 891v317l-254 -317h254z" />
    <glyph glyph-name="five.numr" horiz-adv-x="702" 
d="M238 1096h155q111 0 183.5 -67t72.5 -177q0 -117 -81 -189.5t-212 -72.5q-122 0 -205.5 65.5t-95.5 161.5l150 27q12 -55 53 -88t98 -33q61 0 101.5 33t40.5 90t-42.5 88t-107.5 31h-258l21 407h499v-139h-364z" />
    <glyph glyph-name="six.numr" horiz-adv-x="720" 
d="M403 1114q117 0 191 -71.5t74 -184.5q0 -115 -80 -187.5t-205 -72.5q-154 0 -240 98.5t-86 276.5q0 225 111 336q84 84 215 84q109 0 182.5 -53.5t91.5 -153.5l-153 -23q-16 101 -125 101q-64 0 -107 -50q-48 -53 -59 -161q77 61 190 61zM377 723q62 0 102.5 40t40.5 99
t-40.5 100.5t-102.5 41.5q-66 0 -107 -41.5t-41 -100.5q0 -60 42.5 -99.5t105.5 -39.5z" />
    <glyph glyph-name="seven.numr" horiz-adv-x="595" 
d="M575 1372v-121l-296 -645h-170l297 627h-392v139h561z" />
    <glyph glyph-name="eight.numr" horiz-adv-x="743" 
d="M522 1014q75 -23 115.5 -73t40.5 -122q0 -96 -84.5 -158.5t-220.5 -62.5q-137 0 -222 62.5t-85 158.5q0 149 153 197q-123 48 -123 168q0 89 80 149t199 60q117 0 195.5 -60t78.5 -149q0 -120 -127 -170zM373 1278q-60 0 -98.5 -30.5t-38.5 -80.5q0 -43 39.5 -73.5
t97.5 -30.5q57 0 95.5 29t39.5 75q0 50 -38 80.5t-97 30.5zM373 723q62 0 102.5 31.5t40.5 83.5q0 50 -39 82t-104 32q-66 0 -107 -31.5t-41 -82.5q0 -52 41.5 -83.5t106.5 -31.5z" />
    <glyph glyph-name="nine.numr" horiz-adv-x="720" 
d="M340 1393q153 0 239.5 -98.5t86.5 -276.5q0 -222 -111 -336q-84 -84 -217 -84q-109 0 -183 53.5t-92 151.5l154 24q18 -100 125 -100q63 0 107 47q48 53 59 164q-80 -64 -191 -64q-116 0 -190 73t-74 186q0 115 80.5 187.5t206.5 72.5zM346 987q65 0 106.5 41.5
t41.5 99.5q0 60 -43 100t-105 40q-63 0 -104 -41t-41 -101q0 -58 41.5 -98.5t103.5 -40.5z" />
    <glyph glyph-name="backslash.case" horiz-adv-x="804" 
d="M752 0h-211l-486 1372h209z" />
    <glyph glyph-name="periodcentered.case" horiz-adv-x="452" 
d="M227 797q57 0 95 -37.5t38 -91.5q0 -56 -37.5 -92.5t-95.5 -36.5t-96.5 36.5t-38.5 92.5q0 53 38.5 91t96.5 38z" />
    <glyph glyph-name="bullet.case" horiz-adv-x="839" 
d="M420 991q139 0 233.5 -93.5t94.5 -223.5q0 -134 -94 -225t-234 -91t-234 91t-94 225q0 130 94.5 223.5t233.5 93.5z" />
    <glyph glyph-name="colon.case" horiz-adv-x="452" 
d="M227 1122q57 0 95 -38t38 -91q0 -56 -37.5 -92.5t-95.5 -36.5t-96.5 36.5t-38.5 92.5q0 53 38.5 91t96.5 38zM227 453q57 0 95 -38.5t38 -92.5q0 -56 -37.5 -92.5t-95.5 -36.5t-96.5 36.5t-38.5 92.5q0 54 39 92.5t96 38.5z" />
    <glyph glyph-name="exclamdown.case" horiz-adv-x="571" 
d="M285 1120q-57 0 -95 38.5t-38 92.5q0 55 37.5 92t95.5 37t96.5 -37.5t38.5 -91.5q0 -53 -39 -92t-96 -39zM170 63l8 881h217l8 -881v-63h-233v63z" />
    <glyph glyph-name="questiondown.case" horiz-adv-x="1081" 
d="M555 1126q-57 0 -95 38t-38 91q0 56 37.5 92.5t95.5 36.5t96.5 -36.5t38.5 -92.5q0 -53 -38.5 -91t-96.5 -38zM811 446l205 -38q-9 -181 -146.5 -306t-345.5 -125q-209 0 -337 121t-128 316q0 160 108 265.5t288 125.5v135h196v-299h-121q-115 0 -189.5 -63.5
t-74.5 -163.5q0 -109 71.5 -177.5t186.5 -68.5q121 0 197 75.5t90 202.5z" />
    <glyph glyph-name="semicolon.case" horiz-adv-x="514" 
d="M287 1122q58 0 96.5 -38t38.5 -91q0 -56 -38.5 -92.5t-96.5 -36.5t-95.5 36.5t-37.5 92.5q0 53 38 91t95 38zM188 -270h-161l129 544h247v-6z" />
    <glyph glyph-name="slash.case" horiz-adv-x="907" 
d="M289 0h-193l520 1372h193z" />
    <glyph glyph-name="braceleft.case" horiz-adv-x="874" 
d="M487 1090v-183q0 -79 -36 -138t-99 -85q63 -28 99 -87t36 -138v-176q0 -46 27 -74.5t70 -28.5h192v-180h-217q-126 0 -202 71.5t-76 190.5v172q0 120 -160 154l-53 16v160l53 16q160 31 160 152v178q0 119 76 190.5t202 71.5h217v-180h-192q-43 0 -70 -28t-27 -74z" />
    <glyph glyph-name="braceright.case" horiz-adv-x="874" 
d="M807 764v-160l-53 -16q-160 -34 -160 -154v-172q0 -118 -76.5 -190t-202.5 -72h-217v180h193q43 0 69.5 28.5t26.5 74.5v176q0 79 36 138t99 85q-63 28 -99 87t-36 138v183q0 46 -26.5 74t-69.5 28h-193v180h217q126 0 202.5 -72t76.5 -190v-178q0 -121 160 -152z" />
    <glyph glyph-name="bracketleft.case" horiz-adv-x="815" 
d="M369 1188v-1004h350v-184h-557v1372h557v-184h-350z" />
    <glyph glyph-name="bracketright.case" horiz-adv-x="815" 
d="M653 1372v-1372h-555v184h351v1004h-351v184h555z" />
    <glyph glyph-name="parenleft.case" horiz-adv-x="677" 
d="M449 1401l133 -129q-132 -140 -193 -280.5t-61 -307.5q0 -164 61 -304.5t193 -281.5l-133 -129q-351 301 -351 715q0 418 351 717z" />
    <glyph glyph-name="parenright.case" horiz-adv-x="677" 
d="M98 1272l133 129q351 -301 351 -717q0 -411 -351 -715l-133 129q131 142 192.5 282.5t61.5 303.5q0 166 -61.5 306.5t-192.5 281.5z" />
    <glyph glyph-name="emdash.case" horiz-adv-x="2129" 
d="M2007 596h-1884v164h1884v-164z" />
    <glyph glyph-name="endash.case" horiz-adv-x="1269" 
d="M1147 596h-1024v164h1024v-164z" />
    <glyph glyph-name="hyphen.case" horiz-adv-x="913" 
d="M791 586h-668v186h668v-186z" />
    <glyph glyph-name="guillemotleft.case" horiz-adv-x="907" 
d="M51 659l240 365h213l-240 -365l240 -364h-213zM406 659l239 365h213l-240 -365l240 -364h-213z" />
    <glyph glyph-name="guillemotright.case" horiz-adv-x="907" 
d="M51 295l240 364l-240 365h213l240 -365l-240 -364h-213zM403 295l240 364l-240 365h213l240 -365l-240 -364h-213z" />
    <glyph glyph-name="guilsinglleft.case" horiz-adv-x="555" 
d="M51 659l240 365h213l-240 -365l240 -364h-213z" />
    <glyph glyph-name="guilsinglright.case" horiz-adv-x="555" 
d="M51 295l240 364l-240 365h213l240 -365l-240 -364h-213z" />
    <glyph glyph-name="cent.tf" 
d="M680 842v-668q170 33 229 207l197 -51q-36 -144 -150 -238t-268 -115v-243h-180v246q-189 35 -311.5 178t-122.5 350q0 205 123 349t311 177v256h180v-252q150 -21 263.5 -114t154.5 -236l-205 -59q-24 90 -82 143.5t-139 69.5zM283 508q0 -125 63 -211.5t168 -116.5v656
q-104 -30 -167.5 -118.5t-63.5 -209.5z" />
    <glyph glyph-name="dollar.tf" 
d="M1133 414q0 -165 -111.5 -269t-294.5 -122v-228h-182v236q-174 28 -293.5 133.5t-132.5 267.5l217 43q7 -106 66.5 -170t150.5 -88v395l-74 17q-66 12 -121 36.5t-103 64t-75.5 101t-27.5 138.5q0 158 107 259t286 120v229h182v-234q168 -26 272.5 -130t116.5 -259
l-213 -39q-3 95 -53 157t-129 87v-379l82 -16q330 -73 330 -350zM553 817v350q-83 -15 -131.5 -65t-48.5 -121q0 -123 157 -160zM721 575v-366q94 13 149.5 67t55.5 130q0 67 -42 105.5t-134 57.5z" />
    <glyph glyph-name="Euro.tf" 
d="M672 178q103 0 179 76t120 225l221 -41q-50 -213 -188.5 -340t-331.5 -127q-202 0 -341 127t-186 359h-108v157h90q-2 23 -2 72l2 66h-90v155h108q44 236 183.5 365t343.5 129q194 0 332 -128.5t188 -348.5l-219 -37q-36 150 -116 229.5t-185 79.5q-110 0 -188 -74
t-113 -215h434l-39 -155h-416l-2 -66q0 -49 2 -72h387l-37 -157h-327q35 -136 113.5 -207.5t185.5 -71.5z" />
    <glyph glyph-name="florin.tf" 
d="M977 1208q-85 0 -141.5 -50.5t-75.5 -143.5l-45 -248h352v-176h-383l-111 -610q-26 -146 -124 -232t-240 -86q-100 0 -186 53l69 172q59 -24 119 -24q58 0 100 33t51 84l111 610h-231v176h262l45 248q33 177 149 281t291 104q136 0 236 -74l-74 -174q-75 57 -174 57z" />
    <glyph glyph-name="sterling.tf" 
d="M1165 199v-199h-1095v135l170 41v346h-170v199h170v225q0 203 127 329t335 126q206 0 328 -121.5t133 -331.5l-198 -33q-33 275 -263 275q-109 0 -176 -67.5t-67 -176.5v-225h393v-199h-393v-323h706z" />
    <glyph glyph-name="yen.tf" 
d="M811 668h264v-164h-344v-129h344v-164h-344v-211h-221v211h-336v164h336v129h-336v164h256l-403 704h243l351 -647l348 647h252z" />
    <glyph glyph-name="approxequal.tf" 
d="M1085 909v-180q-77 -41 -204 -41q-70 0 -135.5 15.5t-108.5 34.5t-106.5 34.5t-131.5 15.5q-66 0 -131.5 -15.5t-103.5 -47.5v178q38 31 102.5 47.5t132.5 16.5t134 -16t111 -34.5t109 -34.5t130 -16q133 0 202 43zM1085 598v-180q-81 -43 -204 -43q-70 0 -135.5 16
t-108.5 35t-106.5 35t-131.5 16q-66 0 -131.5 -15.5t-103.5 -47.5v178q38 31 102 47t133 16q86 0 165.5 -25t158 -50t160.5 -25q133 0 202 43z" />
    <glyph glyph-name="divide.tf" 
d="M616 1104q58 0 97 -39t39 -92q0 -55 -38.5 -92t-97.5 -37q-58 0 -95.5 36.5t-37.5 92.5q0 54 38 92.5t95 38.5zM1085 530h-921v189h921v-189zM616 377q58 0 97 -39t39 -92q0 -54 -39 -91.5t-97 -37.5t-95.5 37t-37.5 92q0 54 38 92.5t95 38.5z" />
    <glyph glyph-name="equal.tf" 
d="M1085 760h-921v186h921v-186zM1085 365h-921v186h921v-186z" />
    <glyph glyph-name="greater.tf" 
d="M782 662l-512 192v227l764 -311v-221l-764 -307v223z" />
    <glyph glyph-name="greaterequal.tf" 
d="M766 774l-494 146v219l727 -262v-203l-727 -262v213zM997 176h-725v186h725v-186z" />
    <glyph glyph-name="less.tf" 
d="M979 242l-762 307v221l762 311v-227l-512 -192l512 -197v-223z" />
    <glyph glyph-name="lessequal.tf" 
d="M981 412l-727 262v203l727 262v-219l-494 -146l494 -149v-213zM981 362v-186h-725v186h725z" />
    <glyph glyph-name="minus.tf" 
d="M1085 530h-921v189h921v-189z" />
    <glyph glyph-name="multiply.tf" 
d="M760 625l282 -281l-135 -137l-282 282l-285 -282l-135 137l282 281l-282 282l135 135l285 -282l282 282l135 -135z" />
    <glyph glyph-name="notequal.tf" 
d="M780 760l-118 -209h423v-186h-530l-94 -164h-195l94 164h-196v186h303l121 209h-424v186h530l99 170h192l-98 -170h198v-186h-305z" />
    <glyph glyph-name="plus.tf" 
d="M1085 530h-366v-372h-189v372h-366v189h366v373h189v-373h366v-189z" />
    <glyph glyph-name="plusminus.tf" 
d="M1085 860v-186h-366v-322h-189v322h-366v186h366v352h189v-352h366zM164 186h921v-186h-921v186z" />
    <glyph glyph-name="bar.case" horiz-adv-x="528" 
d="M369 -84h-207v1540h207v-1540z" />
    <glyph glyph-name="at.case" horiz-adv-x="1947" 
d="M1358 1051v-592q0 -55 38 -88t95 -33q67 0 113.5 56.5t66 134.5t19.5 167q0 144 -55.5 268t-150.5 209.5t-225 134t-276 48.5q-205 0 -371 -92t-260 -254.5t-94 -362.5q0 -150 55.5 -282t150.5 -224.5t224.5 -146t272.5 -53.5q128 0 260 40t235 115l72 -112
q-105 -82 -258 -128t-305 -46q-231 0 -424 106t-307.5 298.5t-114.5 430.5t113 430t310.5 300t440.5 108q232 0 425.5 -99t308 -277.5t114.5 -399.5q0 -71 -11.5 -139t-39 -133.5t-68 -114.5t-103 -79t-139.5 -30q-92 0 -153 37.5t-86 103.5q-104 -135 -299 -135
q-176 0 -294 117.5t-118 304.5q0 192 118.5 310t293.5 118q176 0 285 -125v109h141zM952 360q109 0 187 77.5t78 203.5t-78 202.5t-187 76.5q-110 0 -188 -76t-78 -203t78.5 -204t187.5 -77z" />
    <glyph glyph-name="caron.alt" horiz-adv-x="1228" 
d="M700 950h-168v381h216z" />
    </font>
</defs>
</svg>
