<svg width="63" height="63" viewBox="0 0 63 63" fill="none" xmlns="http://www.w3.org/2000/svg">
<circle cx="31.5" cy="31.5" r="31.5" fill="#FBE8BD"/>
<g clip-path="url(#clip0)">
<path d="M27.0835 47.3449L33.7126 27.4574C33.9581 26.7206 33.5599 25.9242 32.8232 25.6786C32.0865 25.4331 31.29 25.8312 31.0444 26.568L24.4153 46.4555C24.1698 47.1923 24.5679 47.9887 25.3047 48.2343C25.4522 48.2834 25.6022 48.3068 25.7495 48.3068C26.3383 48.3069 26.887 47.9342 27.0835 47.3449Z" fill="#F1A350"/>
<path d="M37.019 41.1753C39.3453 41.1753 41.2378 39.2828 41.2378 36.9565C41.2378 34.6303 39.3453 32.7378 37.019 32.7378C34.6928 32.7378 32.8003 34.6303 32.8003 36.9565C32.8003 39.2828 34.6928 41.1753 37.019 41.1753ZM37.019 35.5503C37.7945 35.5503 38.4253 36.1811 38.4253 36.9565C38.4253 37.732 37.7945 38.3628 37.019 38.3628C36.2436 38.3628 35.6128 37.732 35.6128 36.9565C35.6128 36.1811 36.2436 35.5503 37.019 35.5503Z" fill="#F1A350"/>
<path d="M21.1089 32.7378C18.7827 32.7378 16.8901 34.6303 16.8901 36.9565C16.8901 39.2828 18.7827 41.1753 21.1089 41.1753C23.4351 41.1753 25.3276 39.2828 25.3276 36.9565C25.3276 34.6303 23.4352 32.7378 21.1089 32.7378ZM21.1089 38.3628C20.3335 38.3628 19.7026 37.732 19.7026 36.9565C19.7026 36.1811 20.3335 35.5503 21.1089 35.5503C21.8843 35.5503 22.5151 36.1811 22.5151 36.9565C22.5151 37.732 21.8844 38.3628 21.1089 38.3628Z" fill="#F1A350"/>
<path d="M55.7192 32.4377L50.8154 25.8993L51.0068 24.5603C51.0693 24.1221 50.922 23.68 50.609 23.367L47.6259 20.3839L50.6089 17.4008C51.1581 16.8517 51.1581 15.9613 50.6089 15.4121C50.0598 14.863 49.1694 14.863 48.6202 15.4121L45.6372 18.3952L42.654 15.4121C42.3411 15.099 41.899 14.9522 41.4608 15.0143L27.5396 17.003C27.2383 17.046 26.9593 17.1856 26.7441 17.4008L9.50834 34.6365C7.49787 36.6469 7.49787 39.9182 9.50834 41.9286L24.0924 56.5127C24.3907 56.811 24.7173 57.0641 25.063 57.2738V57.844C25.063 60.6871 27.3761 63.0002 30.2192 63.0002H50.8442C53.6874 63.0002 56.0005 60.6871 56.0005 57.844V33.2815C56.0005 32.9772 55.9018 32.6811 55.7192 32.4377ZM11.4971 39.9399C10.5832 39.026 10.5832 37.5391 11.4971 36.6252L28.4013 19.721L41.1624 17.898L43.6484 20.384L41.6596 22.3727L40.6652 21.3783C40.1161 20.8292 39.2257 20.8292 38.6765 21.3783C38.1273 21.9274 38.1273 22.8178 38.6765 23.367L42.654 27.3446C42.9286 27.6192 43.2885 27.7565 43.6484 27.7565C44.0082 27.7565 44.3682 27.6192 44.6427 27.3446C45.1919 26.7955 45.1919 25.905 44.6427 25.3558L43.6483 24.3614L45.637 22.3727L48.1229 24.8587L46.2999 37.6197L29.3957 54.524C28.953 54.9667 28.3645 55.2104 27.7384 55.2104C27.1123 55.2104 26.5238 54.9666 26.0811 54.524L11.4971 39.9399ZM53.188 57.844C53.188 59.1363 52.1366 60.1877 50.8442 60.1877H30.2192C28.9851 60.1877 27.9715 59.2288 27.8825 58.017C29.1544 57.9818 30.4158 57.4813 31.3843 56.5127L48.6201 39.277C48.8353 39.0618 48.9749 38.7827 49.0179 38.4815L50.2529 29.8368L53.188 33.7502V57.844Z" fill="#F1A350"/>
</g>
<defs>
<clipPath id="clip0">
<rect width="48" height="48" fill="white" transform="translate(8 15)"/>
</clipPath>
</defs>
</svg>
